<svg width="18" height="19" viewBox="0 0 18 19" fill="none" xmlns="http://www.w3.org/2000/svg">
<path d="M4.3875 13.325C5.025 12.8375 5.7375 12.4532 6.525 12.1722C7.3125 11.8912 8.1375 11.7505 9 11.75C9.8625 11.7495 10.6875 11.8903 11.475 12.1722C12.2625 12.4542 12.975 12.8385 13.6125 13.325C14.05 12.8125 14.3908 12.2312 14.6348 11.5812C14.8788 10.9312 15.0005 10.2375 15 9.5C15 7.8375 14.4158 6.42175 13.2473 5.25275C12.0788 4.08375 10.663 3.4995 9 3.5C7.337 3.5005 5.92125 4.085 4.75275 5.2535C3.58425 6.422 3 7.8375 3 9.5C3 10.2375 3.122 10.9312 3.366 11.5812C3.61 12.2312 3.9505 12.8125 4.3875 13.325ZM9 10.25C8.2625 10.25 7.6405 9.997 7.134 9.491C6.6275 8.985 6.3745 8.363 6.375 7.625C6.3755 6.887 6.62875 6.265 7.13475 5.759C7.64075 5.253 8.2625 5 9 5C9.7375 5 10.3595 5.25325 10.866 5.75975C11.3725 6.26625 11.6255 6.888 11.625 7.625C11.6245 8.362 11.3715 8.984 10.866 9.491C10.3605 9.998 9.7385 10.251 9 10.25ZM9 17C7.9625 17 6.9875 16.803 6.075 16.409C5.1625 16.015 4.36875 15.4808 3.69375 14.8063C3.01875 14.1318 2.4845 13.338 2.091 12.425C1.6975 11.512 1.5005 10.537 1.5 9.5C1.4995 8.463 1.6965 7.488 2.091 6.575C2.4855 5.662 3.01975 4.86825 3.69375 4.19375C4.36775 3.51925 5.1615 2.985 6.075 2.591C6.9885 2.197 7.9635 2 9 2C10.0365 2 11.0115 2.197 11.925 2.591C12.8385 2.985 13.6323 3.51925 14.3063 4.19375C14.9803 4.86825 15.5148 5.662 15.9098 6.575C16.3048 7.488 16.5015 8.463 16.5 9.5C16.4985 10.537 16.3015 11.512 15.909 12.425C15.5165 13.338 14.9823 14.1318 14.3063 14.8063C13.6303 15.4808 12.8365 16.0152 11.925 16.4097C11.0135 16.8042 10.0385 17.001 9 17ZM9 15.5C9.6625 15.5 10.2875 15.4033 10.875 15.2098C11.4625 15.0163 12 14.738 12.4875 14.375C12 14.0125 11.4625 13.7345 10.875 13.541C10.2875 13.3475 9.6625 13.2505 9 13.25C8.3375 13.2495 7.7125 13.3465 7.125 13.541C6.5375 13.7355 6 14.0135 5.5125 14.375C6 14.7375 6.5375 15.0158 7.125 15.2098C7.7125 15.4038 8.3375 15.5005 9 15.5ZM9 8.75C9.325 8.75 9.59375 8.64375 9.80625 8.43125C10.0188 8.21875 10.125 7.95 10.125 7.625C10.125 7.3 10.0188 7.03125 9.80625 6.81875C9.59375 6.60625 9.325 6.5 9 6.5C8.675 6.5 8.40625 6.60625 8.19375 6.81875C7.98125 7.03125 7.875 7.3 7.875 7.625C7.875 7.95 7.98125 8.21875 8.19375 8.43125C8.40625 8.64375 8.675 8.75 9 8.75Z" fill="black"/>
</svg>
