<svg width="40" height="40" viewBox="0 0 40 40" fill="none" xmlns="http://www.w3.org/2000/svg">
<rect width="40" height="40" rx="20" fill="white" fill-opacity="0.1"/>
<path d="M24.7613 28.625C23.7404 29.6146 22.6259 29.4583 21.5529 28.9896C20.4175 28.5104 19.3759 28.4896 18.1779 28.9896C16.6779 29.6354 15.8863 29.4479 14.9904 28.625C9.90711 23.3854 10.6571 15.4063 16.4279 15.1146C17.8342 15.1875 18.8134 15.8854 19.6363 15.9479C20.8654 15.6979 22.0425 14.9792 23.355 15.0729C24.9279 15.1979 26.1154 15.8229 26.8967 16.9479C23.6467 18.8958 24.4175 23.1771 27.3967 24.375C26.8029 25.9375 26.0321 27.4896 24.7509 28.6354L24.7613 28.625ZM19.5321 15.0521C19.3759 12.7292 21.2613 10.8125 23.4279 10.625C23.73 13.3125 20.9904 15.3125 19.5321 15.0521Z" fill="white"/>
</svg>
