<svg width="20" height="20" viewBox="0 0 20 20" fill="none" xmlns="http://www.w3.org/2000/svg">
<path d="M3.93252 7.0575C3.99058 6.9993 4.05955 6.95312 4.13548 6.92161C4.21141 6.8901 4.29281 6.87388 4.37502 6.87388C4.45723 6.87388 4.53863 6.8901 4.61456 6.92161C4.69049 6.95312 4.75946 6.9993 4.81752 7.0575L10 12.2412L15.1825 7.0575C15.2999 6.94014 15.459 6.87421 15.625 6.87421C15.791 6.87421 15.9502 6.94014 16.0675 7.0575C16.1849 7.17486 16.2508 7.33403 16.2508 7.5C16.2508 7.66597 16.1849 7.82514 16.0675 7.9425L10.4425 13.5675C10.3845 13.6257 10.3155 13.6719 10.2396 13.7034C10.1636 13.7349 10.0822 13.7511 10 13.7511C9.91781 13.7511 9.83641 13.7349 9.76048 13.7034C9.68455 13.6719 9.61558 13.6257 9.55752 13.5675L3.93252 7.9425C3.87431 7.88444 3.82814 7.81547 3.79663 7.73954C3.76512 7.66361 3.7489 7.58221 3.7489 7.5C3.7489 7.41779 3.76512 7.33639 3.79663 7.26046C3.82814 7.18453 3.87431 7.11556 3.93252 7.0575Z" fill="white"/>
</svg>
