<svg width="15" height="15" viewBox="0 0 15 15" fill="none" xmlns="http://www.w3.org/2000/svg">
<path d="M9.70664 11.8559C9.7502 11.8994 9.78474 11.9511 9.80831 12.008C9.83188 12.0649 9.84401 12.1259 9.84401 12.1875C9.84401 12.2491 9.83188 12.3101 9.80831 12.367C9.78474 12.4239 9.7502 12.4756 9.70664 12.5192C9.66309 12.5627 9.61139 12.5973 9.55449 12.6208C9.49758 12.6444 9.43659 12.6565 9.375 12.6565C9.31341 12.6565 9.25242 12.6444 9.19552 12.6208C9.13862 12.5973 9.08691 12.5627 9.04336 12.5192L4.35586 7.83166C4.31228 7.78812 4.2777 7.73643 4.25412 7.67952C4.23053 7.62261 4.21838 7.56162 4.21838 7.50002C4.21838 7.43842 4.23053 7.37742 4.25412 7.32051C4.2777 7.26361 4.31228 7.21191 4.35586 7.16838L9.04336 2.48088C9.13132 2.39292 9.25061 2.34351 9.375 2.34351C9.49939 2.34351 9.61869 2.39292 9.70664 2.48088C9.7946 2.56883 9.84401 2.68813 9.84401 2.81252C9.84401 2.93691 9.7946 3.0562 9.70664 3.14416L5.3502 7.50002L9.70664 11.8559Z" fill="black"/>
</svg>
