<svg width="25" height="26" viewBox="0 0 25 26" fill="none" xmlns="http://www.w3.org/2000/svg">
<path d="M20.7266 16.5395C20.6167 16.6493 20.4678 16.7109 20.3125 16.7109C20.1573 16.7109 20.0083 16.6493 19.8985 16.5395L12.5 9.14206L5.1016 16.5395C4.99052 16.643 4.84361 16.6994 4.69181 16.6967C4.54001 16.694 4.39518 16.6325 4.28783 16.5252C4.18047 16.4178 4.11898 16.273 4.1163 16.1212C4.11362 15.9694 4.16997 15.8225 4.27347 15.7114L12.086 7.8989C12.1958 7.78917 12.3448 7.72754 12.5 7.72754C12.6553 7.72754 12.8042 7.78917 12.9141 7.8989L20.7266 15.7114C20.8363 15.8213 20.898 15.9702 20.898 16.1255C20.898 16.2807 20.8363 16.4297 20.7266 16.5395Z" fill="black"/>
</svg>
