<svg width="15" height="15" viewBox="0 0 15 15" fill="none" xmlns="http://www.w3.org/2000/svg">
<path d="M10.6442 7.83166L5.95666 12.5192C5.91311 12.5627 5.8614 12.5973 5.8045 12.6208C5.7476 12.6444 5.68661 12.6565 5.62502 12.6565C5.56343 12.6565 5.50244 12.6444 5.44553 12.6208C5.38863 12.5973 5.33693 12.5627 5.29338 12.5192C5.24982 12.4756 5.21528 12.4239 5.19171 12.367C5.16814 12.3101 5.15601 12.2491 5.15601 12.1875C5.15601 12.1259 5.16814 12.0649 5.19171 12.008C5.21528 11.9511 5.24982 11.8994 5.29338 11.8559L9.64982 7.50002L5.29338 3.14416C5.20542 3.0562 5.15601 2.93691 5.15601 2.81252C5.15601 2.68813 5.20542 2.56883 5.29338 2.48088C5.38133 2.39292 5.50063 2.34351 5.62502 2.34351C5.74941 2.34351 5.8687 2.39292 5.95666 2.48088L10.6442 7.16838C10.6877 7.21191 10.7223 7.26361 10.7459 7.32051C10.7695 7.37742 10.7816 7.43842 10.7816 7.50002C10.7816 7.56162 10.7695 7.62261 10.7459 7.67952C10.7223 7.73643 10.6877 7.78812 10.6442 7.83166Z" fill="white"/>
</svg>
