<svg width="25" height="26" viewBox="0 0 25 26" fill="none" xmlns="http://www.w3.org/2000/svg">
<path d="M2.9375 13L10.974 21.0375C11.1267 21.1903 11.2024 21.3736 11.201 21.5875C11.1997 21.8014 11.1219 21.9851 10.9677 22.1385C10.8135 22.292 10.6299 22.3688 10.4167 22.3688C10.2035 22.3688 10.0198 22.292 9.86563 22.1385L1.90625 14.1844C1.73819 14.0156 1.61528 13.8281 1.5375 13.6219C1.46042 13.4142 1.42188 13.2069 1.42188 13C1.42188 12.7931 1.46042 12.5861 1.5375 12.3792C1.61528 12.1722 1.73819 11.9847 1.90625 11.8167L9.86458 3.85417C10.0181 3.7007 10.2028 3.625 10.4188 3.62709C10.634 3.62917 10.8188 3.70695 10.9729 3.86042C11.1257 4.01389 11.2021 4.19757 11.2021 4.41146C11.2021 4.62535 11.1257 4.80903 10.9729 4.9625L2.9375 13Z" fill="#130C76"/>
</svg>
