<svg width="40" height="40" viewBox="0 0 40 40" fill="none" xmlns="http://www.w3.org/2000/svg">
<circle cx="20" cy="20" r="20" fill="#F9D16C"/>
<mask id="mask0_900_8508" style="mask-type:luminance" maskUnits="userSpaceOnUse" x="0" y="4" width="37" height="36">
<path d="M31.5875 34.8503C28.028 38.4294 23.7872 40.1447 18.863 39.9904C13.9407 39.8379 9.66184 37.934 6.02553 34.2778C2.31622 30.548 0.517921 26.4157 0.629925 21.8836C0.74557 17.3515 2.46602 13.4106 5.79823 10.0602C8.07072 7.77517 10.7788 6.15837 13.9213 5.20561C17.0648 4.25356 20.2268 4.11984 23.4081 4.80499C26.5876 5.49205 29.3142 6.97671 31.5867 9.26175C34.9946 12.6885 36.7586 16.8942 36.8696 21.8846C36.9861 26.873 35.2228 31.195 31.5875 34.8503Z" fill="white"/>
</mask>
<g mask="url(#mask0_900_8508)">
<path d="M17.2284 29.8583C17.2284 29.8583 16.2426 31.5407 13.0794 29.8367C10.3752 28.3799 12.1426 26.4272 12.1426 26.4272C12.1426 26.4272 10.2901 27.6228 9.53759 26.7302C8.78512 25.8376 11.2189 25.1052 11.2189 25.1052C11.2189 25.1052 6.5128 25.8569 6.33075 23.0396C6.1487 20.2223 9.92493 20.7429 9.92493 20.7429C9.92493 20.7429 5.12627 19.5874 6.34462 16.0559C7.56296 12.5245 10.6649 13.7156 10.6649 13.7156C10.6649 13.7156 7.6233 13.0484 7.92966 11.8284C8.23603 10.6083 11.1849 12.4094 11.1849 12.4094C11.1849 12.4094 8.61972 9.70615 11.1115 7.00671C13.6034 4.30727 17.1358 8.85974 17.1358 8.85974C17.1358 8.85974 16.7025 6.04855 18.6238 5.27379C20.545 4.49904 19.9366 8.76263 19.9366 8.76263C19.9366 8.76263 19.6828 4.94639 22.6303 5.502C25.5779 6.05761 23.7456 10.7834 23.7456 10.7834C23.7456 10.7834 25.245 6.34126 28.3903 8.26246C31.5356 10.1835 29.1221 14.4462 27.7217 15.1605C26.3215 15.8747 28.9919 12.256 30.6852 14.2644C32.3784 16.2727 27.9026 16.7321 27.9026 16.7321C27.9026 16.7321 32.019 15.6202 32.5688 18.9868C33.1186 22.3534 28.3353 22.7872 28.3353 22.7872C28.3353 22.7872 30.3084 22.6394 30.3783 24.3057C30.4482 25.972 27.38 24.3686 27.38 24.3686C27.38 24.3686 29.7824 26.5395 28.1783 28.4823C26.5741 30.4249 23.9233 27.507 23.9233 27.507C23.9233 27.507 25.2065 29.4814 23.4987 30.1702C21.7909 30.859 20.6863 27.9654 20.6863 27.9654L17.2284 29.8583Z" fill="#161114"/>
<path d="M16.2447 30.6497C17.3199 29.7266 16.3215 24.4395 16.3215 24.4395H22.4143C22.4143 24.4395 21.416 29.7266 22.4911 30.6497C23.5662 31.5728 31.7066 31.489 30.9387 40.3845H7.7971C7.0292 31.4888 15.1696 31.5728 16.2447 30.6497Z" fill="#8E3E30"/>
<path d="M16.556 30.1216C17.0877 28.494 16.3223 24.4395 16.3223 24.4395H22.415C22.415 24.4395 22.0039 26.6195 21.9941 28.4243C20.46 29.6385 18.5329 30.1194 16.556 30.1216Z" fill="#723021"/>
<path d="M14.6059 30.9014C14.6059 30.9014 15.4672 33.8145 19.3692 33.8376C23.2711 33.8145 24.1324 30.9014 24.1324 30.9014C32.9622 32.9993 31.0701 40.3844 31.0701 40.3844L19.4149 40.4678V40.4685L19.3692 40.4681L19.3234 40.4685V40.4678L7.66823 40.3844C7.66823 40.3844 5.7763 32.9993 14.6059 30.9014Z" fill="#86C1E2"/>
<path d="M16.2652 40.4541L13.3033 31.0664C13.3033 31.0664 7.31785 31.8924 6.80273 40.3921L16.2652 40.4541Z" fill="#D84848"/>
<path d="M22.5762 40.4541L25.538 31.0664C25.538 31.0664 31.1424 31.8924 31.6575 40.3921L22.5762 40.4541Z" fill="#D84848"/>
<path d="M26.3877 21.9612C26.0764 23.107 25.1997 24.1229 24.5106 23.9335C23.8214 23.7442 23.5805 22.4211 23.8919 21.2754C24.2033 20.1297 24.949 19.5951 25.6382 19.7845C26.3274 19.974 26.6991 20.8155 26.3877 21.9612Z" fill="#723021"/>
<path d="M26.2562 21.4732C26.2161 21.329 26.1719 21.1881 26.1217 21.0551C26.0951 20.9892 26.0658 20.9258 26.0341 20.8696C26.0025 20.8152 25.9589 20.7676 25.9313 20.7605C25.9098 20.7566 25.907 20.7605 25.8654 20.788C25.859 20.7948 25.8408 20.8076 25.8439 20.8081C25.8333 20.8201 25.8136 20.8368 25.8103 20.8452C25.8052 20.8548 25.8014 20.8604 25.7941 20.871L25.7714 20.9074C25.712 21.0124 25.6707 21.1442 25.6317 21.2765C25.592 21.4094 25.5599 21.5474 25.5322 21.6873C25.5001 21.8262 25.4725 21.9672 25.4477 22.1093L25.3702 22.5365L25.2953 22.965L25.2419 22.8529C25.269 22.8747 25.2873 22.8926 25.3083 22.9137C25.3284 22.9343 25.3477 22.9557 25.3661 22.9784C25.4026 23.0237 25.4363 23.0741 25.4618 23.133C25.4864 23.1918 25.5023 23.2641 25.4883 23.3368C25.473 23.4095 25.43 23.4683 25.3841 23.508C25.2906 23.5888 25.1866 23.6189 25.0857 23.644C24.9846 23.6686 24.8823 23.6771 24.7812 23.6836C24.8766 23.6489 24.9699 23.6095 25.0578 23.5661C25.1013 23.5438 25.1438 23.5197 25.1814 23.4923C25.2199 23.4664 25.2544 23.4366 25.2778 23.4045C25.3271 23.3375 25.3186 23.2873 25.2806 23.224C25.2603 23.193 25.2327 23.1622 25.201 23.1339C25.1851 23.1198 25.1682 23.1062 25.1509 23.0933C25.1343 23.0811 25.1136 23.067 25.0999 23.0595L25.0458 23.03L25.0465 22.9472C25.0477 22.7964 25.0488 22.6484 25.0587 22.4995C25.0701 22.3511 25.0807 22.2024 25.101 22.0542C25.1221 21.9064 25.1462 21.7584 25.1755 21.6104C25.2095 21.4632 25.2483 21.3163 25.2971 21.1693C25.3468 21.0225 25.4111 20.8778 25.5082 20.7343C25.5339 20.6998 25.5615 20.6625 25.6041 20.6233C25.6244 20.6034 25.635 20.5987 25.6509 20.5858C25.6813 20.5616 25.6957 20.557 25.7189 20.5424C25.7652 20.5199 25.8158 20.4972 25.882 20.4946C25.9464 20.4906 26.0169 20.5122 26.0657 20.548C26.1614 20.6231 26.1919 20.7101 26.2205 20.7875C26.2463 20.8663 26.259 20.9439 26.2664 21.0208C26.2831 21.1733 26.2772 21.3246 26.2562 21.4732Z" fill="#5E1D12"/>
<path d="M24.9581 23.3613C25.9715 23.3613 26.7932 24.1875 26.7932 25.2065C26.7932 26.2255 25.9715 27.0517 24.9581 27.0517C23.9447 27.0517 23.123 26.2255 23.123 25.2065" stroke="white" stroke-width="0.334385" stroke-miterlimit="10" stroke-linecap="round"/>
<path d="M12.3515 21.9612C12.6629 23.107 13.5395 24.1229 14.2285 23.9335C14.9177 23.7442 15.1585 22.4211 14.8471 21.2754C14.5357 20.1297 13.79 19.5951 13.1008 19.7845C12.4118 19.974 12.0401 20.8155 12.3515 21.9612Z" fill="#723021"/>
<path d="M12.4847 21.4735C12.4637 21.3248 12.458 21.1737 12.4741 21.0208C12.4818 20.9441 12.4942 20.8663 12.5201 20.7875C12.5485 20.7099 12.579 20.6231 12.6749 20.548C12.7236 20.5122 12.7942 20.4906 12.8585 20.4946C12.9247 20.4972 12.9754 20.5199 13.0217 20.5424C13.0449 20.557 13.0593 20.5614 13.0896 20.5858C13.1056 20.5989 13.1162 20.6034 13.1364 20.6233C13.1793 20.6625 13.2067 20.6998 13.2323 20.7343C13.3294 20.8776 13.3937 21.0225 13.4435 21.1693C13.4924 21.3163 13.5312 21.4632 13.565 21.6104C13.5943 21.7584 13.6184 21.9064 13.6396 22.0542C13.6599 22.2023 13.6705 22.3511 13.6819 22.4995C13.6918 22.6484 13.6928 22.7962 13.694 22.9472L13.6947 23.03L13.6406 23.0595C13.6269 23.067 13.6063 23.0811 13.5897 23.0933C13.5723 23.1062 13.5555 23.1198 13.5396 23.1339C13.5078 23.1623 13.4803 23.193 13.46 23.224C13.4222 23.2875 13.4137 23.3377 13.4627 23.4045C13.486 23.4366 13.5207 23.4664 13.5591 23.4923C13.5968 23.5197 13.6392 23.544 13.6828 23.5661C13.7707 23.6095 13.864 23.6487 13.9593 23.6836C13.8582 23.6771 13.7561 23.6686 13.6549 23.644C13.5541 23.6189 13.4499 23.5888 13.3565 23.508C13.3105 23.4685 13.2675 23.4095 13.2523 23.3368C13.238 23.2641 13.2542 23.1918 13.2788 23.133C13.3043 23.0741 13.3379 23.0239 13.3745 22.9784C13.3929 22.9557 13.4123 22.9345 13.4324 22.9137C13.4534 22.8926 13.4718 22.8747 13.4988 22.8529L13.4454 22.965L13.3705 22.5365L13.293 22.1093C13.2682 21.9674 13.2406 21.8262 13.2086 21.6873C13.1807 21.5476 13.1488 21.4094 13.1091 21.2765C13.07 21.1442 13.0286 21.0124 12.9693 20.9074L12.9466 20.871C12.9393 20.8606 12.9353 20.8548 12.9305 20.8452C12.9273 20.837 12.9076 20.8203 12.8968 20.8082C12.9001 20.8079 12.8818 20.795 12.8753 20.7882C12.8337 20.7605 12.8309 20.7566 12.8094 20.7605C12.7821 20.7676 12.7384 20.8152 12.7066 20.8696C12.6749 20.9258 12.6456 20.9894 12.6191 21.0551C12.569 21.1885 12.5248 21.3293 12.4847 21.4735Z" fill="#5E1D12"/>
<path d="M13.755 23.3623C12.7416 23.3623 11.9199 24.1885 11.9199 25.2075C11.9199 26.2265 12.7416 27.0527 13.755 27.0527C14.7684 27.0527 15.59 26.2265 15.59 25.2075" stroke="white" stroke-width="0.334385" stroke-miterlimit="10" stroke-linecap="round"/>
<path d="M25.0841 19.9071C25.0841 24.1016 22.5057 28.3832 19.3252 28.3832C16.1447 28.3832 13.5664 24.1016 13.5664 19.9071C13.5664 15.7125 16.1447 13.1934 19.3252 13.1934C22.5057 13.1934 25.0841 15.7125 25.0841 19.9071Z" fill="#8E3E30"/>
<path d="M13.6104 21.8517C13.6104 21.8517 13.1948 15.3978 19.0993 15.1396C25.0229 14.8807 24.8942 22.067 24.8942 22.067C24.8942 22.067 27.6629 11.9672 19.8076 11.7083C11.6339 11.4389 13.6104 21.8517 13.6104 21.8517Z" fill="#D84848"/>
<path d="M14.6746 17.525C14.3287 17.0552 14.0425 16.5545 13.7999 16.0332C13.0298 18.7926 13.6101 21.8524 13.6101 21.8524C13.6101 21.8524 13.4585 19.456 14.6746 17.525Z" fill="#C43333"/>
<path d="M24.6691 14.6182C24.5247 15.6879 24.2372 16.732 23.8613 17.7515C24.9344 19.716 24.8945 22.0672 24.8945 22.0672C24.8945 22.0672 26.0957 17.6835 24.6691 14.6182Z" fill="#C43333"/>
<path d="M19.0212 20.4912C19.0812 20.6155 19.1285 20.7463 19.1646 20.8795C19.2036 21.0125 19.2286 21.1488 19.2503 21.2865C19.2697 21.4244 19.2785 21.5641 19.282 21.7048C19.2808 21.8453 19.2728 21.9867 19.2556 22.1281C19.2345 22.2689 19.2024 22.4089 19.1615 22.5472C19.1216 22.6863 19.0587 22.8183 18.9914 22.9475C18.9559 23.0113 18.9198 23.0747 18.877 23.1343C18.8355 23.1945 18.7875 23.2504 18.7403 23.3057C18.6909 23.3598 18.6412 23.4129 18.5864 23.4609C18.533 23.5104 18.4719 23.5507 18.4149 23.5946L18.3957 23.3659C18.5751 23.4799 18.7506 23.6014 18.9259 23.7231C19.0998 23.8474 19.2731 23.9726 19.4399 24.1094C19.2364 24.0388 19.0392 23.9563 18.8428 23.873C18.6476 23.7871 18.4527 23.7011 18.2618 23.6075L18.1035 23.5299L18.2427 23.3788C18.2854 23.3324 18.3317 23.2907 18.3697 23.241C18.4121 23.1961 18.4496 23.1465 18.4867 23.0974C18.5219 23.0466 18.5574 22.9964 18.5871 22.9422C18.6195 22.8899 18.6495 22.836 18.6774 22.781C18.7041 22.7252 18.7313 22.6696 18.7528 22.611L18.8177 22.4354C18.8575 22.3165 18.8882 22.1936 18.9135 22.0688C18.9413 21.9441 18.9609 21.8167 18.9746 21.6879C18.9926 21.5592 19.0025 21.4286 19.0094 21.297C19.0188 21.1652 19.0204 21.0325 19.0233 20.8981C19.0228 20.7646 19.0252 20.6289 19.0212 20.4912Z" fill="#5E1D12"/>
<path d="M21.1044 25.2534C21.1044 25.2534 18.9994 26.8939 17.3457 25.0693L21.1044 25.2534Z" fill="white"/>
<path d="M18.283 19.8539C18.283 19.8539 18.2247 19.8187 18.1228 19.757C18.0215 19.6983 17.8818 19.6153 17.7174 19.5305C17.5534 19.4453 17.3644 19.3599 17.1678 19.3008C17.069 19.2741 16.9696 19.2486 16.8696 19.2377C16.7697 19.2282 16.67 19.2194 16.5707 19.2316C16.471 19.235 16.3725 19.2586 16.2733 19.2825C16.1755 19.3126 16.0764 19.3449 15.981 19.3885C15.8848 19.4294 15.7922 19.4795 15.702 19.5269C15.6141 19.5792 15.5262 19.6263 15.4486 19.6786C15.3672 19.7262 15.2948 19.7755 15.2284 19.8187C15.1609 19.8609 15.1002 19.8981 15.0524 19.9314C14.9543 19.9959 14.8906 20.0295 14.8906 20.0295C14.8906 20.0295 14.9069 19.9613 14.9489 19.8477C14.9693 19.7903 14.9955 19.7211 15.0349 19.647C15.0722 19.5712 15.1172 19.4871 15.177 19.4012C15.2331 19.3125 15.3066 19.2246 15.3877 19.1324C15.4735 19.0447 15.5685 18.9533 15.683 18.8738C15.7952 18.7926 15.9248 18.7206 16.0661 18.6653C16.2083 18.6109 16.3628 18.5736 16.5211 18.5623C16.679 18.5492 16.8391 18.5644 16.9887 18.5985C17.1397 18.6306 17.2772 18.6904 17.4019 18.7558C17.6498 18.8914 17.8351 19.0684 17.9659 19.2347C18.098 19.4007 18.1767 19.5581 18.2232 19.6709C18.27 19.7839 18.283 19.8539 18.283 19.8539Z" fill="#161114"/>
<path d="M23.46 20.1124C23.46 20.1124 23.4065 20.0697 23.3127 19.9951C23.2192 19.9234 23.0904 19.8223 22.9371 19.7155C22.7842 19.6081 22.6068 19.4956 22.417 19.4055C22.2266 19.3167 22.0262 19.2484 21.8218 19.228C21.7202 19.2104 21.6165 19.2163 21.5128 19.217C21.4604 19.2223 21.4082 19.2275 21.3569 19.2325C21.3044 19.2416 21.2525 19.2507 21.2016 19.2596C21.0986 19.2812 20.9973 19.3092 20.8989 19.3377C20.8025 19.3722 20.7059 19.3989 20.6194 19.4353C20.5302 19.4663 20.4484 19.4989 20.3752 19.5296C20.3009 19.5584 20.2334 19.5824 20.18 19.6063C20.0711 19.6511 20.002 19.6724 20.002 19.6724C20.002 19.6724 20.0311 19.6084 20.0945 19.5042C20.1256 19.4513 20.1658 19.3887 20.219 19.323C20.27 19.2547 20.3328 19.182 20.4087 19.1088C20.4815 19.0319 20.5734 18.9616 20.6717 18.8867C20.7747 18.8178 20.8883 18.7491 21.0169 18.6938C21.1454 18.6389 21.287 18.5948 21.437 18.5704C21.5875 18.549 21.7455 18.5413 21.9013 18.5619C22.0572 18.581 22.2103 18.6213 22.3497 18.6823C22.4914 18.7388 22.6169 18.8188 22.7292 18.9022C22.9531 19.0721 23.1129 19.2725 23.2216 19.455C23.3316 19.6374 23.3907 19.8044 23.4229 19.9226C23.4555 20.0409 23.46 20.1124 23.46 20.1124Z" fill="#161114"/>
<path d="M21.0078 21.2664C21.0078 21.571 21.2684 21.8178 21.5896 21.8178C21.9108 21.8178 22.1714 21.5709 22.1714 21.2664C22.1714 20.9619 21.9108 20.7148 21.5896 20.7148C21.2684 20.7148 21.0078 20.9618 21.0078 21.2664Z" fill="#161114"/>
<path d="M16.0625 21.2664C16.0625 21.571 16.3231 21.8178 16.6443 21.8178C16.9655 21.8178 17.2261 21.5709 17.2261 21.2664C17.2261 20.9619 16.9655 20.7148 16.6443 20.7148C16.3231 20.7148 16.0625 20.9618 16.0625 21.2664Z" fill="#161114"/>
</g>
</svg>
