<svg width="24" height="24" viewBox="0 0 24 24" fill="none" xmlns="http://www.w3.org/2000/svg">
<path fill-rule="evenodd" clip-rule="evenodd" d="M3.03998 2.292C2.85221 2.22609 2.64595 2.23748 2.46657 2.32365C2.28719 2.40983 2.14939 2.56373 2.08348 2.7515C2.01758 2.93927 2.02896 3.14554 2.11513 3.32492C2.20131 3.5043 2.35521 3.64209 2.54298 3.708L2.80398 3.799C3.47198 4.034 3.91098 4.189 4.23398 4.348C4.53698 4.497 4.66998 4.618 4.75798 4.746C4.84798 4.878 4.91798 5.06 4.95798 5.423C4.99798 5.803 4.99998 6.298 4.99998 7.038V9.64C4.99998 12.582 5.06298 13.552 5.92998 14.466C6.79598 15.38 8.18998 15.38 10.98 15.38H16.282C17.843 15.38 18.624 15.38 19.175 14.93C19.727 14.48 19.885 13.716 20.2 12.188L20.7 9.763C21.047 8.023 21.22 7.154 20.776 6.577C20.332 6 18.816 6 17.131 6H6.49198C6.48776 5.75352 6.47342 5.50731 6.44898 5.262C6.39498 4.765 6.27898 4.312 5.99698 3.9C5.71298 3.484 5.33498 3.218 4.89398 3.001C4.48198 2.799 3.95798 2.615 3.34198 2.398L3.03998 2.292ZM10.24 8.875C10.2068 8.67874 10.0971 8.50369 9.93485 8.38835C9.77263 8.27302 9.57124 8.22685 9.37498 8.26C9.17872 8.29315 9.00367 8.40291 8.88833 8.56513C8.773 8.72735 8.72683 8.92874 8.75998 9.125L9.28898 12.243C9.32302 12.4383 9.43301 12.6122 9.59489 12.7266C9.75676 12.8411 9.95737 12.8868 10.1528 12.8537C10.3483 12.8207 10.5228 12.7116 10.638 12.5503C10.7533 12.389 10.8 12.1886 10.768 11.993L10.24 8.875ZM15.654 8.261C15.5569 8.24451 15.4575 8.24731 15.3614 8.26925C15.2654 8.29118 15.1746 8.33181 15.0943 8.38883C15.014 8.44585 14.9457 8.51813 14.8933 8.60155C14.8409 8.68496 14.8055 8.77788 14.789 8.875L14.261 11.993C14.244 12.0903 14.2465 12.1901 14.2682 12.2865C14.2899 12.3829 14.3304 12.4741 14.3874 12.5547C14.4445 12.6354 14.5169 12.7041 14.6005 12.7567C14.6842 12.8093 14.7774 12.8448 14.8748 12.8613C14.9723 12.8778 15.072 12.8748 15.1683 12.8526C15.2646 12.8304 15.3555 12.7894 15.4359 12.732C15.5163 12.6745 15.5846 12.6017 15.6367 12.5178C15.6889 12.4339 15.724 12.3405 15.74 12.243L16.268 9.125C16.301 8.92902 16.2549 8.72796 16.1398 8.56596C16.0246 8.40396 15.8499 8.29428 15.654 8.261ZM7.49998 18C7.89781 18 8.27934 18.158 8.56064 18.4393C8.84195 18.7206 8.99998 19.1022 8.99998 19.5C8.99998 19.8978 8.84195 20.2794 8.56064 20.5607C8.27934 20.842 7.89781 21 7.49998 21C7.10216 21 6.72063 20.842 6.43932 20.5607C6.15802 20.2794 5.99998 19.8978 5.99998 19.5C5.99998 19.1022 6.15802 18.7206 6.43932 18.4393C6.72063 18.158 7.10216 18 7.49998 18ZM16.5 18C16.8978 18 17.2793 18.158 17.5606 18.4393C17.8419 18.7206 18 19.1022 18 19.5C18 19.8978 17.8419 20.2794 17.5606 20.5607C17.2793 20.842 16.8978 21 16.5 21C16.1022 21 15.7206 20.842 15.4393 20.5607C15.158 20.2794 15 19.8978 15 19.5C15 19.1022 15.158 18.7206 15.4393 18.4393C15.7206 18.158 16.1022 18 16.5 18Z" fill="white"/>
</svg>
