<svg width="23" height="22" viewBox="0 0 23 22" fill="none" xmlns="http://www.w3.org/2000/svg">
<path fill-rule="evenodd" clip-rule="evenodd" d="M3.2867 2.10107C3.11458 2.04066 2.9255 2.05109 2.76107 2.13009C2.59664 2.20908 2.47032 2.35015 2.40991 2.52228C2.3495 2.69441 2.35993 2.88348 2.43892 3.04791C2.51792 3.21234 2.65899 3.33866 2.83112 3.39907L3.07037 3.48249C3.6827 3.69791 4.08512 3.83999 4.3812 3.98574C4.65895 4.12232 4.78087 4.23324 4.86153 4.35057C4.94403 4.47157 5.0082 4.6384 5.04487 4.97115C5.08154 5.31949 5.08337 5.77324 5.08337 6.45157V8.83674C5.08337 11.5336 5.14112 12.4227 5.93587 13.2606C6.7297 14.0984 8.00753 14.0984 10.565 14.0984H15.4252C16.8561 14.0984 17.572 14.0984 18.0771 13.6859C18.5831 13.2734 18.728 12.5731 19.0167 11.1724L19.475 8.94949C19.7931 7.35449 19.9517 6.55791 19.5447 6.02899C19.1377 5.50007 17.748 5.50007 16.2035 5.50007H6.45104C6.44717 5.27413 6.43402 5.04844 6.41162 4.82357C6.36212 4.36799 6.25579 3.95274 5.99729 3.57507C5.73695 3.19374 5.39045 2.9499 4.9862 2.75099C4.60854 2.56582 4.1282 2.39715 3.56353 2.19824L3.2867 2.10107ZM9.8867 8.13549C9.85631 7.95558 9.7557 7.79512 9.607 7.68939C9.4583 7.58367 9.27369 7.54135 9.09379 7.57174C8.91388 7.60213 8.75342 7.70274 8.64769 7.85144C8.54197 8.00014 8.49965 8.18475 8.53004 8.36466L9.01495 11.2228C9.04616 11.4018 9.14698 11.5612 9.29536 11.6661C9.44375 11.7711 9.62764 11.8129 9.80682 11.7827C9.98601 11.7524 10.1459 11.6524 10.2516 11.5045C10.3572 11.3567 10.4001 11.173 10.3707 10.9937L9.8867 8.13549ZM14.8495 7.57265C14.7605 7.55754 14.6694 7.56011 14.5814 7.58021C14.4933 7.60032 14.4101 7.63756 14.3365 7.68983C14.2629 7.7421 14.2002 7.80835 14.1522 7.88482C14.1042 7.96129 14.0717 8.04646 14.0566 8.13549L13.5726 10.9937C13.5571 11.0829 13.5593 11.1743 13.5792 11.2627C13.5991 11.3511 13.6362 11.4346 13.6885 11.5086C13.7408 11.5825 13.8072 11.6454 13.8839 11.6937C13.9606 11.7419 14.046 11.7745 14.1353 11.7896C14.2246 11.8047 14.3161 11.802 14.4043 11.7816C14.4926 11.7613 14.576 11.7237 14.6497 11.671C14.7233 11.6184 14.7859 11.5517 14.8337 11.4747C14.8816 11.3978 14.9137 11.3122 14.9284 11.2228L15.4124 8.36466C15.4426 8.18501 15.4004 8.0007 15.2948 7.8522C15.1893 7.7037 15.0291 7.60316 14.8495 7.57265ZM7.37504 16.5001C7.73971 16.5001 8.08944 16.6449 8.34731 16.9028C8.60517 17.1607 8.75004 17.5104 8.75004 17.8751C8.75004 18.2397 8.60517 18.5895 8.34731 18.8473C8.08944 19.1052 7.73971 19.2501 7.37504 19.2501C7.01036 19.2501 6.66063 19.1052 6.40276 18.8473C6.1449 18.5895 6.00004 18.2397 6.00004 17.8751C6.00004 17.5104 6.1449 17.1607 6.40276 16.9028C6.66063 16.6449 7.01036 16.5001 7.37504 16.5001ZM15.625 16.5001C15.9897 16.5001 16.3394 16.6449 16.5973 16.9028C16.8552 17.1607 17 17.5104 17 17.8751C17 18.2397 16.8552 18.5895 16.5973 18.8473C16.3394 19.1052 15.9897 19.2501 15.625 19.2501C15.2604 19.2501 14.9106 19.1052 14.6528 18.8473C14.3949 18.5895 14.25 18.2397 14.25 17.8751C14.25 17.5104 14.3949 17.1607 14.6528 16.9028C14.9106 16.6449 15.2604 16.5001 15.625 16.5001Z" fill="#737373"/>
</svg>
