<svg width="25" height="25" viewBox="0 0 25 25" fill="none" xmlns="http://www.w3.org/2000/svg">
<path d="M12.4997 2.08398C18.2528 2.08398 22.9163 6.74753 22.9163 12.5007C22.9163 18.2538 18.2528 22.9173 12.4997 22.9173C10.8145 22.9195 9.15414 22.5112 7.66218 21.7277L3.19343 22.8913C3.04412 22.9302 2.88723 22.9294 2.73832 22.8889C2.58941 22.8485 2.45365 22.7699 2.34449 22.6608C2.23533 22.5518 2.15657 22.4161 2.116 22.2672C2.07544 22.1184 2.07448 21.9615 2.11323 21.8121L3.27573 17.3444C2.49014 15.8508 2.08074 14.1882 2.08302 12.5007C2.08302 6.74753 6.74656 2.08398 12.4997 2.08398ZM13.8039 13.5423H9.11427L9.00802 13.5496C8.82103 13.5753 8.64967 13.6679 8.52563 13.8102C8.40159 13.9524 8.33326 14.1348 8.33326 14.3236C8.33326 14.5123 8.40159 14.6947 8.52563 14.837C8.64967 14.9792 8.82103 15.0718 9.00802 15.0975L9.11427 15.1048H13.8039L13.9091 15.0975C14.0961 15.0718 14.2674 14.9792 14.3914 14.837C14.5155 14.6947 14.5838 14.5123 14.5838 14.3236C14.5838 14.1348 14.5155 13.9524 14.3914 13.8102C14.2674 13.6679 14.0961 13.5753 13.9091 13.5496L13.8039 13.5423ZM15.8851 9.89648H9.11427L9.00802 9.90378C8.82103 9.9295 8.64967 10.0221 8.52563 10.1643C8.40159 10.3066 8.33326 10.489 8.33326 10.6777C8.33326 10.8665 8.40159 11.0489 8.52563 11.1911C8.64967 11.3334 8.82103 11.426 9.00802 11.4517L9.11427 11.459H15.8851L15.9914 11.4517C16.1783 11.426 16.3497 11.3334 16.4737 11.1911C16.5978 11.0489 16.6661 10.8665 16.6661 10.6777C16.6661 10.489 16.5978 10.3066 16.4737 10.1643C16.3497 10.0221 16.1783 9.9295 15.9914 9.90378L15.8851 9.89648Z" fill="#737373"/>
</svg>
