<svg width="20" height="21" viewBox="0 0 20 21" fill="none" xmlns="http://www.w3.org/2000/svg">
<path d="M9.99985 2.16666C14.6023 2.16666 18.3332 5.89749 18.3332 10.5C18.3332 15.1025 14.6023 18.8333 9.99985 18.8333C8.6517 18.8351 7.32341 18.5085 6.12985 17.8817L2.55484 18.8125C2.43539 18.8436 2.30988 18.843 2.19075 18.8106C2.07163 18.7783 1.96302 18.7154 1.87569 18.6281C1.78836 18.5409 1.72535 18.4323 1.6929 18.3132C1.66045 18.1941 1.65968 18.0686 1.69068 17.9492L2.62068 14.375C1.99221 13.1801 1.66469 11.85 1.66651 10.5C1.66651 5.89749 5.39735 2.16666 9.99985 2.16666ZM11.0432 11.3333H7.29151L7.20651 11.3392C7.05692 11.3597 6.91984 11.4338 6.8206 11.5476C6.72137 11.6614 6.6667 11.8073 6.6667 11.9583C6.6667 12.1093 6.72137 12.2552 6.8206 12.369C6.91984 12.4829 7.05692 12.5569 7.20651 12.5775L7.29151 12.5833H11.0432L11.1273 12.5775C11.2769 12.5569 11.414 12.4829 11.5133 12.369C11.6125 12.2552 11.6672 12.1093 11.6672 11.9583C11.6672 11.8073 11.6125 11.6614 11.5133 11.5476C11.414 11.4338 11.2769 11.3597 11.1273 11.3392L11.0432 11.3333ZM12.7082 8.41666H7.29151L7.20651 8.42249C7.05692 8.44307 6.91984 8.51712 6.8206 8.63094C6.72137 8.74476 6.6667 8.89065 6.6667 9.04166C6.6667 9.19266 6.72137 9.33856 6.8206 9.45238C6.91984 9.5662 7.05692 9.64024 7.20651 9.66082L7.29151 9.66666H12.7082L12.7932 9.66082C12.9428 9.64024 13.0799 9.5662 13.1791 9.45238C13.2783 9.33856 13.333 9.19266 13.333 9.04166C13.333 8.89065 13.2783 8.74476 13.1791 8.63094C13.0799 8.51712 12.9428 8.44307 12.7932 8.42249L12.7082 8.41666Z" fill="white"/>
</svg>
