<svg width="25" height="25" viewBox="0 0 25 25" fill="none" xmlns="http://www.w3.org/2000/svg">
<path d="M22.0566 10.041C21.6885 9.65625 21.3076 9.25977 21.1641 8.91113C21.0312 8.5918 21.0234 8.0625 21.0156 7.5498C21.001 6.59668 20.9854 5.5166 20.2344 4.76562C19.4834 4.01465 18.4033 3.99902 17.4502 3.98438C16.9375 3.97656 16.4082 3.96875 16.0889 3.83594C15.7412 3.69238 15.3437 3.31152 14.959 2.94336C14.2852 2.2959 13.5195 1.5625 12.5 1.5625C11.4805 1.5625 10.7158 2.2959 10.041 2.94336C9.65625 3.31152 9.25977 3.69238 8.91113 3.83594C8.59375 3.96875 8.0625 3.97656 7.5498 3.98438C6.59668 3.99902 5.5166 4.01465 4.76562 4.76562C4.01465 5.5166 4.00391 6.59668 3.98438 7.5498C3.97656 8.0625 3.96875 8.5918 3.83594 8.91113C3.69238 9.25879 3.31152 9.65625 2.94336 10.041C2.2959 10.7148 1.5625 11.4805 1.5625 12.5C1.5625 13.5195 2.2959 14.2842 2.94336 14.959C3.31152 15.3437 3.69238 15.7402 3.83594 16.0889C3.96875 16.4082 3.97656 16.9375 3.98438 17.4502C3.99902 18.4033 4.01465 19.4834 4.76562 20.2344C5.5166 20.9854 6.59668 21.001 7.5498 21.0156C8.0625 21.0234 8.5918 21.0312 8.91113 21.1641C9.25879 21.3076 9.65625 21.6885 10.041 22.0566C10.7148 22.7041 11.4805 23.4375 12.5 23.4375C13.5195 23.4375 14.2842 22.7041 14.959 22.0566C15.3437 21.6885 15.7402 21.3076 16.0889 21.1641C16.4082 21.0312 16.9375 21.0234 17.4502 21.0156C18.4033 21.001 19.4834 20.9854 20.2344 20.2344C20.9854 19.4834 21.001 18.4033 21.0156 17.4502C21.0234 16.9375 21.0312 16.4082 21.1641 16.0889C21.3076 15.7412 21.6885 15.3437 22.0566 14.959C22.7041 14.2852 23.4375 13.5195 23.4375 12.5C23.4375 11.4805 22.7041 10.7158 22.0566 10.041ZM16.959 10.709L11.4902 16.1777C11.4177 16.2504 11.3315 16.308 11.2367 16.3473C11.1418 16.3866 11.0402 16.4069 10.9375 16.4069C10.8348 16.4069 10.7332 16.3866 10.6383 16.3473C10.5435 16.308 10.4573 16.2504 10.3848 16.1777L8.04102 13.834C7.96843 13.7614 7.91085 13.6752 7.87157 13.5804C7.83228 13.4855 7.81207 13.3839 7.81207 13.2812C7.81207 13.1786 7.83228 13.077 7.87157 12.9821C7.91085 12.8873 7.96843 12.8011 8.04102 12.7285C8.18761 12.5819 8.38643 12.4996 8.59375 12.4996C8.6964 12.4996 8.79805 12.5198 8.89289 12.5591C8.98773 12.5984 9.0739 12.6559 9.14648 12.7285L10.9375 14.5205L15.8535 9.60352C15.9261 9.53093 16.0123 9.47335 16.1071 9.43407C16.202 9.39478 16.3036 9.37457 16.4062 9.37457C16.5089 9.37457 16.6105 9.39478 16.7054 9.43407C16.8002 9.47335 16.8864 9.53093 16.959 9.60352C17.0316 9.6761 17.0891 9.76227 17.1284 9.85711C17.1677 9.95195 17.1879 10.0536 17.1879 10.1562C17.1879 10.2589 17.1677 10.3605 17.1284 10.4554C17.0891 10.5502 17.0316 10.6364 16.959 10.709Z" fill="black"/>
</svg>
