<svg width="91" height="24" viewBox="0 0 91 24" fill="none" xmlns="http://www.w3.org/2000/svg">
<path d="M62.3913 0.932901C69.4463 1.09713 80.0591 1.88988 86.6741 1.53537C88.0132 1.72649 89.1457 2.28324 89.9073 3.06341C90.6925 3.86619 91.0869 4.89388 90.9222 5.99742L90.8442 6.35879L85.1815 23.9938L81.3586 23.2138C81.8801 21.5891 85.4154 11.1012 86.6095 7.12764C74.364 16.7286 60.628 21.4457 46.5767 21.7554C31.0611 22.098 15.231 17.0521 0.671904 7.26642L3.21887 4.87383C17.0228 14.1517 31.9407 18.9382 46.4765 18.6171C59.6857 18.3258 72.6482 13.8018 84.2399 4.58106L62.2725 4.06683L62.3913 0.932901Z" fill="#111111"/>
</svg>
