<svg width="91" height="24" viewBox="0 0 91 24" fill="none" xmlns="http://www.w3.org/2000/svg">
<path d="M61.9694 23.5085C69.0244 23.3443 79.6373 22.5515 86.2522 22.906C87.5913 22.7149 88.7238 22.1582 89.4855 21.378C90.2707 20.5752 90.665 19.5475 90.5003 18.444L90.4224 18.0826L84.7596 0.44761L80.9367 1.22761C81.4582 2.85234 84.9935 13.3402 86.1876 17.3138C73.9422 7.71278 60.2061 2.99569 46.1548 2.68597C30.6392 2.34339 14.8091 7.38926 0.250029 17.175L2.797 19.5676C16.6009 10.2897 31.5188 5.50325 46.0546 5.82427C59.2639 6.11564 72.2263 10.6396 83.818 19.8603L61.8507 20.3746L61.9694 23.5085Z" fill="#111111"/>
</svg>
