<svg width="60" height="60" viewBox="0 0 60 60" fill="none" xmlns="http://www.w3.org/2000/svg">
<path d="M42.5 27.0134C42.5 26.1484 42.5 25.7159 42.63 25.3309C43.0075 24.2109 44.005 23.7784 45.005 23.3234C46.125 22.8109 46.685 22.5559 47.2425 22.5109C47.8725 22.4609 48.505 22.5959 49.045 22.8984C49.76 23.2984 50.26 24.0634 50.77 24.6834C53.1275 27.5484 54.3075 28.9809 54.7375 30.5584C55.0875 31.8334 55.0875 33.1684 54.7375 34.4409C54.11 36.7459 52.1225 38.6759 50.65 40.4659C49.8975 41.3784 49.52 41.8359 49.045 42.1034C48.4957 42.408 47.8684 42.5429 47.2425 42.4909C46.685 42.4459 46.125 42.1909 45.0025 41.6784C44.0025 41.2234 43.0075 40.7909 42.63 39.6709C42.5 39.2859 42.5 38.8534 42.5 37.9884V27.0134ZM17.5 27.0134C17.5 25.9234 17.47 24.9459 16.59 24.1809C16.27 23.9034 15.845 23.7109 14.9975 23.3234C13.875 22.8134 13.315 22.5559 12.7575 22.5109C11.09 22.3759 10.1925 23.5159 9.23251 24.6859C6.87251 27.5484 5.69251 28.9809 5.26001 30.5609C4.91203 31.8317 4.91203 33.1726 5.26001 34.4434C5.89001 36.7459 7.88001 38.6784 9.35001 40.4659C10.2775 41.5909 11.165 42.6184 12.7575 42.4909C13.315 42.4459 13.875 42.1909 14.9975 41.6784C15.8475 41.2934 16.27 41.0984 16.59 40.8209C17.47 40.0559 17.5 39.0784 17.5 37.9909V27.0134Z" stroke="#130C76" stroke-width="2" stroke-linecap="round" stroke-linejoin="round"/>
<path d="M12.5 22.5C12.5 14.215 20.335 7.5 30 7.5C39.665 7.5 47.5 14.215 47.5 22.5M47.5 42.5V44.5C47.5 48.9175 43.025 52.5 37.5 52.5H32.5" stroke="#130C76" stroke-width="2" stroke-linecap="round" stroke-linejoin="round"/>
</svg>
