<svg width="22" height="22" viewBox="0 0 22 22" fill="none" xmlns="http://www.w3.org/2000/svg">
<path d="M15.1039 2.75411C15.257 2.76786 15.3239 2.95486 15.2139 3.06394L7.58724 10.6906C7.50108 10.7768 7.43939 10.8844 7.40849 11.0023L6.49182 14.5131C6.46156 14.6291 6.46217 14.751 6.49359 14.8668C6.52501 14.9825 6.58615 15.088 6.67093 15.1727C6.75572 15.2575 6.8612 15.3187 6.97691 15.3501C7.09263 15.3815 7.21455 15.3821 7.33057 15.3519L10.8405 14.4352C10.9585 14.404 11.0661 14.342 11.1522 14.2555L18.887 6.52069C18.9112 6.49585 18.942 6.47845 18.9758 6.47058C19.0095 6.4627 19.0449 6.46466 19.0776 6.47624C19.1103 6.48781 19.139 6.50851 19.1603 6.53588C19.1815 6.56325 19.1946 6.59615 19.1977 6.63069C19.5197 9.70117 19.5013 12.7978 19.1427 15.8643C18.9383 17.6105 17.5349 18.9809 15.7951 19.1762C12.6084 19.5292 9.39249 19.5292 6.20582 19.1762C4.46507 18.9809 3.06165 17.6105 2.85724 15.8643C2.47955 12.633 2.47955 9.36877 2.85724 6.13752C3.06165 4.39036 4.46507 3.01994 6.20582 2.82561C9.16162 2.49796 12.1432 2.47401 15.1039 2.75411Z" fill="white"/>
<path d="M16.3378 3.88373C16.359 3.86239 16.3843 3.84546 16.4122 3.83391C16.44 3.82235 16.4699 3.81641 16.5 3.81641C16.5302 3.81641 16.56 3.82235 16.5878 3.83391C16.6157 3.84546 16.641 3.86239 16.6623 3.88373L17.9584 5.18082C18.0012 5.22377 18.0253 5.28195 18.0253 5.34261C18.0253 5.40326 18.0012 5.46144 17.9584 5.5044L10.3565 13.1081C10.3276 13.137 10.2915 13.1575 10.252 13.1677L8.49751 13.6261C8.45884 13.6362 8.4182 13.6359 8.37963 13.6255C8.34105 13.615 8.30589 13.5946 8.27763 13.5664C8.24937 13.5381 8.22899 13.5029 8.21852 13.4644C8.20804 13.4258 8.20784 13.3852 8.21793 13.3465L8.67626 11.592C8.68646 11.5525 8.70703 11.5164 8.73584 11.4875L16.3378 3.88373Z" fill="white"/>
</svg>
