<svg width="25" height="25" viewBox="0 0 25 25" fill="none" xmlns="http://www.w3.org/2000/svg">
<path d="M22.9163 8.96602V17.4473C22.9164 18.312 22.5856 19.144 21.9917 19.7725C21.3978 20.4011 20.5859 20.7785 19.7226 20.8275L19.5309 20.8327H5.46842C4.6037 20.8327 3.77173 20.5019 3.14318 19.908C2.51464 19.3142 2.13717 18.5023 2.08822 17.6389L2.08301 17.4473V8.96602L12.1372 14.2327C12.249 14.2913 12.3734 14.3219 12.4997 14.3219C12.6259 14.3219 12.7503 14.2913 12.8622 14.2327L22.9163 8.96602ZM5.46842 4.16602H19.5309C20.3701 4.16591 21.1794 4.47747 21.8018 5.04025C22.4242 5.60304 22.8155 6.37693 22.8997 7.21185L12.4997 12.6598L2.09967 7.21185C2.18043 6.41009 2.54452 5.66343 3.1265 5.10608C3.70848 4.54873 4.47018 4.21725 5.27467 4.17122L5.46842 4.16602Z" fill="#737373"/>
</svg>
