<svg width="18" height="18" viewBox="0 0 18 18" fill="none" xmlns="http://www.w3.org/2000/svg">
<path d="M14.4033 7.3877C15.2455 8.26509 15.75 9 15.75 9C15.75 9 12.6818 13.5 9 13.5C8.7678 13.5 8.54282 13.486 8.32422 13.4668L14.4033 7.3877Z" fill="white"/>
<path d="M9 4.5C9.64942 4.5 10.2792 4.64145 10.877 4.87207L9 6.75C7.75736 6.75 6.75 7.75736 6.75 9L4.14551 11.6035C2.81343 10.3737 2.25 9 2.25 9C2.25 9 4.09091 4.5 9 4.5Z" fill="white"/>
<rect opacity="0.3" x="3.82422" y="13.8281" width="14.25" height="1.5" transform="rotate(-45 3.82422 13.8281)" fill="white"/>
</svg>
