<svg width="30" height="30" viewBox="0 0 30 30" fill="none" xmlns="http://www.w3.org/2000/svg">
<path d="M22.5 2.5C22.8062 2.50004 23.1017 2.61245 23.3305 2.81589C23.5593 3.01934 23.7054 3.29969 23.7412 3.60375L23.75 3.75V8.75C23.75 9.05617 23.6376 9.35167 23.4341 9.58047C23.2307 9.80926 22.9503 9.95543 22.6463 9.99125L22.5 10H18.75V11.25H22.5C22.6779 11.2501 22.8538 11.2881 23.0159 11.3616C23.1779 11.4351 23.3224 11.5424 23.4397 11.6762C23.5569 11.8101 23.6443 11.9674 23.6959 12.1377C23.7474 12.308 23.7621 12.4873 23.7387 12.6638L23.7138 12.8038L22.4638 17.8038C22.4017 18.0506 22.2658 18.2727 22.0741 18.4402C21.8825 18.6078 21.6442 18.7128 21.3913 18.7413L21.25 18.75H18.75V26.25C18.75 26.5562 18.6376 26.8517 18.4341 27.0805C18.2307 27.3093 17.9503 27.4554 17.6462 27.4913L17.5 27.5H12.5C12.1938 27.5 11.8983 27.3876 11.6695 27.1841C11.4407 26.9807 11.2946 26.7003 11.2587 26.3963L11.25 26.25V18.75H8.75C8.44383 18.75 8.14833 18.6376 7.91954 18.4341C7.69074 18.2307 7.54457 17.9503 7.50875 17.6463L7.5 17.5V12.5C7.50004 12.1938 7.61244 11.8983 7.81589 11.6695C8.01934 11.4407 8.29969 11.2946 8.60375 11.2588L8.75 11.25H11.25V10C11.2499 8.05953 12.002 6.19455 13.3481 4.79691C14.6942 3.39927 16.5296 2.57777 18.4688 2.505L18.75 2.5H22.5Z" fill="white"/>
</svg>
