<svg width="20" height="20" viewBox="0 0 20 20" fill="none" xmlns="http://www.w3.org/2000/svg">
<path d="M15 1.66663C15.2041 1.66665 15.4011 1.74159 15.5536 1.87722C15.7062 2.01285 15.8036 2.19975 15.8275 2.40246L15.8333 2.49996V5.83329C15.8333 6.0374 15.7584 6.23441 15.6227 6.38694C15.4871 6.53947 15.3002 6.63691 15.0975 6.66079L15 6.66663H12.5V7.49996H15C15.1186 7.5 15.2359 7.52538 15.3439 7.57438C15.4519 7.62338 15.5483 7.69489 15.6265 7.78411C15.7046 7.87333 15.7629 7.97822 15.7972 8.09175C15.8316 8.20529 15.8414 8.32485 15.8258 8.44246L15.8092 8.53579L14.9758 11.8691C14.9345 12.0337 14.8438 12.1818 14.7161 12.2934C14.5883 12.4051 14.4295 12.4751 14.2608 12.4941L14.1667 12.5H12.5V17.5C12.5 17.7041 12.425 17.9011 12.2894 18.0536C12.1538 18.2061 11.9669 18.3036 11.7642 18.3275L11.6667 18.3333H8.33333C8.12922 18.3333 7.93222 18.2583 7.77969 18.1227C7.62716 17.9871 7.52971 17.8002 7.50583 17.5975L7.5 17.5V12.5H5.83333C5.62922 12.4999 5.43222 12.425 5.27969 12.2894C5.12716 12.1537 5.02971 11.9668 5.00583 11.7641L5 11.6666V8.33329C5.00003 8.12918 5.07496 7.93218 5.2106 7.77965C5.34623 7.62712 5.53312 7.52967 5.73583 7.50579L5.83333 7.49996H7.5V6.66663C7.49995 5.37298 8.00131 4.12966 8.89872 3.1979C9.79614 2.26614 11.0198 1.71847 12.3125 1.66996L12.5 1.66663H15Z" fill="#130C76"/>
</svg>
