<svg width="25" height="24" viewBox="0 0 25 24" fill="none" xmlns="http://www.w3.org/2000/svg">
<path d="M12.5 21.0004L11.05 19.7004C9.36667 18.1837 7.975 16.8754 6.875 15.7754C5.775 14.6754 4.9 13.6877 4.25 12.8124C3.6 11.9371 3.146 11.1331 2.888 10.4004C2.63 9.66772 2.50067 8.91772 2.5 8.15039C2.5 6.58372 3.025 5.27539 4.075 4.22539C5.125 3.17539 6.43333 2.65039 8 2.65039C8.86667 2.65039 9.69167 2.83372 10.475 3.20039C11.2583 3.56706 11.9333 4.08372 12.5 4.75039C13.0667 4.08372 13.7417 3.56706 14.525 3.20039C15.3083 2.83372 16.1333 2.65039 17 2.65039C18.5667 2.65039 19.875 3.17539 20.925 4.22539C21.975 5.27539 22.5 6.58372 22.5 8.15039C22.5 8.91706 22.371 9.66706 22.113 10.4004C21.855 11.1337 21.4007 11.9377 20.75 12.8124C20.0993 13.6871 19.2243 14.6747 18.125 15.7754C17.0257 16.8761 15.634 18.1844 13.95 19.7004L12.5 21.0004Z" fill="white"/>
</svg>
