<svg width="26" height="26" viewBox="0 0 26 26" fill="none" xmlns="http://www.w3.org/2000/svg">
<g clip-path="url(#clip0_102_804)">
<path d="M25.2021 13.2343C25.2021 12.21 25.119 11.4626 24.9391 10.6875H13.2433V15.3104H20.1085C19.9701 16.4593 19.2227 18.1894 17.5617 19.352L17.5384 19.5068L21.2364 22.3716L21.4926 22.3971C23.8456 20.224 25.2021 17.0267 25.2021 13.2343Z" fill="#4285F4"/>
<path d="M13.2433 25.4132C16.6066 25.4132 19.4302 24.3059 21.4926 22.3959L17.5617 19.3507C16.5098 20.0843 15.0979 20.5964 13.2433 20.5964C9.94909 20.5964 7.15319 18.4235 6.15653 15.4199L6.01044 15.4323L2.16522 18.4082L2.11493 18.548C4.1634 22.6172 8.37113 25.4132 13.2433 25.4132Z" fill="#34A853"/>
<path d="M6.15658 15.4209C5.8936 14.6458 5.74141 13.8153 5.74141 12.9572C5.74141 12.099 5.8936 11.2685 6.14274 10.4934L6.13578 10.3284L2.24236 7.30469L2.11498 7.36528C1.2707 9.05392 0.786255 10.9502 0.786255 12.9572C0.786255 14.9641 1.2707 16.8603 2.11498 18.549L6.15658 15.4209Z" fill="#FBBC05"/>
<path d="M13.2433 5.3167C15.5824 5.3167 17.1603 6.3271 18.06 7.17147L21.5756 3.73884C19.4165 1.73187 16.6066 0.5 13.2433 0.5C8.37113 0.5 4.1634 3.2959 2.11493 7.36517L6.1427 10.4933C7.15319 7.48979 9.94909 5.3167 13.2433 5.3167Z" fill="#EB4335"/>
</g>
<defs>
<clipPath id="clip0_102_804">
<rect width="24.43" height="25" fill="white" transform="translate(0.784973 0.5)"/>
</clipPath>
</defs>
</svg>
