<svg width="40" height="40" viewBox="0 0 40 40" fill="none" xmlns="http://www.w3.org/2000/svg">
<rect width="40" height="40" rx="20" fill="white" fill-opacity="0.1"/>
<path d="M8.04102 26.25C8.19727 24.3924 8.76602 22.6823 9.74727 21.1198C10.7285 19.5573 12.0348 18.316 13.666 17.3958L11.7389 14.0625C11.6348 13.9063 11.6087 13.7413 11.6608 13.5677C11.7129 13.3941 11.8257 13.2639 11.9993 13.1771C12.1382 13.0903 12.2945 13.0729 12.4681 13.125C12.6417 13.1771 12.7806 13.2812 12.8848 13.4375L14.8118 16.7708C16.3049 16.1458 17.8674 15.8333 19.4993 15.8333C21.1313 15.8333 22.6938 16.1458 24.1868 16.7708L26.1139 13.4375C26.2181 13.2812 26.357 13.1771 26.5306 13.125C26.7042 13.0729 26.8605 13.0903 26.9994 13.1771C27.173 13.2639 27.2858 13.3941 27.3379 13.5677C27.39 13.7413 27.3639 13.9063 27.2598 14.0625L25.3327 17.3958C26.9646 18.316 28.2709 19.5573 29.2514 21.1198C30.232 22.6823 30.8007 24.3924 30.9577 26.25H8.04102ZM14.291 23.3854C14.6556 23.3854 14.9639 23.2594 15.216 23.0073C15.4681 22.7552 15.5938 22.4472 15.5931 22.0833C15.5924 21.7194 15.4664 21.4111 15.215 21.1583C14.9636 20.9056 14.6556 20.7799 14.291 20.7813C13.9264 20.7826 13.6181 20.9087 13.366 21.1594C13.1139 21.4101 12.9882 21.7181 12.9889 22.0833C12.9896 22.4486 13.1157 22.7569 13.3671 23.0083C13.6184 23.2597 13.9264 23.3854 14.291 23.3854ZM24.7077 23.3854C25.0723 23.3854 25.3806 23.2594 25.6327 23.0073C25.8848 22.7552 26.0105 22.4472 26.0098 22.0833C26.0091 21.7194 25.883 21.4111 25.6316 21.1583C25.3803 20.9056 25.0723 20.7799 24.7077 20.7813C24.3431 20.7826 24.0348 20.9087 23.7827 21.1594C23.5306 21.4101 23.4049 21.7181 23.4056 22.0833C23.4063 22.4486 23.5323 22.7569 23.7837 23.0083C24.0351 23.2597 24.3431 23.3854 24.7077 23.3854Z" fill="white"/>
</svg>
