<svg width="101" height="53" viewBox="0 0 101 53" fill="none" xmlns="http://www.w3.org/2000/svg">
<path d="M0 1L4.23034 22.7349L8.5 32.5H10.5L12.5 30.5L16 15.5L17.5 10.5L19.5 7L21 7.73486L27 22.7349H29.2428L31 20.7349L36 12.7349L38 12.2349L43.5 18.2349L45.5 18.5L47 17.7349L50.5 10.7349L52.5 6.23486L54.5 2.23486L56.5 1L58.5 4L60 7L62 10.5L64.5 11.7349L67 10.7349L68.5 8.5L71 5L72.5 4.5L74 5L78 17.7349L81.5 25.5L84.5 26L86.5 23.5L88.5 20L91 18.5L95 21L101 33V52.2349H0V1Z" fill="url(#paint0_linear_900_8412)"/>
<path d="M100.5 33C98 25.9101 95.1307 19.8591 91.4091 18.6164C87.6875 17.3737 86.4801 27.5191 82.3182 25.9101C78.1562 24.301 76.4233 5.94055 73.2273 4.57235C70.0312 3.20415 67.929 12.4769 64.1364 11.934C60.3438 11.391 58.8097 -0.951549 55.0455 1.8104C51.2812 4.57235 49.8466 17.2063 45.9545 18.7069C42.0625 20.2076 40.2585 11.7748 36.8636 12.685C33.4688 13.5951 31.608 23.8455 27.7727 22.9712C23.9375 22.0969 22.4886 3.0785 18.6818 7.50622C14.875 11.934 14.1506 34.0622 9.59091 32.4878C5.03125 30.9135 2.375 11.934 0.5 1" stroke="#F3A218" stroke-linejoin="round"/>
<defs>
<linearGradient id="paint0_linear_900_8412" x1="50.5" y1="0.500001" x2="63.5" y2="49.5" gradientUnits="userSpaceOnUse">
<stop stop-color="#FCE4BB"/>
<stop offset="0.572532" stop-color="#FCEBCF"/>
<stop offset="1" stop-color="#FEFBF6"/>
</linearGradient>
</defs>
</svg>
