<svg width="23" height="23" viewBox="0 0 23 23" fill="none" xmlns="http://www.w3.org/2000/svg">
<path d="M21.125 9.26562C21.125 15.2812 12.2055 20.1505 11.8257 20.3516C11.7256 20.4054 11.6137 20.4336 11.5 20.4336C11.3863 20.4336 11.2744 20.4054 11.1743 20.3516C10.7945 20.1505 1.875 15.2812 1.875 9.26562C1.87659 7.85301 2.43846 6.4987 3.43733 5.49983C4.4362 4.50096 5.79051 3.93909 7.20312 3.9375C8.97773 3.9375 10.5315 4.70062 11.5 5.99055C12.4685 4.70062 14.0223 3.9375 15.7969 3.9375C17.2095 3.93909 18.5638 4.50096 19.5627 5.49983C20.5615 6.4987 21.1234 7.85301 21.125 9.26562Z" fill="white"/>
</svg>
