<svg width="18" height="18" viewBox="0 0 18 18" fill="none" xmlns="http://www.w3.org/2000/svg">
<path d="M9.028 14.23C9.24933 14.23 9.436 14.154 9.588 14.002C9.74 13.85 9.816 13.6633 9.816 13.442C9.816 13.2207 9.73933 13.034 9.586 12.882C9.434 12.73 9.24733 12.654 9.026 12.654C8.80467 12.654 8.618 12.7303 8.466 12.883C8.314 13.0357 8.23833 13.2223 8.239 13.443C8.239 13.6643 8.315 13.851 8.467 14.003C8.62033 14.155 8.80733 14.231 9.028 14.231M9.003 18C7.759 18 6.589 17.764 5.493 17.292C4.39767 16.8193 3.44467 16.178 2.634 15.368C1.82333 14.558 1.18167 13.606 0.709 12.512C0.236333 11.418 0 10.2483 0 9.003C0 7.75767 0.236333 6.58767 0.709 5.493C1.181 4.39767 1.82133 3.44467 2.63 2.634C3.43867 1.82333 4.391 1.18167 5.487 0.709C6.583 0.236333 7.753 0 8.997 0C10.241 0 11.411 0.236333 12.507 0.709C13.6023 1.181 14.5553 1.82167 15.366 2.631C16.1767 3.44033 16.8183 4.39267 17.291 5.488C17.7637 6.58333 18 7.753 18 8.997C18 10.241 17.764 11.411 17.292 12.507C16.82 13.603 16.1787 14.556 15.368 15.366C14.5573 16.176 13.6053 16.8177 12.512 17.291C11.4187 17.7643 10.249 18.0007 9.003 18ZM9.062 4.738C9.56867 4.738 10.0047 4.89533 10.37 5.21C10.7367 5.524 10.92 5.91667 10.92 6.388C10.92 6.75467 10.8167 7.08633 10.61 7.383C10.4047 7.679 10.1667 7.952 9.896 8.202C9.55333 8.51267 9.25167 8.85433 8.991 9.227C8.73033 9.60033 8.58067 10.011 8.542 10.459C8.52933 10.5903 8.57033 10.6997 8.665 10.787C8.75833 10.875 8.86833 10.919 8.995 10.919C9.129 10.919 9.242 10.874 9.334 10.784C9.42533 10.6947 9.48333 10.589 9.508 10.467C9.57467 10.1297 9.70867 9.83 9.91 9.568C10.1107 9.306 10.3313 9.05767 10.572 8.823C10.918 8.47967 11.225 8.105 11.493 7.699C11.7617 7.29367 11.896 6.84133 11.896 6.342C11.896 5.60733 11.6173 5.00133 11.06 4.524C10.5033 4.04667 9.85 3.808 9.1 3.808C8.544 3.808 8.02633 3.938 7.547 4.198C7.06833 4.458 6.68533 4.818 6.398 5.278C6.33267 5.38867 6.31167 5.503 6.335 5.621C6.35833 5.739 6.42167 5.82867 6.525 5.89C6.657 5.95933 6.79033 5.97533 6.925 5.938C7.05967 5.90067 7.17833 5.82333 7.281 5.706C7.503 5.43 7.76433 5.2 8.065 5.016C8.365 4.83067 8.69733 4.738 9.062 4.738Z" fill="white"/>
</svg>
