<svg width="25" height="24" viewBox="0 0 25 24" fill="none" xmlns="http://www.w3.org/2000/svg">
<g clip-path="url(#clip0_279_52)">
<path d="M12.5 10.85L6.575 7.425L5.5 8.05V9.1L12.5 13.15L19.5 9.1V8.05L18.425 7.425L12.5 10.85ZM11.5 21.725L4.5 17.7C4.18333 17.5167 3.93767 17.275 3.763 16.975C3.58833 16.675 3.50067 16.3417 3.5 15.975V8.025C3.5 7.65833 3.58767 7.325 3.763 7.025C3.93833 6.725 4.184 6.48333 4.5 6.3L11.5 2.275C11.8167 2.09167 12.15 2 12.5 2C12.85 2 13.1833 2.09167 13.5 2.275L20.5 6.3C20.8167 6.48333 21.0627 6.725 21.238 7.025C21.4133 7.325 21.5007 7.65833 21.5 8.025V12.675C21.05 12.4583 20.571 12.2917 20.063 12.175C19.555 12.0583 19.034 12 18.5 12C16.5667 12 14.9167 12.6833 13.55 14.05C12.1833 15.4167 11.5 17.0667 11.5 19C11.5 19.5333 11.5543 20.046 11.663 20.538C11.7717 21.03 11.934 21.5007 12.15 21.95C12.0333 21.9167 11.921 21.8877 11.813 21.863C11.705 21.8383 11.6007 21.7923 11.5 21.725ZM18.5 24C17.1167 24 15.9377 23.5123 14.963 22.537C13.9883 21.5617 13.5007 20.3827 13.5 19C13.4993 17.6173 13.987 16.4383 14.963 15.463C15.939 14.4877 17.118 14 18.5 14C19.882 14 21.0613 14.4877 22.038 15.463C23.0147 16.4383 23.502 17.6173 23.5 19C23.498 20.3827 23.0103 21.562 22.037 22.538C21.0637 23.514 19.8847 24.0013 18.5 24ZM19 18.8V16H18V19.2L20.15 21.35L20.85 20.65L19 18.8Z" fill="white"/>
</g>
<defs>
<clipPath id="clip0_279_52">
<rect width="24" height="24" fill="white" transform="translate(0.5)"/>
</clipPath>
</defs>
</svg>
