<svg width="20" height="20" viewBox="0 0 20 20" fill="none" xmlns="http://www.w3.org/2000/svg">
<path d="M3.33398 15.8334V8.33341C3.33398 8.06953 3.39315 7.81953 3.51148 7.58342C3.62982 7.3473 3.79287 7.15286 4.00065 7.00008L9.00065 3.25008C9.29232 3.02786 9.62565 2.91675 10.0007 2.91675C10.3757 2.91675 10.709 3.02786 11.0007 3.25008L16.0007 7.00008C16.209 7.15286 16.3723 7.3473 16.4907 7.58342C16.609 7.81953 16.6679 8.06953 16.6673 8.33341V15.8334C16.6673 16.2917 16.504 16.6842 16.1773 17.0109C15.8507 17.3376 15.4584 17.5006 15.0007 17.5001H12.5007C12.2645 17.5001 12.0668 17.4201 11.9073 17.2601C11.7479 17.1001 11.6679 16.9023 11.6673 16.6667V12.5001C11.6673 12.264 11.5873 12.0662 11.4273 11.9067C11.2673 11.7473 11.0695 11.6673 10.834 11.6667H9.16732C8.93121 11.6667 8.73343 11.7467 8.57398 11.9067C8.41454 12.0667 8.33454 12.2645 8.33398 12.5001V16.6667C8.33398 16.9029 8.25398 17.1009 8.09398 17.2609C7.93398 17.4209 7.73621 17.5006 7.50065 17.5001H5.00065C4.54232 17.5001 4.1501 17.337 3.82398 17.0109C3.49787 16.6848 3.33454 16.2923 3.33398 15.8334Z" fill="#130C76"/>
</svg>
