<svg width="25" height="24" viewBox="0 0 25 24" fill="none" xmlns="http://www.w3.org/2000/svg">
<path d="M19.675 20H16.5C16.2167 20 15.9793 19.904 15.788 19.712C15.5967 19.52 15.5007 19.2827 15.5 19C15.4993 18.7173 15.5953 18.48 15.788 18.288C15.9807 18.096 16.218 18 16.5 18H19.675L18.775 17.1C18.575 16.9 18.4793 16.6667 18.488 16.4C18.4967 16.1333 18.6007 15.9 18.8 15.7C19 15.5167 19.2333 15.421 19.5 15.413C19.7667 15.405 20 15.5007 20.2 15.7L22.8 18.3C22.9 18.4 22.975 18.5083 23.025 18.625C23.075 18.7417 23.1 18.8667 23.1 19C23.1 19.1333 23.075 19.2583 23.025 19.375C22.975 19.4917 22.9 19.6 22.8 19.7L20.2 22.3C20.0167 22.4833 19.7877 22.5793 19.513 22.588C19.2383 22.5967 19.0007 22.5007 18.8 22.3C18.6167 22.1167 18.525 21.8833 18.525 21.6C18.525 21.3167 18.6167 21.0833 18.8 20.9L19.675 20ZM4.5 20C3.95 20 3.47933 19.8043 3.088 19.413C2.69667 19.0217 2.50067 18.5507 2.5 18V6C2.5 5.45 2.696 4.97933 3.088 4.588C3.48 4.19667 3.95067 4.00067 4.5 4H20.5C21.05 4 21.521 4.196 21.913 4.588C22.305 4.98 22.5007 5.45067 22.5 6V12.5C22.5 12.8 22.371 13.0333 22.113 13.2C21.855 13.3667 21.584 13.3917 21.3 13.275C21.0167 13.1917 20.7207 13.125 20.412 13.075C20.1033 13.025 19.7993 13 19.5 13C17.8333 13 16.4167 13.5833 15.25 14.75C14.0833 15.9167 13.5 17.3333 13.5 19C13.5 19.2833 13.404 19.521 13.212 19.713C13.02 19.905 12.7827 20.0007 12.5 20H4.5ZM12.5 11L5.8 6.8C5.51667 6.61667 5.22933 6.60833 4.938 6.775C4.64667 6.94167 4.50067 7.19167 4.5 7.525C4.5 7.675 4.53333 7.81267 4.6 7.938C4.66667 8.06333 4.76667 8.16733 4.9 8.25L11.975 12.675C12.1417 12.775 12.3167 12.825 12.5 12.825C12.6833 12.825 12.8583 12.775 13.025 12.675L20.1 8.25C20.2333 8.16667 20.3333 8.06267 20.4 7.938C20.4667 7.81333 20.5 7.67567 20.5 7.525C20.5 7.19167 20.3543 6.94167 20.063 6.775C19.7717 6.60833 19.484 6.61667 19.2 6.8L12.5 11Z" fill="white"/>
</svg>
