<svg width="25" height="27" viewBox="0 0 25 27" fill="none" xmlns="http://www.w3.org/2000/svg">
<path fill-rule="evenodd" clip-rule="evenodd" d="M0.104248 9.95333V17.0467C0.104248 20.3921 0.104248 22.0633 1.15716 23.1031C2.11237 24.0467 3.59841 24.1327 6.40133 24.1415L6.37946 23.9883C6.21175 22.7575 6.21175 21.1942 6.21175 19.2531V19.1758C6.21175 18.5881 6.69446 18.1112 7.29091 18.1112C7.88591 18.1112 8.36862 18.5881 8.36862 19.1758C8.36862 21.2117 8.37008 22.6321 8.51591 23.704C8.65883 24.7452 8.91695 25.2979 9.31508 25.6902C9.71321 26.0825 10.2717 26.3392 11.3261 26.4777C12.4111 26.6235 13.8505 26.625 15.914 26.625H17.3505C19.414 26.625 20.852 26.6221 21.9384 26.4792C22.9928 26.3392 23.5513 26.0825 23.948 25.6902C24.3461 25.2965 24.6057 24.7452 24.7472 23.704C24.893 22.6335 24.8959 21.2117 24.8959 19.1758V7.82417C24.8959 5.78687 24.893 4.36792 24.7472 3.29604C24.6057 2.25479 24.3461 1.70208 23.9495 1.30979C23.5513 0.916042 22.9928 0.660833 21.937 0.522292C20.8534 0.375 19.4155 0.375 17.352 0.375H15.9155C13.852 0.375 12.4126 0.377917 11.3276 0.520833C10.2732 0.660833 9.71466 0.9175 9.31654 1.30979C8.91841 1.70354 8.66029 2.25479 8.51737 3.29604C8.37154 4.36646 8.37008 5.78687 8.37008 7.82417C8.37008 8.41187 7.88737 8.88875 7.29091 8.88875C7.15022 8.88971 7.01072 8.86293 6.88039 8.80993C6.75006 8.75693 6.63145 8.67876 6.53136 8.57988C6.43126 8.481 6.35164 8.36337 6.29705 8.23369C6.24246 8.10402 6.21397 7.96486 6.21321 7.82417V7.74688C6.21321 5.80729 6.21321 4.2425 6.38091 3.01167L6.40279 2.85854C3.59987 2.86729 2.11529 2.95333 1.15862 3.89688C0.105706 4.93667 0.104248 6.60938 0.104248 9.95333ZM14.5213 17.7992L18.1147 14.2525C18.2147 14.1543 18.2941 14.0372 18.3483 13.908C18.4026 13.7788 18.4305 13.6401 18.4305 13.5C18.4305 13.3599 18.4026 13.2212 18.3483 13.092C18.2941 12.9628 18.2147 12.8457 18.1147 12.7475L14.5213 9.20083C14.3179 9.00124 14.0443 8.88942 13.7593 8.88942C13.4744 8.88942 13.2008 9.00124 12.9974 9.20083C12.8974 9.29898 12.8179 9.41608 12.7637 9.54529C12.7095 9.67449 12.6815 9.81321 12.6815 9.95333C12.6815 10.0935 12.7095 10.2322 12.7637 10.3614C12.8179 10.4906 12.8974 10.6077 12.9974 10.7058L14.7503 12.4354H4.41654C4.27572 12.4343 4.13607 12.4609 4.00557 12.5138C3.87507 12.5667 3.75629 12.6449 3.65604 12.7438C3.55579 12.8427 3.47604 12.9604 3.42136 13.0901C3.36668 13.2199 3.33814 13.3592 3.33737 13.5C3.33737 14.0877 3.82008 14.5646 4.41654 14.5646H14.7488L12.9959 16.2942C12.8959 16.3923 12.8165 16.5094 12.7622 16.6386C12.708 16.7678 12.6801 16.9065 12.6801 17.0467C12.6801 17.1868 12.708 17.3255 12.7622 17.4547C12.8165 17.5839 12.8959 17.701 12.9959 17.7992C13.1993 17.9988 13.4729 18.1106 13.7579 18.1106C14.0429 18.1106 14.3179 17.9988 14.5213 17.7992Z" fill="#130C76"/>
</svg>
