<svg width="12" height="13" viewBox="0 0 12 13" fill="none" xmlns="http://www.w3.org/2000/svg">
<path d="M6.00126 4.375C5.60343 4.375 5.2219 4.53304 4.9406 4.81434C4.65929 5.09564 4.50126 5.47718 4.50126 5.875C4.50126 6.27282 4.65929 6.65436 4.9406 6.93566C5.2219 7.21696 5.60343 7.375 6.00126 7.375C6.39908 7.375 6.78061 7.21696 7.06192 6.93566C7.34322 6.65436 7.50126 6.27282 7.50126 5.875C7.50126 5.47718 7.34322 5.09564 7.06192 4.81434C6.78061 4.53304 6.39908 4.375 6.00126 4.375ZM5.12626 5.875C5.12626 5.64294 5.21844 5.42038 5.38254 5.25628C5.54663 5.09219 5.76919 5 6.00126 5C6.23332 5 6.45588 5.09219 6.61998 5.25628C6.78407 5.42038 6.87626 5.64294 6.87626 5.875C6.87626 6.10706 6.78407 6.32962 6.61998 6.49372C6.45588 6.65781 6.23332 6.75 6.00126 6.75C5.76919 6.75 5.54663 6.65781 5.38254 6.49372C5.21844 6.32962 5.12626 6.10706 5.12626 5.875ZM9.25001 8.5L6.72801 11.1775C6.63451 11.2768 6.5217 11.3559 6.39651 11.41C6.27131 11.464 6.13638 11.4919 6.00001 11.4919C5.86363 11.4919 5.7287 11.464 5.60351 11.41C5.47831 11.3559 5.3655 11.2768 5.27201 11.1775L2.75001 8.5H2.75951L2.75526 8.495L2.75001 8.48875C2.10264 7.72319 1.74824 6.75258 1.75001 5.75C1.75001 3.40275 3.65276 1.5 6.00001 1.5C8.34726 1.5 10.25 3.40275 10.25 5.75C10.2518 6.75258 9.89737 7.72319 9.25001 8.48875L9.24476 8.495L9.24051 8.5H9.25001ZM8.76426 8.09525C9.32134 7.44097 9.62657 6.60932 9.62501 5.75C9.62501 3.748 8.00201 2.125 6.00001 2.125C3.99801 2.125 2.37501 3.748 2.37501 5.75C2.37344 6.60932 2.67867 7.44097 3.23576 8.09525L3.31276 8.186L5.72701 10.7487C5.76207 10.786 5.80437 10.8156 5.85132 10.8359C5.89827 10.8562 5.94887 10.8667 6.00001 10.8667C6.05115 10.8667 6.10175 10.8562 6.14869 10.8359C6.19564 10.8156 6.23795 10.786 6.27301 10.7487L8.68726 8.186L8.76426 8.09525Z" fill="black"/>
</svg>
