<svg width="23" height="22" viewBox="0 0 23 22" fill="none" xmlns="http://www.w3.org/2000/svg">
<path d="M17.1449 15.4753L16.0568 16.5514C15.255 17.3385 14.2143 18.3505 12.9346 19.5874C12.55 19.9593 12.0359 20.1672 11.501 20.1672C10.966 20.1672 10.4519 19.9593 10.0673 19.5874L6.86812 16.4744C6.46478 16.0797 6.12776 15.7466 5.85703 15.4753C4.74087 14.359 3.98077 12.9369 3.67285 11.3886C3.36494 9.84042 3.52303 8.23565 4.12714 6.77727C4.73125 5.31889 5.75425 4.0724 7.06677 3.19541C8.3793 2.31843 9.9224 1.85034 11.501 1.85034C13.0795 1.85034 14.6226 2.31843 15.9351 3.19541C17.2477 4.0724 18.2707 5.31889 18.8748 6.77727C19.4789 8.23565 19.637 9.84042 19.329 11.3886C19.0211 12.9369 18.261 14.359 17.1449 15.4753ZM13.7935 10.0834C13.7935 9.47565 13.5521 8.89275 13.1223 8.46298C12.6925 8.03321 12.1097 7.79177 11.5019 7.79177C10.8941 7.79177 10.3112 8.03321 9.88141 8.46298C9.45164 8.89275 9.2102 9.47565 9.2102 10.0834C9.2102 10.6912 9.45164 11.2741 9.88141 11.7039C10.3112 12.1337 10.8941 12.3751 11.5019 12.3751C12.1097 12.3751 12.6925 12.1337 13.1223 11.7039C13.5521 11.2741 13.7935 10.6912 13.7935 10.0834Z" fill="#737373"/>
</svg>
