<svg width="25" height="25" viewBox="0 0 25 25" fill="none" xmlns="http://www.w3.org/2000/svg">
<path d="M8.59375 6.25018C8.59372 5.51105 8.80338 4.78708 9.1984 4.16237C9.59341 3.53765 10.1576 3.03782 10.8253 2.72095C11.4931 2.40407 12.237 2.28315 12.9708 2.37222C13.7045 2.4613 14.3979 2.75673 14.9705 3.22418C15.543 3.69163 15.9712 4.31193 16.2052 5.01302C16.4393 5.7141 16.4696 6.46721 16.2927 7.18486C16.1158 7.90251 15.739 8.55524 15.2059 9.06725C14.6728 9.57925 14.0054 9.9295 13.2812 10.0773V17.1877C13.2812 17.3949 13.1989 17.5936 13.0524 17.7401C12.9059 17.8866 12.7072 17.9689 12.5 17.9689C12.2928 17.9689 12.0941 17.8866 11.9476 17.7401C11.8011 17.5936 11.7188 17.3949 11.7188 17.1877V10.0773C10.837 9.89641 10.0447 9.41691 9.47539 8.7197C8.9061 8.0225 8.59471 7.15028 8.59375 6.25018ZM21.2891 14.3156C20.0918 13.6379 18.4453 13.1174 16.5264 12.8098C16.3214 12.7774 16.1119 12.8278 15.9441 12.9498C15.7762 13.0719 15.6637 13.2556 15.6313 13.4606C15.599 13.6656 15.6494 13.8751 15.7714 14.0429C15.8935 14.2108 16.0772 14.3233 16.2822 14.3557C17.9951 14.631 19.5049 15.1008 20.5225 15.6789C21.3867 16.1623 21.875 16.7131 21.875 17.1877C21.875 18.4924 18.3086 20.3127 12.5 20.3127C6.69141 20.3127 3.125 18.4924 3.125 17.1877C3.125 16.7131 3.61328 16.1623 4.47754 15.675C5.49902 15.0969 7.00488 14.6271 8.71777 14.3517C8.82143 14.3382 8.92132 14.304 9.01152 14.2511C9.10172 14.1983 9.1804 14.1279 9.24289 14.0441C9.30538 13.9603 9.35042 13.8648 9.37533 13.7632C9.40024 13.6617 9.40452 13.5562 9.38792 13.453C9.37131 13.3498 9.33416 13.2509 9.27867 13.1624C9.22317 13.0738 9.15046 12.9972 9.06484 12.9372C8.97922 12.8772 8.88243 12.835 8.78021 12.8132C8.67798 12.7913 8.5724 12.7901 8.46973 12.8098C6.55078 13.1174 4.9043 13.6379 3.70703 14.3156C1.93457 15.3195 1.5625 16.4318 1.5625 17.1877C1.5625 20.2326 7.19824 21.8752 12.5 21.8752C17.8018 21.8752 23.4375 20.2326 23.4375 17.1877C23.4375 16.4318 23.0654 15.3195 21.2891 14.3156Z" fill="#130C76"/>
</svg>
