<svg width="25" height="24" viewBox="0 0 25 24" fill="none" xmlns="http://www.w3.org/2000/svg">
<circle cx="12.1992" cy="12" r="12" fill="white"/>
<rect width="14.4" height="14.4" transform="translate(5 4.80078)" fill="white"/>
<path d="M8.00078 10.8008C7.34078 10.8008 6.80078 11.3408 6.80078 12.0008C6.80078 12.6608 7.34078 13.2008 8.00078 13.2008C8.66078 13.2008 9.20078 12.6608 9.20078 12.0008C9.20078 11.3408 8.66078 10.8008 8.00078 10.8008Z" stroke="#111E27"/>
<path d="M16.3992 10.8008C15.7392 10.8008 15.1992 11.3408 15.1992 12.0008C15.1992 12.6608 15.7392 13.2008 16.3992 13.2008C17.0592 13.2008 17.5992 12.6608 17.5992 12.0008C17.5992 11.3408 17.0592 10.8008 16.3992 10.8008Z" stroke="#111E27"/>
<path d="M12.2 10.8008C11.54 10.8008 11 11.3408 11 12.0008C11 12.6608 11.54 13.2008 12.2 13.2008C12.86 13.2008 13.4 12.6608 13.4 12.0008C13.4 11.3408 12.86 10.8008 12.2 10.8008Z" stroke="#111E27"/>
</svg>
