<svg width="18" height="19" viewBox="0 0 18 19" fill="none" xmlns="http://www.w3.org/2000/svg">
<path d="M2.625 8.75V11C2.625 13.8282 2.625 15.2427 3.504 16.121C4.383 16.9992 5.79675 17 8.625 17H9.375C12.2033 17 13.6178 17 14.496 16.121C15.3743 15.242 15.375 13.8282 15.375 11V8.75" stroke="black" stroke-width="2"/>
<path d="M7.12525 2H10.8753L11.3643 6.88775C11.3965 7.21757 11.3593 7.55049 11.2552 7.86509C11.151 8.1797 10.9822 8.46903 10.7595 8.71449C10.5369 8.95994 10.2654 9.15609 9.96236 9.29032C9.65937 9.42456 9.33164 9.4939 9.00025 9.4939C8.66886 9.4939 8.34113 9.42456 8.03814 9.29032C7.73515 9.15609 7.4636 8.95994 7.24095 8.71449C7.0183 8.46903 6.84948 8.1797 6.74534 7.86509C6.64119 7.55049 6.60403 7.21757 6.63625 6.88775L7.12525 2Z" stroke="black" stroke-width="2"/>
<path d="M2.49752 4.51325C2.63102 3.84575 2.69777 3.512 2.83352 3.24125C2.97496 2.95928 3.17412 2.7102 3.41807 2.51019C3.66201 2.31017 3.94529 2.16369 4.24952 2.08025C4.54202 2 4.88252 2 5.56352 2H7.12502L6.58127 7.43375C6.55257 7.74472 6.46071 8.04657 6.31131 8.3208C6.16191 8.59504 5.95811 8.8359 5.71239 9.02864C5.46666 9.22138 5.18419 9.36194 4.88226 9.44172C4.58033 9.5215 4.26529 9.53881 3.95644 9.49261C3.64758 9.44641 3.3514 9.33766 3.08603 9.17301C2.82067 9.00837 2.59169 8.7913 2.41313 8.53509C2.23457 8.27888 2.11018 7.98892 2.04757 7.68297C1.98496 7.37702 1.98545 7.06151 2.04902 6.75575L2.49752 4.51325ZM15.5025 4.51325C15.369 3.84575 15.3023 3.512 15.1665 3.24125C15.0251 2.95928 14.8259 2.7102 14.582 2.51019C14.338 2.31017 14.0547 2.16369 13.7505 2.08025C13.458 2 13.1175 2 12.4365 2H10.875L11.4188 7.43375C11.4475 7.74472 11.5393 8.04657 11.6887 8.3208C11.8381 8.59504 12.0419 8.8359 12.2877 9.02864C12.5334 9.22138 12.8158 9.36194 13.1178 9.44172C13.4197 9.5215 13.7347 9.53881 14.0436 9.49261C14.3525 9.44641 14.6486 9.33766 14.914 9.17301C15.1794 9.00837 15.4083 8.7913 15.5869 8.53509C15.7655 8.27888 15.8899 7.98892 15.9525 7.68297C16.0151 7.37702 16.0146 7.06151 15.951 6.75575L15.5025 4.51325Z" stroke="black" stroke-width="2"/>
<path d="M7.125 16.625V14.375C7.125 13.6737 7.125 13.3235 7.27575 13.0625C7.37449 12.8915 7.51649 12.7495 7.6875 12.6508C7.9485 12.5 8.29875 12.5 9 12.5C9.70125 12.5 10.0515 12.5 10.3125 12.6508C10.4835 12.7495 10.6255 12.8915 10.7243 13.0625C10.875 13.3235 10.875 13.6737 10.875 14.375V16.625" stroke="black" stroke-width="2" stroke-linecap="round"/>
</svg>
