<svg width="25" height="24" viewBox="0 0 25 24" fill="none" xmlns="http://www.w3.org/2000/svg">
<path fill-rule="evenodd" clip-rule="evenodd" d="M11.2491 2.56541C11.6291 2.34598 12.0602 2.23047 12.4991 2.23047C12.9379 2.23047 13.369 2.34598 13.7491 2.56541L20.0431 6.19941C20.4231 6.41882 20.7387 6.73441 20.9581 7.11444C21.1775 7.49448 21.2931 7.92557 21.2931 8.36441V15.6324C21.2931 16.0712 21.1775 16.5023 20.9581 16.8824C20.7387 17.2624 20.4231 17.578 20.0431 17.7974L13.7491 21.4314C13.369 21.6508 12.9379 21.7663 12.4991 21.7663C12.0602 21.7663 11.6291 21.6508 11.2491 21.4314L4.95508 17.7974C4.57504 17.578 4.25945 17.2624 4.04003 16.8824C3.82061 16.5023 3.70509 16.0712 3.70508 15.6324V8.36441C3.70509 7.92557 3.82061 7.49448 4.04003 7.11444C4.25945 6.73441 4.57504 6.41882 4.95508 6.19941L11.2491 2.56541ZM8.51808 8.54541L14.3161 5.20241L16.3171 6.35741L10.5191 9.70041L8.51808 8.54541Z" fill="white"/>
</svg>
