<svg width="60" height="60" viewBox="0 0 60 60" fill="none" xmlns="http://www.w3.org/2000/svg">
<path d="M55 28.75V15.285C55 13.3075 55 12.32 54.515 11.3C54.1613 10.6239 53.6819 10.0215 53.1025 9.525C52.2175 8.825 51.4775 8.6575 50 8.3175C47.7 7.7925 45.165 7.5 42.5 7.5C37.7075 7.5 33.33 8.445 30 10C26.67 11.555 22.2925 12.5 17.5 12.5C14.835 12.5 12.3 12.2075 10 11.6825C7.6 11.1325 5 12.8225 5 15.285V42.215C5 44.1925 5 45.1825 5.485 46.2C5.76 46.7825 6.3925 47.575 6.8975 47.975C7.7825 48.675 8.5225 48.8425 10 49.1825C12.3 49.7075 14.835 50 17.5 50C21.1725 50 24.6 49.445 27.5 48.4875M35 47.5C35 47.5 37.5 47.5 40 52.5C40 52.5 47.9425 40 55 37.5" stroke="#130C76" stroke-width="2" stroke-linecap="round" stroke-linejoin="round"/>
<path d="M13.75 31.25V31.2725M46.25 26.23V26.255M36.25 28.75C36.25 30.4076 35.5915 31.9973 34.4194 33.1694C33.2473 34.3415 31.6576 35 30 35C28.3424 35 26.7527 34.3415 25.5806 33.1694C24.4085 31.9973 23.75 30.4076 23.75 28.75C23.75 27.0924 24.4085 25.5027 25.5806 24.3306C26.7527 23.1585 28.3424 22.5 30 22.5C31.6576 22.5 33.2473 23.1585 34.4194 24.3306C35.5915 25.5027 36.25 27.0924 36.25 28.75Z" stroke="#130C76" stroke-width="2" stroke-linecap="round" stroke-linejoin="round"/>
</svg>
