<svg width="24" height="25" viewBox="0 0 24 25" fill="none" xmlns="http://www.w3.org/2000/svg">
<path d="M20.9869 3.51249C20.6662 3.1918 20.2855 2.93742 19.8665 2.76386C19.4475 2.5903 18.9984 2.50098 18.5449 2.50098C18.0913 2.50098 17.6423 2.5903 17.2233 2.76386C16.8043 2.93742 16.4235 3.1918 16.1029 3.51249L4.01886 15.5985C3.63781 15.9793 3.3663 16.4556 3.23286 16.9775L2.01936 21.72C1.99259 21.825 1.9936 21.9353 2.0223 22.0398C2.051 22.1444 2.1064 22.2396 2.18306 22.3163C2.25972 22.393 2.355 22.4484 2.45955 22.4771C2.56409 22.5058 2.67431 22.5068 2.77936 22.48L7.52286 21.268C8.04512 21.1347 8.52182 20.8632 8.90286 20.482L20.9869 8.39599C21.6344 7.74835 21.9981 6.87005 21.9981 5.95424C21.9981 5.03843 21.6344 4.16013 20.9869 3.51249ZM16.9869 4.39649C17.4001 3.98322 17.9605 3.75102 18.5449 3.75097C19.1293 3.75092 19.6898 3.98303 20.1031 4.39624C20.5164 4.80945 20.7486 5.3699 20.7486 5.95431C20.7487 6.53872 20.5166 7.09922 20.1034 7.51249L18.9999 8.61599L15.8839 5.49949L16.9869 4.39649ZM14.9999 6.38349L18.1159 9.49999L8.01886 19.598C7.79651 19.8206 7.51824 19.9792 7.21336 20.057L3.49186 21.008L4.44386 17.2875C4.52186 16.9825 4.68036 16.7045 4.90236 16.4825L14.9999 6.38349Z" fill="#737373"/>
</svg>
