<svg width="27" height="26" viewBox="0 0 27 26" fill="none" xmlns="http://www.w3.org/2000/svg">
<path d="M6 3C5.00544 3 4.05161 3.39509 3.34835 4.09835C2.64509 4.80161 2.25 5.75544 2.25 6.75V14.25C2.25 14.7425 2.347 15.2301 2.53545 15.6851C2.72391 16.14 3.00013 16.5534 3.34835 16.9017C4.05161 17.6049 5.00544 18 6 18H6.75V20.913C6.74995 21.1954 6.83123 21.4718 6.98412 21.7092C7.13701 21.9466 7.35504 22.1349 7.61214 22.2517C7.86925 22.3685 8.15454 22.4087 8.43391 22.3676C8.71328 22.3265 8.97491 22.2059 9.1875 22.02L9.768 21.5115C9.72738 21.1663 9.75025 20.8165 9.8355 20.4795L10.398 18.2325C10.6087 17.3897 11.0442 16.6198 11.658 16.005L18.903 8.76C19.4611 8.20232 20.1617 7.80873 20.9283 7.62224C21.695 7.43574 22.4981 7.46351 23.25 7.7025V6.75C23.25 5.75544 22.8549 4.80161 22.1517 4.09835C21.4484 3.39509 20.4946 3 19.5 3H6ZM12.72 17.0655L19.965 9.8205C20.2256 9.56009 20.535 9.35356 20.8754 9.2127C21.2158 9.07184 21.5806 8.99941 21.9491 8.99955C22.3175 8.99969 22.6823 9.0724 23.0226 9.21351C23.3629 9.35463 23.6721 9.56139 23.9325 9.822C24.1929 10.0826 24.3994 10.392 24.5403 10.7324C24.6812 11.0728 24.7536 11.4376 24.7534 11.8061C24.7533 12.1745 24.6806 12.5393 24.5395 12.8796C24.3984 13.2199 24.1916 13.5291 23.931 13.7895L16.686 21.033C16.2638 21.4551 15.735 21.7547 15.156 21.9L12.909 22.461C12.6856 22.5167 12.4515 22.5136 12.2296 22.4521C12.0077 22.3906 11.8055 22.2728 11.6426 22.11C11.4797 21.9473 11.3617 21.7452 11.3 21.5233C11.2383 21.3015 11.235 21.0675 11.2905 20.844L11.853 18.597C11.9983 18.018 12.2979 17.4892 12.72 17.067" fill="white"/>
</svg>
