<svg width="60" height="60" viewBox="0 0 60 60" fill="none" xmlns="http://www.w3.org/2000/svg">
<path d="M30 40.7142C29.161 40.7145 28.3404 40.4686 27.6399 40.0069C26.9394 39.5452 26.3898 38.8881 26.0593 38.117C25.3679 37.9537 24.6873 37.7476 24.0214 37.4999L23.985 37.487C22.0298 36.7532 20.2252 35.6682 18.66 34.2856C16.563 32.4357 14.9503 30.1009 13.9626 27.4848C12.975 24.8686 12.6423 22.0506 12.9936 19.2764C13.3449 16.5022 14.3695 13.856 15.9781 11.5687C17.5866 9.28129 19.7304 7.42215 22.2223 6.15334C24.7142 4.88454 27.4787 4.24459 30.2747 4.2893C33.0707 4.33401 35.8134 5.06203 38.2635 6.40987C40.7135 7.75771 42.7967 9.68445 44.3313 12.0221C45.866 14.3597 46.8054 17.0373 47.0678 19.8213C47.1514 20.7063 46.425 21.4285 45.5357 21.4285C44.6486 21.4285 43.9393 20.7063 43.8364 19.8235C43.5531 17.3877 42.6318 15.0698 41.1655 13.1042C39.6993 11.1386 37.7401 9.59501 35.486 8.62935C33.2319 7.66369 30.7629 7.31024 28.3284 7.60473C25.8939 7.89922 23.5803 8.83122 21.6215 10.3065C19.6627 11.7818 18.1281 13.7481 17.1728 16.0066C16.2176 18.2651 15.8755 20.7358 16.1812 23.1688C16.4869 25.6019 17.4295 27.9112 18.9138 29.8632C20.3981 31.8152 22.3714 33.3407 24.6343 34.2856L24.72 34.322C25.1486 34.4977 25.5886 34.6527 26.04 34.787C26.4528 33.7812 27.2324 32.9699 28.221 32.5174C29.2095 32.0649 30.3331 32.005 31.3642 32.3499C32.3953 32.6947 33.2567 33.4186 33.7741 34.3748C34.2915 35.331 34.4261 36.4481 34.1507 37.4999C33.9131 38.42 33.3765 39.2351 32.6251 39.817C31.8737 40.3988 30.9503 40.7144 30 40.7142ZM15 37.4999H17.505C16.3069 36.5661 15.216 35.5025 14.2521 34.3285C12.6872 34.5118 11.2441 35.2634 10.1969 36.4406C9.14966 37.6178 8.57122 39.1386 8.57141 40.7142V42.2463C8.57141 50.2135 17.5928 55.7142 30 55.7142C42.4071 55.7142 51.4286 49.9113 51.4286 42.2463V40.7142C51.4286 39.0092 50.7513 37.3741 49.5457 36.1685C48.3401 34.9629 46.7049 34.2856 45 34.2856H37.1893C37.4998 35.3273 37.5803 36.424 37.425 37.4999H45L45.3107 37.5149C46.1057 37.5921 46.8434 37.9625 47.3802 38.5539C47.9169 39.1454 48.2143 39.9155 48.2143 40.7142V42.2463L48.2036 42.5913C47.9036 47.9913 40.5557 52.4999 30 52.4999C19.0478 52.4999 11.7857 47.9763 11.7857 42.2463V40.7142L11.8007 40.4035C11.8779 39.6085 12.2483 38.8708 12.8398 38.334C13.4312 37.7972 14.2013 37.4999 15 37.4999ZM40.7143 21.4285C40.7146 23.3694 40.1877 25.274 39.1898 26.9388C38.1919 28.6036 36.7605 29.966 35.0486 30.8806C33.6674 29.6241 31.8672 28.928 30 28.9285C30.9849 28.9285 31.9602 28.7345 32.8701 28.3576C33.78 27.9806 34.6068 27.4282 35.3033 26.7318C35.9997 26.0353 36.5522 25.2085 36.9291 24.2986C37.306 23.3886 37.5 22.4134 37.5 21.4285C37.5 20.4435 37.306 19.4683 36.9291 18.5583C36.5522 17.6484 35.9997 16.8216 35.3033 16.1252C34.6068 15.4287 33.78 14.8763 32.8701 14.4994C31.9602 14.1225 30.9849 13.9285 30 13.9285C28.0109 13.9285 26.1032 14.7186 24.6967 16.1252C23.2902 17.5317 22.5 19.4393 22.5 21.4285C22.5 23.4176 23.2902 25.3252 24.6967 26.7318C26.1032 28.1383 28.0109 28.9285 30 28.9285C28.0543 28.9285 26.2843 29.6699 24.9536 30.8827C23.2425 29.9689 21.8116 28.6076 20.8136 26.9442C19.9638 25.5286 19.4528 23.9357 19.3203 22.29C19.1877 20.6442 19.4374 18.9901 20.0496 17.4568C20.6619 15.9235 21.6203 14.5524 22.8499 13.4506C24.0796 12.3487 25.5472 11.546 27.1383 11.105C28.7294 10.664 30.4008 10.5967 32.0222 10.9083C33.6436 11.22 35.171 11.9021 36.4853 12.9015C37.7995 13.9009 38.865 15.1904 39.5986 16.6696C40.3322 18.1487 40.714 19.7774 40.7143 21.4285Z" fill="#130C76"/>
</svg>
