<svg width="25" height="25" viewBox="0 0 25 25" fill="none" xmlns="http://www.w3.org/2000/svg">
<path d="M23.3857 18.0729C23.1308 17.8014 22.2309 16.9987 20.5766 15.9367C18.9101 14.8654 17.6811 14.1974 17.3286 14.0417C17.2975 14.0279 17.2633 14.0228 17.2295 14.0271C17.1958 14.0313 17.1639 14.0446 17.1372 14.0656C16.5693 14.5085 15.6132 15.3219 15.562 15.3659C15.2309 15.6496 15.2309 15.6496 14.9599 15.5612C14.4834 15.405 13.0029 14.6188 11.7129 13.3259C10.4228 12.0329 9.59616 10.5158 9.43991 10.0397C9.35055 9.76824 9.35055 9.76824 9.63522 9.43718C9.67916 9.38592 10.4931 8.42986 10.936 7.86248C10.957 7.83576 10.9703 7.80382 10.9745 7.7701C10.9788 7.73637 10.9737 7.70214 10.9599 7.67107C10.8042 7.31804 10.1362 6.08953 9.0649 4.42302C8.00143 2.76922 7.19967 1.86931 6.92819 1.61443C6.90327 1.59092 6.87248 1.57457 6.83905 1.56709C6.80562 1.55961 6.7708 1.56129 6.73824 1.57195C5.78926 1.89808 4.87364 2.3142 4.00387 2.81463C3.16423 3.30272 2.36932 3.86398 1.62838 4.49187C1.60252 4.51386 1.58313 4.54248 1.57229 4.57465C1.56145 4.60682 1.55957 4.64133 1.56686 4.67449C1.66891 5.15008 2.1567 7.13543 3.67037 9.88543C5.21481 12.6921 6.28512 14.1301 8.55319 16.3903C10.8213 18.6506 12.3047 19.7853 15.1142 21.3298C17.8642 22.8434 19.8505 23.3317 20.3252 23.4328C20.3584 23.44 20.393 23.4381 20.4252 23.4273C20.4574 23.4164 20.4861 23.3971 20.5083 23.3713C21.136 22.6304 21.6971 21.8354 22.185 20.9958C22.6854 20.126 23.1015 19.2104 23.4277 18.2614C23.4381 18.2291 23.4397 18.1946 23.4324 18.1614C23.425 18.1283 23.4089 18.0977 23.3857 18.0729Z" fill="#737373"/>
</svg>
