<svg width="35" height="35" viewBox="0 0 35 35" fill="none" xmlns="http://www.w3.org/2000/svg">
<path d="M11.375 3.5C10.6788 3.5 10.0111 3.77656 9.51884 4.26884C9.02656 4.76113 8.75 5.42881 8.75 6.125V28.875C8.75 29.5712 9.02656 30.2389 9.51884 30.7312C10.0111 31.2234 10.6788 31.5 11.375 31.5H15.75V29.75C15.75 29.0325 16.0335 28.385 16.5217 27.8968L18.1703 26.25H15.75C15.5179 26.25 15.2954 26.1578 15.1313 25.9937C14.9672 25.8296 14.875 25.6071 14.875 25.375C14.875 25.1429 14.9672 24.9204 15.1313 24.7563C15.2954 24.5922 15.5179 24.5 15.75 24.5H19.25C19.439 24.5 19.614 24.5595 19.7575 24.6628L21.0367 23.3835C21.0113 23.1364 20.999 22.8881 21 22.6398C21 21.6913 21.1907 20.776 21.581 19.9185C21.952 19.1048 22.4595 18.3785 23.0965 17.7555C23.7375 17.1241 24.497 16.6258 25.3313 16.289C25.6322 16.1665 25.9385 16.0656 26.25 15.9863V6.125C26.25 5.42881 25.9734 4.76113 25.4812 4.26884C24.9889 3.77656 24.3212 3.5 23.625 3.5H11.375ZM18.375 33.25C18.2601 33.2513 18.1461 33.2289 18.0401 33.1844C17.9342 33.1398 17.8385 33.074 17.759 32.991C17.676 32.9115 17.6102 32.8158 17.5656 32.7099C17.5211 32.6039 17.4987 32.4899 17.5 32.375V29.75C17.4987 29.6351 17.5211 29.5211 17.5656 29.4151C17.6102 29.3092 17.676 29.2135 17.759 29.134L22.9005 23.9943C22.8028 23.5493 22.7524 23.0953 22.75 22.6398C22.75 21.9293 22.8912 21.2643 23.1735 20.6448C23.4558 20.0253 23.8385 19.4781 24.3215 19.0033C24.8045 18.5284 25.361 18.1638 25.991 17.9095C26.621 17.6552 27.2907 17.5187 28 17.5C28.7292 17.5 29.4128 17.6365 30.051 17.9095C30.6892 18.1825 31.2451 18.5564 31.7188 19.0313C32.1924 19.5038 32.5657 20.0597 32.8387 20.699C33.1129 21.3372 33.25 22.0208 33.25 22.75C33.25 23.4523 33.1176 24.1173 32.8528 24.745C32.5903 25.375 32.2216 25.9362 31.7468 26.4285C31.2719 26.9208 30.7294 27.3035 30.1193 27.5765C29.4854 27.8531 28.8018 27.9972 28.1102 28C27.7906 28 27.4756 27.9767 27.1652 27.93C26.8532 27.8837 26.5466 27.8064 26.25 27.699V28.0403C26.25 28.1686 26.2547 28.301 26.264 28.4375C26.264 28.602 26.2547 28.7613 26.236 28.9153C26.2197 29.0585 26.1782 29.1977 26.1135 29.3265C26.0474 29.4469 25.9539 29.55 25.8405 29.6275C25.7015 29.7149 25.539 29.7576 25.375 29.75H24.5C24.5 30.1782 24.4907 30.5066 24.472 30.7353C24.4533 30.9639 24.3851 31.1366 24.2672 31.2533C24.1198 31.3838 23.9304 31.457 23.7335 31.4598C23.4978 31.4773 23.17 31.4907 22.75 31.5V31.9655C22.75 32.1195 22.7407 32.2694 22.722 32.4153C22.7027 32.5562 22.6663 32.6943 22.6135 32.8265C22.5604 32.9517 22.4691 33.0571 22.3527 33.1275C22.2055 33.2057 22.0417 33.2477 21.875 33.25H18.375ZM30.625 21.4375C30.6283 21.2646 30.596 21.0929 30.5301 20.933C30.4641 20.7731 30.366 20.6286 30.2418 20.5083C30.1215 20.384 29.9769 20.2859 29.817 20.2199C29.6571 20.154 29.4854 20.1217 29.3125 20.125C29.1396 20.1217 28.9679 20.154 28.808 20.2199C28.6481 20.2859 28.5035 20.384 28.3832 20.5083C28.259 20.6286 28.1609 20.7731 28.0949 20.933C28.029 21.0929 27.9967 21.2646 28 21.4375C28 21.8015 28.1278 22.1113 28.3832 22.3668C28.5035 22.491 28.6481 22.5891 28.808 22.6551C28.9679 22.721 29.1396 22.7533 29.3125 22.75C29.4854 22.7533 29.6571 22.721 29.817 22.6551C29.9769 22.5891 30.1215 22.491 30.2418 22.3668C30.366 22.2465 30.4641 22.1019 30.5301 21.942C30.596 21.7821 30.6283 21.6104 30.625 21.4375Z" fill="#130C76"/>
</svg>
