<svg width="25" height="26" viewBox="0 0 25 26" fill="none" xmlns="http://www.w3.org/2000/svg">
<path d="M23.3857 18.5729C23.1308 18.3014 22.2309 17.4987 20.5766 16.4367C18.9101 15.3654 17.6811 14.6974 17.3286 14.5417C17.2975 14.5279 17.2633 14.5228 17.2295 14.5271C17.1958 14.5313 17.1639 14.5446 17.1372 14.5656C16.5693 15.0085 15.6132 15.8219 15.562 15.8659C15.2309 16.1496 15.2309 16.1496 14.9599 16.0612C14.4834 15.905 13.0029 15.1188 11.7129 13.8259C10.4228 12.5329 9.59616 11.0158 9.43991 10.5397C9.35055 10.2682 9.35055 10.2682 9.63522 9.93718C9.67916 9.88592 10.4931 8.92986 10.936 8.36248C10.957 8.33576 10.9703 8.30382 10.9745 8.2701C10.9788 8.23637 10.9737 8.20214 10.9599 8.17107C10.8042 7.81804 10.1362 6.58953 9.0649 4.92302C8.00143 3.26922 7.19967 2.36931 6.92819 2.11443C6.90327 2.09092 6.87248 2.07457 6.83905 2.06709C6.80562 2.05961 6.7708 2.06129 6.73824 2.07195C5.78926 2.39808 4.87364 2.8142 4.00387 3.31463C3.16423 3.80272 2.36932 4.36398 1.62838 4.99187C1.60252 5.01386 1.58313 5.04248 1.57229 5.07465C1.56145 5.10682 1.55957 5.14133 1.56686 5.17449C1.66891 5.65008 2.1567 7.63543 3.67037 10.3854C5.21481 13.1921 6.28512 14.6301 8.55319 16.8903C10.8213 19.1506 12.3047 20.2853 15.1142 21.8298C17.8642 23.3434 19.8505 23.8317 20.3252 23.9328C20.3584 23.94 20.393 23.9381 20.4252 23.9273C20.4574 23.9164 20.4861 23.8971 20.5083 23.8713C21.136 23.1304 21.6971 22.3354 22.185 21.4958C22.6854 20.626 23.1015 19.7104 23.4277 18.7614C23.4381 18.7291 23.4397 18.6946 23.4324 18.6614C23.425 18.6283 23.4089 18.5977 23.3857 18.5729Z" fill="#130C76"/>
</svg>
