<svg width="60" height="60" viewBox="0 0 60 60" fill="none" xmlns="http://www.w3.org/2000/svg">
<path d="M30 20.3566C28.7337 20.3566 27.4798 20.606 26.3098 21.0906C25.1399 21.5752 24.0769 22.2855 23.1815 23.1809C22.2861 24.0763 21.5758 25.1394 21.0912 26.3093C20.6066 27.4792 20.3571 28.7331 20.3571 29.9994C20.3571 31.2658 20.6066 32.5197 21.0912 33.6896C21.5758 34.8595 22.2861 35.9226 23.1815 36.818C24.0769 37.7134 25.1399 38.4237 26.3098 38.9083C27.4798 39.3929 28.7337 39.6423 30 39.6423C32.5575 39.6423 35.0101 38.6264 36.8185 36.818C38.6269 35.0096 39.6429 32.5569 39.6429 29.9994C39.6429 27.442 38.6269 24.9893 36.8185 23.1809C35.0101 21.3725 32.5575 20.3566 30 20.3566ZM23.5714 29.9994C23.5714 29.1552 23.7377 28.3193 24.0608 27.5393C24.3838 26.7594 24.8574 26.0507 25.4543 25.4538C26.0513 24.8568 26.7599 24.3833 27.5399 24.0602C28.3198 23.7372 29.1558 23.5709 30 23.5709C30.8442 23.5709 31.6802 23.7372 32.4601 24.0602C33.2401 24.3833 33.9487 24.8568 34.5457 25.4538C35.1426 26.0507 35.6162 26.7594 35.9392 27.5393C36.2623 28.3193 36.4286 29.1552 36.4286 29.9994C36.4286 31.7044 35.7513 33.3395 34.5457 34.5451C33.3401 35.7507 31.705 36.428 30 36.428C28.295 36.428 26.6599 35.7507 25.4543 34.5451C24.2487 33.3395 23.5714 31.7044 23.5714 29.9994ZM46.5214 47.9887L42.8186 46.3623C42.2916 46.1333 41.7183 46.0307 41.1446 46.0627C40.5709 46.0947 40.0126 46.2604 39.5143 46.5466C38.5136 47.1252 37.875 48.1473 37.7486 49.298L37.3029 53.3266C37.2589 53.7317 37.0904 54.1133 36.8206 54.4188C36.5508 54.7242 36.193 54.9386 35.7964 55.0323C31.9838 55.9387 28.0119 55.9387 24.1993 55.0323C23.8031 54.9382 23.4457 54.7237 23.1764 54.4182C22.907 54.1128 22.7389 53.7315 22.695 53.3266L22.2493 49.3044C22.1855 48.7384 21.9897 48.1951 21.6779 47.7184C21.366 47.2417 20.9467 46.8447 20.4536 46.5594C19.9607 46.2756 19.4083 46.1111 18.8405 46.0791C18.2726 46.0471 17.7052 46.1485 17.1836 46.3752L13.4807 48.0016C13.1064 48.166 12.6902 48.21 12.2898 48.1275C11.8894 48.0449 11.5245 47.8399 11.2457 47.5409C8.58273 44.6833 6.59979 41.2609 5.445 37.5294C5.32254 37.1372 5.32568 36.7165 5.45401 36.3262C5.58233 35.9358 5.82941 35.5953 6.16072 35.3523L9.43286 32.9352C9.89351 32.5967 10.2681 32.1546 10.5262 31.6446C10.7844 31.1346 10.9189 30.5711 10.9189 29.9994C10.9189 29.4278 10.7844 28.8642 10.5262 28.3543C10.2681 27.8443 9.89351 27.4022 9.43286 27.0637L6.16072 24.653C5.82898 24.4098 5.58162 24.069 5.45328 23.6782C5.32494 23.2874 5.32205 22.8662 5.445 22.4737C6.59979 18.7445 8.58446 15.3253 11.25 12.473C11.529 12.1743 11.894 11.9697 12.2944 11.8876C12.6948 11.8054 13.1109 11.8497 13.485 12.0144L17.1707 13.6366C17.6951 13.8623 18.2651 13.9621 18.8351 13.928C19.405 13.894 19.959 13.727 20.4528 13.4404C20.9466 13.1538 21.3665 12.7556 21.6788 12.2777C21.9911 11.7997 22.1872 11.2553 22.2514 10.688L22.7014 6.66373C22.7458 6.25401 22.9175 5.86849 23.1923 5.56139C23.4671 5.25428 23.8313 5.04102 24.2336 4.95159C26.1193 4.53159 28.0507 4.30944 30.0279 4.28516C31.9607 4.30658 33.885 4.53159 35.7707 4.95159C36.1733 5.04114 36.5377 5.25472 36.8126 5.56225C37.0874 5.86978 37.2589 6.25577 37.3029 6.66587L37.7507 10.6902C37.8468 11.5828 38.2692 12.4085 38.9368 13.0088C39.6043 13.6092 40.4701 13.9418 41.3679 13.943C41.8671 13.943 42.3622 13.838 42.825 13.6344L46.5107 12.0123C46.8848 11.8476 47.3009 11.8033 47.7013 11.8854C48.1017 11.9676 48.4667 12.1722 48.7457 12.4709C51.4105 15.3234 53.3944 18.7425 54.5486 22.4716C54.6713 22.8636 54.6685 23.2841 54.5405 23.6745C54.4126 24.0648 54.1659 24.4054 53.835 24.6487L50.5672 27.0637C49.635 27.7494 49.0714 28.8402 49.0714 29.9994C49.0714 31.1566 49.635 32.2473 50.5693 32.9352L53.8393 35.348C54.5164 35.8494 54.8036 36.7237 54.555 37.5273C53.3988 41.255 51.4159 44.6735 48.7543 47.528C48.4755 47.8271 48.1107 48.0321 47.7102 48.1146C47.3098 48.1972 46.8958 48.1532 46.5214 47.9887ZM34.8471 47.5644C35.3581 45.9629 36.4465 44.6086 37.9007 43.7652C38.836 43.2262 39.8847 42.9143 40.9625 42.8544C42.0403 42.7944 43.1172 42.9882 44.1064 43.4202L46.9864 44.6844C48.8349 42.5415 50.2666 40.0719 51.2079 37.403L48.66 35.5237C47.7917 34.8877 47.0853 34.054 46.598 33.0943C46.1107 32.1346 45.8562 31.0736 45.855 29.9973C45.855 27.7966 46.92 25.7544 48.6557 24.4773L48.66 24.4752L51.2036 22.5959C50.2614 19.9275 48.829 17.4587 46.98 15.3166L44.1236 16.5723L44.1193 16.5744C43.2493 16.9602 42.3129 17.1573 41.3636 17.1573C39.6752 17.1557 38.0467 16.5313 36.7901 15.4036C35.5336 14.2759 34.7372 12.7243 34.5536 11.0459V11.0416L34.2043 7.91301C32.8257 7.65652 31.4278 7.51817 30.0257 7.49944C28.5829 7.51944 27.1721 7.6573 25.7936 7.91301L25.4443 11.0437C25.3241 12.1118 24.955 13.1368 24.3667 14.0363C23.7784 14.9359 22.9874 15.6849 22.0571 16.2232C21.1267 16.7615 20.0831 17.0741 19.0101 17.1358C17.9371 17.1976 16.8645 17.0068 15.8786 16.5787L13.0157 15.3187C11.1667 17.4609 9.73428 19.9297 8.79215 22.598L11.3421 24.4773C12.2082 25.1145 12.9122 25.9464 13.3974 26.9058C13.8827 27.8653 14.1355 28.9254 14.1355 30.0005C14.1355 31.0757 13.8827 32.1358 13.3974 33.0952C12.9122 34.0547 12.2082 34.8865 11.3421 35.5237L8.79215 37.4052C9.73219 40.0779 11.164 42.5511 13.0136 44.6973L15.8957 43.433C16.8789 43.0038 17.949 42.8112 19.0201 42.8707C20.0912 42.9303 21.1334 43.2403 22.0629 43.7759C22.9916 44.3124 23.7816 45.0593 24.3692 45.9566C24.9569 46.8539 25.3258 47.8765 25.4464 48.9423V48.953L25.7936 52.0902C28.5729 52.6366 31.4293 52.6366 34.2086 52.0902L34.5557 48.9466C34.6071 48.4723 34.7057 48.0116 34.8514 47.5644" fill="#130C76"/>
</svg>
