<svg width="25" height="24" viewBox="0 0 25 24" fill="none" xmlns="http://www.w3.org/2000/svg">
<path d="M11.3255 22C10.8755 22 10.4881 21.85 10.1635 21.55C9.8388 21.25 9.6428 20.8833 9.57547 20.45L9.35047 18.8C9.1338 18.7167 8.9298 18.6167 8.73847 18.5C8.54714 18.3833 8.35947 18.2583 8.17547 18.125L6.62547 18.775C6.2088 18.9583 5.79214 18.975 5.37547 18.825C4.9588 18.675 4.6338 18.4083 4.40047 18.025L3.22547 15.975C2.99214 15.5917 2.92547 15.1833 3.02547 14.75C3.12547 14.3167 3.35047 13.9583 3.70047 13.675L5.02547 12.675C5.0088 12.5583 5.00047 12.4457 5.00047 12.337V11.662C5.00047 11.554 5.0088 11.4417 5.02547 11.325L3.70047 10.325C3.35047 10.0417 3.12547 9.68333 3.02547 9.25C2.92547 8.81667 2.99214 8.40833 3.22547 8.025L4.40047 5.975C4.6338 5.59167 4.9588 5.325 5.37547 5.175C5.79214 5.025 6.2088 5.04167 6.62547 5.225L8.17547 5.875C8.3588 5.74167 8.55047 5.61667 8.75047 5.5C8.95047 5.38333 9.15047 5.28333 9.35047 5.2L9.57547 3.55C9.64214 3.11667 9.83814 2.75 10.1635 2.45C10.4888 2.15 10.8761 2 11.3255 2H13.6755C14.1255 2 14.5131 2.15 14.8385 2.45C15.1638 2.75 15.3595 3.11667 15.4255 3.55L15.6505 5.2C15.8671 5.28333 16.0715 5.38333 16.2635 5.5C16.4555 5.61667 16.6428 5.74167 16.8255 5.875L18.3755 5.225C18.7921 5.04167 19.2088 5.025 19.6255 5.175C20.0421 5.325 20.3671 5.59167 20.6005 5.975L21.7755 8.025C22.0088 8.40833 22.0755 8.81667 21.9755 9.25C21.8755 9.68333 21.6505 10.0417 21.3005 10.325L19.9755 11.325C19.9921 11.4417 20.0005 11.5543 20.0005 11.663V12.337C20.0005 12.4457 19.9838 12.5583 19.9505 12.675L21.2755 13.675C21.6255 13.9583 21.8505 14.3167 21.9505 14.75C22.0505 15.1833 21.9838 15.5917 21.7505 15.975L20.5505 18.025C20.3171 18.4083 19.9921 18.675 19.5755 18.825C19.1588 18.975 18.7421 18.9583 18.3255 18.775L16.8255 18.125C16.6421 18.2583 16.4505 18.3833 16.2505 18.5C16.0505 18.6167 15.8505 18.7167 15.6505 18.8L15.4255 20.45C15.3588 20.8833 15.1631 21.25 14.8385 21.55C14.5138 21.85 14.1261 22 13.6755 22H11.3255ZM12.5505 15.5C13.5171 15.5 14.3421 15.1583 15.0255 14.475C15.7088 13.7917 16.0505 12.9667 16.0505 12C16.0505 11.0333 15.7088 10.2083 15.0255 9.525C14.3421 8.84167 13.5171 8.5 12.5505 8.5C11.5671 8.5 10.7378 8.84167 10.0625 9.525C9.38714 10.2083 9.0498 11.0333 9.05047 12C9.05114 12.9667 9.3888 13.7917 10.0635 14.475C10.7381 15.1583 11.5671 15.5 12.5505 15.5Z" fill="white"/>
</svg>
