<svg width="25" height="25" viewBox="0 0 25 25" fill="none" xmlns="http://www.w3.org/2000/svg">
<path d="M18.75 16.4058C18.3291 16.4057 17.9126 16.4908 17.5255 16.6562C17.1385 16.8215 16.7889 17.0636 16.498 17.3678L9.27148 13.3018C9.41146 12.7762 9.41146 12.223 9.27148 11.6974L16.498 7.63143C17.0243 8.17701 17.7314 8.51201 18.4869 8.57366C19.2424 8.63532 19.9944 8.4194 20.6021 7.96636C21.2099 7.51333 21.6315 6.85426 21.7882 6.11262C21.9449 5.37098 21.8258 4.59766 21.4532 3.93754C21.0806 3.27742 20.4801 2.77579 19.7643 2.52663C19.0484 2.27746 18.2662 2.29786 17.5643 2.584C16.8624 2.87013 16.2888 3.40238 15.9512 4.08102C15.6135 4.75966 15.5349 5.53813 15.73 6.27059L8.50341 10.3365C8.07175 9.88643 7.51529 9.5758 6.90563 9.44457C6.29597 9.31334 5.66099 9.36752 5.08237 9.60015C4.50376 9.83277 4.00797 10.2332 3.6588 10.7499C3.30963 11.2666 3.12305 11.876 3.12305 12.4996C3.12305 13.1232 3.30963 13.7326 3.6588 14.2493C4.00797 14.766 4.50376 15.1664 5.08237 15.3991C5.66099 15.6317 6.29597 15.6859 6.90563 15.5546C7.51529 15.4234 8.07175 15.1128 8.50341 14.6627L15.73 18.7286C15.5624 19.3594 15.5966 20.0268 15.8277 20.6372C16.0587 21.2476 16.4751 21.7703 17.0184 22.1321C17.5617 22.4938 18.2045 22.6763 18.8568 22.654C19.5091 22.6318 20.1381 22.4058 20.6554 22.0079C21.1728 21.61 21.5525 21.0601 21.7415 20.4354C21.9304 19.8107 21.919 19.1425 21.7088 18.5246C21.4986 17.9067 21.1003 17.3701 20.5696 16.9901C20.039 16.6101 19.4027 16.4058 18.75 16.4058Z" fill="#130C76"/>
</svg>
