<svg width="35" height="35" viewBox="0 0 35 35" fill="none" xmlns="http://www.w3.org/2000/svg">
<path d="M21.875 20.9995V19.2495C21.875 18.3213 22.2437 17.4311 22.9001 16.7747C23.5565 16.1183 24.4467 15.7495 25.375 15.7495C26.3033 15.7495 27.1935 16.1183 27.8499 16.7747C28.5063 17.4311 28.875 18.3213 28.875 19.2495V20.9995H29.75C30.2141 20.9995 30.6593 21.1839 30.9874 21.5121C31.3156 21.8403 31.5 22.2854 31.5 22.7495V29.7495C31.5 30.2137 31.3156 30.6588 30.9874 30.987C30.6593 31.3152 30.2141 31.4995 29.75 31.4995H21C20.5359 31.4995 20.0908 31.3152 19.7626 30.987C19.4344 30.6588 19.25 30.2137 19.25 29.7495V22.7495C19.25 22.2854 19.4344 21.8403 19.7626 21.5121C20.0908 21.1839 20.5359 20.9995 21 20.9995H21.875ZM23.625 19.2495V20.9995H27.125V19.2495C27.125 18.7854 26.9406 18.3403 26.6124 18.0121C26.2842 17.6839 25.8391 17.4995 25.375 17.4995C24.9109 17.4995 24.4658 17.6839 24.1376 18.0121C23.8094 18.3403 23.625 18.7854 23.625 19.2495ZM26.6875 26.2495C26.6875 25.9015 26.5492 25.5676 26.3031 25.3215C26.0569 25.0753 25.7231 24.937 25.375 24.937C25.0269 24.937 24.6931 25.0753 24.4469 25.3215C24.2008 25.5676 24.0625 25.9015 24.0625 26.2495C24.0625 26.5976 24.2008 26.9315 24.4469 27.1776C24.6931 27.4238 25.0269 27.562 25.375 27.562C25.7231 27.562 26.0569 27.4238 26.3031 27.1776C26.5492 26.9315 26.6875 26.5976 26.6875 26.2495ZM17.0152 3.64655C17.1589 3.55099 17.3275 3.5 17.5 3.5C17.6725 3.5 17.8411 3.55099 17.9848 3.64655C21.2885 5.87376 25.0545 7.32238 28.9992 7.8833C29.2077 7.9132 29.3983 8.01725 29.5362 8.17637C29.6741 8.33548 29.75 8.53899 29.75 8.74955V16.3463C29.1265 15.4064 28.2169 14.6922 27.1559 14.3096C26.0948 13.927 24.9387 13.8963 23.8589 14.222C22.779 14.5478 21.8328 15.2126 21.1603 16.1181C20.4877 17.0236 20.1247 18.1216 20.125 19.2495V19.3598C19.3736 19.5538 18.7079 19.9921 18.2327 20.6057C17.7576 21.2193 17.4998 21.9735 17.5 22.7495V29.7495C17.5 30.348 17.6505 30.9098 17.9148 31.4033L17.815 31.4418C17.6123 31.52 17.3877 31.52 17.185 31.4418C9.289 28.402 5.25 23.432 5.25 16.6245V8.74955C5.25003 8.53873 5.32618 8.33501 5.46443 8.17586C5.60269 8.0167 5.79376 7.91281 6.0025 7.8833C9.9466 7.32212 13.712 5.87352 17.0152 3.64655Z" fill="#130C76"/>
</svg>
