<svg width="45" height="45" viewBox="0 0 45 45" fill="none" xmlns="http://www.w3.org/2000/svg">
<path d="M11.25 37.5C9.6875 37.5 8.35938 36.9531 7.26562 35.8594C6.17188 34.7656 5.625 33.4375 5.625 31.875H1.875V11.25C1.875 10.2188 2.2425 9.33625 2.9775 8.6025C3.7125 7.86875 4.595 7.50125 5.625 7.5H31.875V15H37.5L43.125 22.5V31.875H39.375C39.375 33.4375 38.8281 34.7656 37.7344 35.8594C36.6406 36.9531 35.3125 37.5 33.75 37.5C32.1875 37.5 30.8594 36.9531 29.7656 35.8594C28.6719 34.7656 28.125 33.4375 28.125 31.875H16.875C16.875 33.4375 16.3281 34.7656 15.2344 35.8594C14.1406 36.9531 12.8125 37.5 11.25 37.5ZM11.25 33.75C11.7812 33.75 12.2269 33.57 12.5869 33.21C12.9469 32.85 13.1263 32.405 13.125 31.875C13.1237 31.345 12.9437 30.9 12.585 30.54C12.2262 30.18 11.7812 30 11.25 30C10.7188 30 10.2738 30.18 9.915 30.54C9.55625 30.9 9.37625 31.345 9.375 31.875C9.37375 32.405 9.55375 32.8506 9.915 33.2119C10.2762 33.5731 10.7212 33.7525 11.25 33.75ZM33.75 33.75C34.2812 33.75 34.7269 33.57 35.0869 33.21C35.4469 32.85 35.6263 32.405 35.625 31.875C35.6237 31.345 35.4437 30.9 35.085 30.54C34.7262 30.18 34.2812 30 33.75 30C33.2188 30 32.7738 30.18 32.415 30.54C32.0562 30.9 31.8762 31.345 31.875 31.875C31.8738 32.405 32.0538 32.8506 32.415 33.2119C32.7763 33.5731 33.2213 33.7525 33.75 33.75ZM31.875 24.375H39.8438L35.625 18.75H31.875V24.375Z" fill="white"/>
</svg>
