<svg width="60" height="60" viewBox="0 0 60 60" fill="none" xmlns="http://www.w3.org/2000/svg">
<path d="M14.22 47.79C12.4 47.79 10.8575 47.1542 9.59248 45.8825C8.32581 44.6108 7.69248 43.0667 7.69248 41.25H4.22998V12.5H41.35V21.54H47.1175L55.7725 33.1725V41.25H51.7325C51.7325 43.0667 51.0958 44.6108 49.8225 45.8825C48.5492 47.1542 47.0025 47.7892 45.1825 47.7875C43.3625 47.7858 41.8208 47.1508 40.5575 45.8825C39.2941 44.6142 38.6608 43.07 38.6575 41.25H20.7675C20.7675 43.0767 20.1308 44.6233 18.8575 45.89C17.5841 47.1567 16.0375 47.79 14.2175 47.79M14.2275 45.29C15.3525 45.29 16.3066 44.8983 17.09 44.115C17.8733 43.3317 18.265 42.3767 18.265 41.25C18.265 40.1233 17.8733 39.1692 17.09 38.3875C16.3066 37.6058 15.3525 37.2142 14.2275 37.2125C13.1025 37.2108 12.1483 37.6025 11.365 38.3875C10.5816 39.1725 10.19 40.1267 10.19 41.25C10.19 42.3733 10.5816 43.3275 11.365 44.1125C12.1483 44.8975 13.1025 45.2917 14.2275 45.29ZM6.72748 38.75H8.34498C8.69998 37.6467 9.42415 36.6983 10.5175 35.905C11.6108 35.1117 12.8475 34.7133 14.2275 34.71C15.5441 34.71 16.7658 35.1 17.8925 35.88C19.0175 36.6583 19.7575 37.615 20.1125 38.75H38.845V15H6.72748V38.75ZM45.19 45.29C46.315 45.29 47.2691 44.8983 48.0525 44.115C48.8358 43.33 49.2275 42.375 49.2275 41.25C49.2275 40.125 48.8358 39.1708 48.0525 38.3875C47.2691 37.6042 46.315 37.2125 45.19 37.2125C44.065 37.2125 43.1108 37.6042 42.3275 38.3875C41.5441 39.1708 41.1525 40.125 41.1525 41.25C41.1525 42.375 41.5441 43.3292 42.3275 44.1125C43.1108 44.8958 44.065 45.29 45.19 45.29ZM41.345 33.75H53.125L45.77 24.04H41.345V33.75Z" fill="#130C76"/>
</svg>
