<svg width="25" height="25" viewBox="0 0 25 25" fill="none" xmlns="http://www.w3.org/2000/svg">
<path d="M6.24935 20.8327C5.38129 20.8327 4.64345 20.5289 4.03581 19.9212C3.42817 19.3136 3.12435 18.5757 3.12435 17.7077H1.04102V6.24935C1.04102 5.67643 1.24518 5.18615 1.65352 4.77852C2.06185 4.37088 2.55213 4.16671 3.12435 4.16602H17.7077V8.33268H20.8327L23.9577 12.4993V17.7077H21.8744C21.8744 18.5757 21.5705 19.3136 20.9629 19.9212C20.3553 20.5289 19.6174 20.8327 18.7493 20.8327C17.8813 20.8327 17.1434 20.5289 16.5358 19.9212C15.9282 19.3136 15.6243 18.5757 15.6243 17.7077H9.37435C9.37435 18.5757 9.07053 19.3136 8.46289 19.9212C7.85525 20.5289 7.1174 20.8327 6.24935 20.8327ZM6.24935 18.7493C6.54449 18.7493 6.79206 18.6494 6.99206 18.4494C7.19206 18.2493 7.29171 18.0021 7.29102 17.7077C7.29032 17.4132 7.19032 17.166 6.99102 16.966C6.79171 16.766 6.54449 16.666 6.24935 16.666C5.95421 16.666 5.70699 16.766 5.50768 16.966C5.30838 17.166 5.20838 17.4132 5.20768 17.7077C5.20699 18.0021 5.30699 18.2497 5.50768 18.4504C5.70838 18.6511 5.9556 18.7507 6.24935 18.7493ZM18.7493 18.7493C19.0445 18.7493 19.2921 18.6494 19.4921 18.4494C19.6921 18.2493 19.7917 18.0021 19.791 17.7077C19.7903 17.4132 19.6903 17.166 19.491 16.966C19.2917 16.766 19.0445 16.666 18.7493 16.666C18.4542 16.666 18.207 16.766 18.0077 16.966C17.8084 17.166 17.7084 17.4132 17.7077 17.7077C17.707 18.0021 17.807 18.2497 18.0077 18.4504C18.2084 18.6511 18.4556 18.7507 18.7493 18.7493ZM17.7077 13.541H22.1348L19.791 10.416H17.7077V13.541Z" fill="#00AB3F"/>
</svg>
