<svg width="18" height="18" viewBox="0 0 18 18" fill="none" xmlns="http://www.w3.org/2000/svg">
<path d="M2.83254 2.74125C2.69679 3.01125 2.63004 3.34575 2.49654 4.01325L2.04804 6.25575C1.98448 6.56151 1.98399 6.87702 2.04659 7.18297C2.1092 7.48892 2.2336 7.77888 2.41216 8.03509C2.59072 8.2913 2.81969 8.50837 3.08506 8.67301C3.35042 8.83766 3.6466 8.94641 3.95546 8.99261C4.26431 9.03881 4.57935 9.0215 4.88128 8.94172C5.18321 8.86194 5.46569 8.72138 5.71141 8.52864C5.95713 8.3359 6.16093 8.09504 6.31033 7.8208C6.45973 7.54657 6.55159 7.24472 6.58029 6.93375L6.63279 6.41625C6.60437 6.74538 6.64491 7.07682 6.75183 7.38939C6.85876 7.70196 7.02971 7.98879 7.25376 8.23156C7.47781 8.47432 7.75004 8.66768 8.05305 8.79927C8.35606 8.93087 8.6832 8.99781 9.01354 8.99582C9.34389 8.99383 9.67019 8.92295 9.97159 8.78771C10.273 8.65247 10.5429 8.45585 10.764 8.21041C10.9851 7.96496 11.1526 7.67609 11.2557 7.36225C11.3589 7.04842 11.3954 6.71651 11.363 6.38775L11.4178 6.93375C11.4465 7.24472 11.5383 7.54657 11.6877 7.8208C11.8372 8.09504 12.041 8.3359 12.2867 8.52864C12.5324 8.72138 12.8149 8.86194 13.1168 8.94172C13.4187 9.0215 13.7338 9.03881 14.0426 8.99261C14.3515 8.94641 14.6477 8.83766 14.913 8.67301C15.1784 8.50837 15.4074 8.2913 15.5859 8.03509C15.7645 7.77888 15.8889 7.48892 15.9515 7.18297C16.0141 6.87702 16.0136 6.56151 15.95 6.25575L15.5015 4.01325C15.368 3.34575 15.3013 3.012 15.1655 2.74125C15.0241 2.45928 14.8249 2.2102 14.581 2.01019C14.337 1.81017 14.0538 1.66369 13.7495 1.58025C13.457 1.5 13.1165 1.5 12.4355 1.5H5.56254C4.88154 1.5 4.54104 1.5 4.24854 1.58025C3.94432 1.66369 3.66104 1.81017 3.41709 2.01019C3.17315 2.2102 2.97399 2.45928 2.83254 2.74125ZM13.7008 10.125C14.2868 10.1265 14.8632 9.97637 15.374 9.68925V10.5C15.374 13.3282 15.374 14.7427 14.495 15.621C13.7878 16.329 12.734 16.4662 10.874 16.4932V13.875C10.874 13.1737 10.874 12.8235 10.7233 12.5625C10.6246 12.3915 10.4825 12.2495 10.3115 12.1508C10.0505 12 9.70029 12 8.99904 12C8.29779 12 7.94754 12 7.68654 12.1508C7.51553 12.2495 7.37353 12.3915 7.27479 12.5625C7.12404 12.8235 7.12404 13.1737 7.12404 13.875V16.4932C5.26404 16.4662 4.21029 16.3282 3.50304 15.621C2.62404 14.7427 2.62404 13.3282 2.62404 10.5V9.68925C3.1351 9.97649 3.71179 10.1266 4.29804 10.125C5.16477 10.1255 5.99923 9.79626 6.63204 9.204C7.27683 9.79824 8.12218 10.1272 8.99904 10.125C9.8759 10.1272 10.7212 9.79824 11.366 9.204C11.9988 9.79626 12.8341 10.1255 13.7008 10.125Z" fill="white"/>
</svg>
