<svg width="25" height="24" viewBox="0 0 25 24" fill="none" xmlns="http://www.w3.org/2000/svg">
<path d="M4.27799 3.655C4.09699 4.015 4.00799 4.461 3.82999 5.351L3.23199 8.341C3.14724 8.74867 3.14659 9.16936 3.23006 9.5773C3.31354 9.98523 3.4794 10.3718 3.71748 10.7135C3.95556 11.0551 4.26086 11.3445 4.61468 11.564C4.9685 11.7835 5.36341 11.9285 5.77522 11.9901C6.18702 12.0518 6.60707 12.0287 7.00965 11.9223C7.41222 11.8159 7.78885 11.6285 8.11648 11.3715C8.44411 11.1145 8.71584 10.7934 8.91505 10.4277C9.11425 10.0621 9.23673 9.65963 9.27499 9.245L9.34499 8.555C9.3071 8.99384 9.36115 9.43576 9.50372 9.85252C9.64628 10.2693 9.87421 10.6517 10.173 10.9754C10.4717 11.2991 10.8347 11.5569 11.2387 11.7324C11.6427 11.9078 12.0789 11.9971 12.5193 11.9944C12.9598 11.9918 13.3949 11.8973 13.7967 11.717C14.1986 11.5366 14.5584 11.2745 14.8533 10.9472C15.1481 10.6199 15.3714 10.2348 15.5089 9.81634C15.6464 9.39789 15.6952 8.95535 15.652 8.517L15.725 9.245C15.7633 9.65963 15.8857 10.0621 16.0849 10.4277C16.2841 10.7934 16.5559 11.1145 16.8835 11.3715C17.2111 11.6285 17.5878 11.8159 17.9903 11.9223C18.3929 12.0287 18.813 12.0518 19.2248 11.9901C19.6366 11.9285 20.0315 11.7835 20.3853 11.564C20.7391 11.3445 21.0444 11.0551 21.2825 10.7135C21.5206 10.3718 21.6864 9.98523 21.7699 9.5773C21.8534 9.16936 21.8527 8.74867 21.768 8.341L21.17 5.351C20.992 4.461 20.903 4.016 20.722 3.655C20.5334 3.27904 20.2678 2.94694 19.9426 2.68025C19.6173 2.41356 19.2396 2.21826 18.834 2.107C18.444 2 17.99 2 17.082 2H7.91799C7.00999 2 6.55599 2 6.16599 2.107C5.76036 2.21826 5.38266 2.41356 5.0574 2.68025C4.73213 2.94694 4.46659 3.27904 4.27799 3.655ZM18.769 13.5C19.5503 13.502 20.3189 13.3018 21 12.919V14C21 17.771 21 19.657 19.828 20.828C18.885 21.772 17.48 21.955 15 21.991V18.5C15 17.565 15 17.098 14.799 16.75C14.6673 16.522 14.478 16.3326 14.25 16.201C13.902 16 13.435 16 12.5 16C11.565 16 11.098 16 10.75 16.201C10.522 16.3326 10.3326 16.522 10.201 16.75C9.99999 17.098 9.99999 17.565 9.99999 18.5V21.991C7.51999 21.955 6.11499 21.771 5.17199 20.828C3.99999 19.657 3.99999 17.771 3.99999 14V12.919C4.6814 13.302 5.45033 13.5021 6.23199 13.5C7.38763 13.5007 8.50025 13.0617 9.34399 12.272C10.2037 13.0643 11.3309 13.5029 12.5 13.5C13.6691 13.5029 14.7963 13.0643 15.656 12.272C16.4997 13.0617 17.6134 13.5007 18.769 13.5Z" fill="white"/>
</svg>
