<svg width="15" height="16" viewBox="0 0 15 16" fill="none" xmlns="http://www.w3.org/2000/svg">
<g clip-path="url(#clip0_912_2817)">
<path d="M8.58049 2.65247L9.68049 4.87059C9.83049 5.17934 10.2305 5.47559 10.568 5.53184L12.5611 5.86622C13.8361 6.08059 14.1361 7.01309 13.2174 7.93309L11.6674 9.49559C11.4049 9.75997 11.2611 10.2706 11.3424 10.6362L11.7861 12.5706C12.1361 14.1018 11.3299 14.6937 9.98611 13.8937L8.11736 12.7781C7.77986 12.5768 7.22361 12.5768 6.87986 12.7781L5.01236 13.8937C3.67486 14.6937 2.86236 14.095 3.21236 12.5706L3.65611 10.6362C3.73736 10.2706 3.59361 9.75997 3.33111 9.49559L1.78111 7.93309C0.869237 7.01247 1.16299 6.08059 2.43736 5.86622L4.43111 5.53184C4.76236 5.47559 5.16236 5.17934 5.31236 4.87059L6.41236 2.65247C7.01236 1.44934 7.98736 1.44934 8.58111 2.65247" stroke="#FF8A24" stroke-width="2" stroke-linecap="round" stroke-linejoin="round"/>
</g>
<defs>
<clipPath id="clip0_912_2817">
<rect width="15" height="15" fill="white" transform="translate(0 0.5)"/>
</clipPath>
</defs>
</svg>
