<svg width="50" height="49" viewBox="0 0 50 49" fill="none" xmlns="http://www.w3.org/2000/svg">
<path d="M0 23.3101C0 9.50294 11.1929 -1.68994 25 -1.68994C38.8071 -1.68994 50 9.50294 50 23.3101C50 37.1172 38.8071 48.3101 25 48.3101C11.1929 48.3101 0 37.1172 0 23.3101Z" fill="#FF6F61"/>
<path d="M34.4594 10.8857C33.3604 7.17455 31.2578 5.12125 29.3212 3.98548C26.566 2.3704 23.577 2.3704 20.8222 3.98548C18.8856 5.1204 16.7831 7.17455 15.6841 10.8857C13.6971 17.7363 14.0355 28.394 14.0355 28.394L17.5154 29.066L25.2561 29.6822L32.4439 29.4768L36.1084 28.394C36.1084 28.394 36.4464 17.7372 34.4594 10.8857Z" fill="black"/>
<path d="M43.1732 34.5614C43.1254 36.1737 42.9519 42.0076 42.9519 43.1358C42.9519 42.9102 42.9519 43.3615 42.9519 43.357C42.9519 43.3524 29.3483 43.3056 25.2211 43.3056C21.0938 43.3056 14.618 43.357 10.8549 43.357C10.1908 43.357 7.53451 43.357 7.0918 43.357C7.09175 41.7775 7.22105 37.4902 7.22107 34.5241C7.84176 32.426 9.47909 30.7715 11.5873 30.1788L17.1271 28.6189L20.8513 27.568L21.6004 23.2918L21.7252 22.561L21.9963 21.0228L24.7074 22.1064L25.2211 22.3101L25.7347 22.1064L28.4458 21.0228V22.561L29.0063 25.987L29.2276 27.568L33.315 28.6189L38.8548 30.1788C40.963 30.7715 42.5525 32.4633 43.1732 34.5614Z" fill="#FFA33B"/>
<path d="M33.0941 28.6234C32.4663 31.0124 30.565 35.7068 25.0002 38.1212C19.4354 35.7068 17.5341 31.0124 16.9062 28.6234L20.6304 27.5725L21.3795 23.2963L21.7755 21.0273L25.0002 22.3146L28.2249 21.0273L29.106 26.0599L29.37 27.5725L33.0941 28.6234Z" fill="#86201B"/>
<path d="M29.1054 26.0599C27.9175 26.4962 26.983 26.4962 26.983 26.4962C26.983 26.4962 23.4657 26.4962 21.3789 23.2963L21.7749 21.0273L24.9996 22.3146L28.2243 21.0273L29.1054 26.0599Z" fill="#611714"/>
<path d="M33.7145 13.9203C33.6713 13.6301 33.5657 13.3356 33.3485 13.1429C33.1526 12.9691 32.883 12.8974 32.6236 12.9087C32.3643 12.92 32.1132 13.0084 31.8795 13.1236C31.8795 13.1236 31.5054 8.12493 29.1742 8.04675C27.6457 7.96894 27.7445 8.2286 25.4287 8.2286C23.1128 8.2286 22.1415 7.96858 20.613 8.04676C18.2818 8.12458 18.1223 13.1236 18.1223 13.1236C17.8887 13.0084 17.6375 12.92 17.3782 12.9087C17.1189 12.8974 16.8492 12.9691 16.6533 13.1429C16.4361 13.3353 16.3309 13.6301 16.2874 13.9203C16.2003 14.5025 16.3373 15.1166 16.6623 15.6035C16.9872 16.0904 17.4674 16.4566 18.0306 16.5879C19.0241 23.6778 25.0013 23.6778 25.0013 23.6778C25.0013 23.6778 30.9781 23.6778 31.9719 16.5879C32.5351 16.4566 33.0153 16.0904 33.3403 15.6035C33.6645 15.1166 33.8011 14.5025 33.7145 13.9203Z" fill="#86201B"/>
<path d="M24.666 13.1171V17.2773H25.3577C26.5434 17.2773 24.8861 13.5952 24.666 13.1171Z" fill="#611714"/>
<path d="M29.6952 11.4964C28.7392 11.015 27.6765 10.9437 26.6802 11.3473C26.2582 11.5186 26.4419 12.2222 26.87 12.0487C27.6865 11.7179 28.5416 11.7248 29.3353 12.1244C29.7462 12.3313 30.1079 11.704 29.6952 11.4964Z" fill="#111214"/>
<path d="M28.161 13.803C28.5326 13.803 28.8338 13.4959 28.8338 13.1172C28.8338 12.7384 28.5326 12.4314 28.161 12.4314C27.7895 12.4314 27.4883 12.7384 27.4883 13.1172C27.4883 13.4959 27.7895 13.803 28.161 13.803Z" fill="#111214"/>
<path d="M20.307 11.4964C21.263 11.015 22.3257 10.9437 23.322 11.3473C23.744 11.5186 23.5603 12.2222 23.1322 12.0487C22.3157 11.7179 21.4606 11.7248 20.6669 12.1244C20.256 12.3313 19.8946 11.704 20.307 11.4964Z" fill="#111214"/>
<path d="M21.8407 13.803C22.2123 13.803 22.5135 13.4959 22.5135 13.1172C22.5135 12.7384 22.2123 12.4314 21.8407 12.4314C21.4692 12.4314 21.168 12.7384 21.168 13.1172C21.168 13.4959 21.4692 13.803 21.8407 13.803Z" fill="#111214"/>
<path d="M22.8086 19.266C23.0458 20.1685 23.9358 20.8405 25.001 20.8405C26.0661 20.8405 26.9562 20.1685 27.1934 19.266H22.8086Z" fill="white"/>
<path d="M38.2675 40.8462C37.6503 41.2899 37.0154 41.7008 36.3555 42.0789L37.5469 36.0864L38.2675 40.8462Z" fill="#FF863B"/>
<path d="M13.6464 42.0789C12.9865 41.7008 12.3479 41.2899 11.7344 40.8499L12.4549 36.0864L13.6464 42.0789Z" fill="#FF863B"/>
<path d="M32.4697 16.3447C32.5476 16.3689 32.5978 16.4218 32.6221 16.4521C32.6574 16.4964 32.6804 16.5455 32.6953 16.584C32.7261 16.6637 32.7484 16.7639 32.7656 16.8691C32.8008 17.0842 32.8213 17.3718 32.8213 17.6826C32.8213 17.9934 32.8008 18.281 32.7656 18.4961C32.7484 18.6014 32.7261 18.7016 32.6953 18.7812C32.6804 18.8197 32.6573 18.8689 32.6221 18.9131C32.5898 18.9535 32.5114 19.0331 32.3838 19.0332C32.2559 19.0332 32.1768 18.9535 32.1445 18.9131C32.1093 18.8689 32.0871 18.8197 32.0723 18.7812C32.0414 18.7015 32.0182 18.6015 32.001 18.4961C31.9658 18.281 31.9453 17.9934 31.9453 17.6826C31.9453 17.3718 31.9658 17.0842 32.001 16.8691C32.0182 16.7638 32.0414 16.6637 32.0723 16.584C32.0871 16.5455 32.1093 16.4963 32.1445 16.4521C32.1768 16.4117 32.2559 16.332 32.3838 16.332L32.4697 16.3447Z" stroke="#BD1010" stroke-width="0.519383"/>
<path d="M17.8447 16.3447C17.9226 16.3689 17.9728 16.4218 17.9971 16.4521C18.0324 16.4964 18.0554 16.5455 18.0703 16.584C18.1011 16.6637 18.1234 16.7639 18.1406 16.8691C18.1758 17.0842 18.1963 17.3718 18.1963 17.6826C18.1963 17.9934 18.1758 18.281 18.1406 18.4961C18.1234 18.6014 18.1011 18.7016 18.0703 18.7812C18.0554 18.8197 18.0323 18.8689 17.9971 18.9131C17.9648 18.9535 17.8864 19.0331 17.7588 19.0332C17.6309 19.0332 17.5518 18.9535 17.5195 18.9131C17.4843 18.8689 17.4621 18.8197 17.4473 18.7812C17.4164 18.7015 17.3932 18.6015 17.376 18.4961C17.3408 18.281 17.3203 17.9934 17.3203 17.6826C17.3203 17.3718 17.3408 17.0842 17.376 16.8691C17.3932 16.7638 17.4164 16.6637 17.4473 16.584C17.4621 16.5455 17.4843 16.4963 17.5195 16.4521C17.5518 16.4117 17.6309 16.332 17.7588 16.332L17.8447 16.3447Z" stroke="#BD1010" stroke-width="0.519383"/>
<ellipse cx="32.3834" cy="16.0464" rx="0.178359" ry="0.181811" fill="#4EB1C5"/>
<ellipse cx="17.7584" cy="16.0464" rx="0.178359" ry="0.181811" fill="#4EB1C5"/>
</svg>
