<svg width="664" height="44" viewBox="0 0 664 44" fill="none" xmlns="http://www.w3.org/2000/svg">
<path d="M0 16.12H16V0.12H0V16.12ZM25.0336 15.112C24.2976 15.112 23.6363 14.984 23.0496 14.728C22.4736 14.4613 22.0203 14.0987 21.6896 13.64C21.359 13.1707 21.1883 12.632 21.1776 12.024H22.7296C22.783 12.5467 22.9963 12.9893 23.3696 13.352C23.7536 13.704 24.3083 13.88 25.0336 13.88C25.727 13.88 26.271 13.7093 26.6656 13.368C27.071 13.016 27.2736 12.568 27.2736 12.024C27.2736 11.5973 27.1563 11.2507 26.9216 10.984C26.687 10.7173 26.3936 10.5147 26.0416 10.376C25.6896 10.2373 25.215 10.088 24.6176 9.928C23.8816 9.736 23.2896 9.544 22.8416 9.352C22.4043 9.16 22.0256 8.86133 21.7056 8.456C21.3963 8.04 21.2416 7.48533 21.2416 6.792C21.2416 6.184 21.3963 5.64533 21.7056 5.176C22.015 4.70667 22.447 4.344 23.0016 4.088C23.567 3.832 24.2123 3.704 24.9376 3.704C25.983 3.704 26.8363 3.96533 27.4976 4.488C28.1696 5.01067 28.5483 5.704 28.6336 6.568H27.0336C26.9803 6.14133 26.7563 5.768 26.3616 5.448C25.967 5.11733 25.4443 4.952 24.7936 4.952C24.1856 4.952 23.6896 5.112 23.3056 5.432C22.9216 5.74133 22.7296 6.17867 22.7296 6.744C22.7296 7.14933 22.8416 7.48 23.0656 7.736C23.3003 7.992 23.583 8.18933 23.9136 8.328C24.255 8.456 24.7296 8.60533 25.3376 8.776C26.0736 8.97867 26.6656 9.18133 27.1136 9.384C27.5616 9.576 27.9456 9.88 28.2656 10.296C28.5856 10.7013 28.7456 11.256 28.7456 11.96C28.7456 12.504 28.6016 13.016 28.3136 13.496C28.0256 13.976 27.599 14.3653 27.0336 14.664C26.4683 14.9627 25.8016 15.112 25.0336 15.112ZM32.6643 7.432V12.6C32.6643 13.0267 32.7549 13.3307 32.9363 13.512C33.1176 13.6827 33.4323 13.768 33.8802 13.768H34.9523V15H33.6403C32.8296 15 32.2216 14.8133 31.8163 14.44C31.4109 14.0667 31.2083 13.4533 31.2083 12.6V7.432H30.0723V6.232H31.2083V4.024H32.6643V6.232H34.9523V7.432H32.6643ZM38.1724 7.656C38.4284 7.15467 38.791 6.76533 39.2604 6.488C39.7404 6.21067 40.3217 6.072 41.0044 6.072V7.576H40.6204C38.9884 7.576 38.1724 8.46133 38.1724 10.232V15H36.7164V6.232H38.1724V7.656ZM46.5091 15.144C45.6878 15.144 44.9411 14.9573 44.2691 14.584C43.6078 14.2107 43.0851 13.6827 42.7011 13C42.3278 12.3067 42.1411 11.5067 42.1411 10.6C42.1411 9.704 42.3331 8.91467 42.7171 8.232C43.1118 7.53867 43.6451 7.01067 44.3171 6.648C44.9891 6.27467 45.7411 6.088 46.5731 6.088C47.4051 6.088 48.1571 6.27467 48.8291 6.648C49.5011 7.01067 50.0291 7.53333 50.4131 8.216C50.8078 8.89867 51.0051 9.69333 51.0051 10.6C51.0051 11.5067 50.8025 12.3067 50.3971 13C50.0025 13.6827 49.4638 14.2107 48.7811 14.584C48.0985 14.9573 47.3411 15.144 46.5091 15.144ZM46.5091 13.864C47.0318 13.864 47.5225 13.7413 47.9811 13.496C48.4398 13.2507 48.8078 12.8827 49.0851 12.392C49.3731 11.9013 49.5171 11.304 49.5171 10.6C49.5171 9.896 49.3785 9.29867 49.1011 8.808C48.8238 8.31733 48.4611 7.95467 48.0131 7.72C47.5651 7.47467 47.0798 7.352 46.5571 7.352C46.0238 7.352 45.5331 7.47467 45.0851 7.72C44.6478 7.95467 44.2958 8.31733 44.0291 8.808C43.7625 9.29867 43.6291 9.896 43.6291 10.6C43.6291 11.3147 43.7571 11.9173 44.0131 12.408C44.2798 12.8987 44.6318 13.2667 45.0691 13.512C45.5065 13.7467 45.9865 13.864 46.5091 13.864ZM57.1915 6.072C58.2582 6.072 59.1222 6.39733 59.7835 7.048C60.4448 7.688 60.7755 8.616 60.7755 9.832V15H59.3355V10.04C59.3355 9.16533 59.1168 8.49867 58.6795 8.04C58.2422 7.57067 57.6448 7.336 56.8875 7.336C56.1195 7.336 55.5062 7.576 55.0475 8.056C54.5995 8.536 54.3755 9.23467 54.3755 10.152V15H52.9195V6.232H54.3755V7.48C54.6635 7.032 55.0528 6.68533 55.5435 6.44C56.0448 6.19467 56.5942 6.072 57.1915 6.072ZM66.7699 6.088C67.5272 6.088 68.1885 6.25333 68.7539 6.584C69.3299 6.91467 69.7565 7.33067 70.0339 7.832V6.232H71.5059V15.192C71.5059 15.992 71.3352 16.7013 70.9939 17.32C70.6525 17.9493 70.1619 18.44 69.5219 18.792C68.8925 19.144 68.1565 19.32 67.3139 19.32C66.1619 19.32 65.2019 19.048 64.4339 18.504C63.6659 17.96 63.2125 17.2187 63.0739 16.28H64.5139C64.6739 16.8133 65.0045 17.24 65.5059 17.56C66.0072 17.8907 66.6099 18.056 67.3139 18.056C68.1139 18.056 68.7645 17.8053 69.2659 17.304C69.7779 16.8027 70.0339 16.0987 70.0339 15.192V13.352C69.7459 13.864 69.3192 14.2907 68.7539 14.632C68.1885 14.9733 67.5272 15.144 66.7699 15.144C65.9912 15.144 65.2819 14.952 64.6419 14.568C64.0125 14.184 63.5165 13.6453 63.1539 12.952C62.7912 12.2587 62.6099 11.4693 62.6099 10.584C62.6099 9.688 62.7912 8.904 63.1539 8.232C63.5165 7.54933 64.0125 7.02133 64.6419 6.648C65.2819 6.27467 65.9912 6.088 66.7699 6.088ZM70.0339 10.6C70.0339 9.93867 69.9005 9.36267 69.6339 8.872C69.3672 8.38133 69.0045 8.008 68.5459 7.752C68.0979 7.48533 67.6019 7.352 67.0579 7.352C66.5139 7.352 66.0179 7.48 65.5699 7.736C65.1219 7.992 64.7645 8.36533 64.4979 8.856C64.2312 9.34667 64.0979 9.92267 64.0979 10.584C64.0979 11.256 64.2312 11.8427 64.4979 12.344C64.7645 12.8347 65.1219 13.2133 65.5699 13.48C66.0179 13.736 66.5139 13.864 67.0579 13.864C67.6019 13.864 68.0979 13.736 68.5459 13.48C69.0045 13.2133 69.3672 12.8347 69.6339 12.344C69.9005 11.8427 70.0339 11.2613 70.0339 10.6ZM81.9664 10.28C81.9664 10.5573 81.9504 10.8507 81.9184 11.16H74.9104C74.9637 12.024 75.257 12.7013 75.7904 13.192C76.3344 13.672 76.9904 13.912 77.7584 13.912C78.3877 13.912 78.9104 13.768 79.3264 13.48C79.753 13.1813 80.0517 12.7867 80.2224 12.296H81.7904C81.5557 13.1387 81.0864 13.8267 80.3824 14.36C79.6784 14.8827 78.8037 15.144 77.7584 15.144C76.9264 15.144 76.1797 14.9573 75.5184 14.584C74.8677 14.2107 74.3557 13.6827 73.9824 13C73.609 12.3067 73.4224 11.5067 73.4224 10.6C73.4224 9.69333 73.6037 8.89867 73.9664 8.216C74.329 7.53333 74.8357 7.01067 75.4864 6.648C76.1477 6.27467 76.905 6.088 77.7584 6.088C78.5904 6.088 79.3264 6.26933 79.9664 6.632C80.6064 6.99467 81.097 7.496 81.4384 8.136C81.7904 8.76533 81.9664 9.48 81.9664 10.28ZM80.4624 9.976C80.4624 9.42133 80.3397 8.94667 80.0944 8.552C79.849 8.14667 79.513 7.84267 79.0864 7.64C78.6704 7.42667 78.2064 7.32 77.6944 7.32C76.9584 7.32 76.329 7.55467 75.8064 8.024C75.2944 8.49333 75.001 9.144 74.9264 9.976H80.4624ZM85.3443 7.656C85.6003 7.15467 85.9629 6.76533 86.4323 6.488C86.9123 6.21067 87.4936 6.072 88.1763 6.072V7.576H87.7923C86.1603 7.576 85.3443 8.46133 85.3443 10.232V15H83.8883V6.232H85.3443V7.656ZM95.8986 7.432V12.6C95.8986 13.0267 95.9893 13.3307 96.1706 13.512C96.352 13.6827 96.6666 13.768 97.1146 13.768H98.1866V15H96.8746C96.064 15 95.456 14.8133 95.0506 14.44C94.6453 14.0667 94.4426 13.4533 94.4426 12.6V7.432H93.3066V6.232H94.4426V4.024H95.8986V6.232H98.1866V7.432H95.8986ZM104.303 6.072C104.964 6.072 105.561 6.216 106.095 6.504C106.628 6.78133 107.044 7.20267 107.343 7.768C107.652 8.33333 107.807 9.02133 107.807 9.832V15H106.367V10.04C106.367 9.16533 106.148 8.49867 105.711 8.04C105.273 7.57067 104.676 7.336 103.919 7.336C103.151 7.336 102.537 7.576 102.079 8.056C101.631 8.536 101.407 9.23467 101.407 10.152V15H99.9508V3.16H101.407V7.48C101.695 7.032 102.089 6.68533 102.591 6.44C103.103 6.19467 103.673 6.072 104.303 6.072ZM109.641 10.584C109.641 9.688 109.822 8.904 110.185 8.232C110.548 7.54933 111.044 7.02133 111.673 6.648C112.313 6.27467 113.022 6.088 113.801 6.088C114.569 6.088 115.236 6.25333 115.801 6.584C116.366 6.91467 116.788 7.33067 117.065 7.832V6.232H118.537V15H117.065V13.368C116.777 13.88 116.345 14.3067 115.769 14.648C115.204 14.9787 114.542 15.144 113.785 15.144C113.006 15.144 112.302 14.952 111.673 14.568C111.044 14.184 110.548 13.6453 110.185 12.952C109.822 12.2587 109.641 11.4693 109.641 10.584ZM117.065 10.6C117.065 9.93867 116.932 9.36267 116.665 8.872C116.398 8.38133 116.036 8.008 115.577 7.752C115.129 7.48533 114.633 7.352 114.089 7.352C113.545 7.352 113.049 7.48 112.601 7.736C112.153 7.992 111.796 8.36533 111.529 8.856C111.262 9.34667 111.129 9.92267 111.129 10.584C111.129 11.256 111.262 11.8427 111.529 12.344C111.796 12.8347 112.153 13.2133 112.601 13.48C113.049 13.736 113.545 13.864 114.089 13.864C114.633 13.864 115.129 13.736 115.577 13.48C116.036 13.2133 116.398 12.8347 116.665 12.344C116.932 11.8427 117.065 11.2613 117.065 10.6ZM125.27 6.072C126.336 6.072 127.2 6.39733 127.862 7.048C128.523 7.688 128.854 8.616 128.854 9.832V15H127.414V10.04C127.414 9.16533 127.195 8.49867 126.758 8.04C126.32 7.57067 125.723 7.336 124.966 7.336C124.198 7.336 123.584 7.576 123.126 8.056C122.678 8.536 122.454 9.23467 122.454 10.152V15H120.998V6.232H122.454V7.48C122.742 7.032 123.131 6.68533 123.622 6.44C124.123 6.19467 124.672 6.072 125.27 6.072ZM136.954 7.848C137.242 7.34667 137.668 6.93067 138.234 6.6C138.81 6.25867 139.476 6.088 140.234 6.088C141.012 6.088 141.716 6.27467 142.346 6.648C142.986 7.02133 143.487 7.54933 143.85 8.232C144.212 8.904 144.394 9.688 144.394 10.584C144.394 11.4693 144.212 12.2587 143.85 12.952C143.487 13.6453 142.986 14.184 142.346 14.568C141.716 14.952 141.012 15.144 140.234 15.144C139.487 15.144 138.826 14.9787 138.25 14.648C137.684 14.3067 137.252 13.8853 136.954 13.384V19.16H135.498V6.232H136.954V7.848ZM142.906 10.584C142.906 9.92267 142.772 9.34667 142.506 8.856C142.239 8.36533 141.876 7.992 141.418 7.736C140.97 7.48 140.474 7.352 139.93 7.352C139.396 7.352 138.9 7.48533 138.442 7.752C137.994 8.008 137.631 8.38667 137.354 8.888C137.087 9.37867 136.954 9.94933 136.954 10.6C136.954 11.2613 137.087 11.8427 137.354 12.344C137.631 12.8347 137.994 13.2133 138.442 13.48C138.9 13.736 139.396 13.864 139.93 13.864C140.474 13.864 140.97 13.736 141.418 13.48C141.876 13.2133 142.239 12.8347 142.506 12.344C142.772 11.8427 142.906 11.256 142.906 10.584ZM145.766 10.584C145.766 9.688 145.947 8.904 146.31 8.232C146.673 7.54933 147.169 7.02133 147.798 6.648C148.438 6.27467 149.147 6.088 149.926 6.088C150.694 6.088 151.361 6.25333 151.926 6.584C152.491 6.91467 152.913 7.33067 153.19 7.832V6.232H154.662V15H153.19V13.368C152.902 13.88 152.47 14.3067 151.894 14.648C151.329 14.9787 150.667 15.144 149.91 15.144C149.131 15.144 148.427 14.952 147.798 14.568C147.169 14.184 146.673 13.6453 146.31 12.952C145.947 12.2587 145.766 11.4693 145.766 10.584ZM153.19 10.6C153.19 9.93867 153.057 9.36267 152.79 8.872C152.523 8.38133 152.161 8.008 151.702 7.752C151.254 7.48533 150.758 7.352 150.214 7.352C149.67 7.352 149.174 7.48 148.726 7.736C148.278 7.992 147.921 8.36533 147.654 8.856C147.387 9.34667 147.254 9.92267 147.254 10.584C147.254 11.256 147.387 11.8427 147.654 12.344C147.921 12.8347 148.278 13.2133 148.726 13.48C149.174 13.736 149.67 13.864 150.214 13.864C150.758 13.864 151.254 13.736 151.702 13.48C152.161 13.2133 152.523 12.8347 152.79 12.344C153.057 11.8427 153.19 11.2613 153.19 10.6ZM160.227 15.144C159.555 15.144 158.952 15.032 158.419 14.808C157.885 14.5733 157.464 14.2533 157.155 13.848C156.845 13.432 156.675 12.9573 156.643 12.424H158.147C158.189 12.8613 158.392 13.2187 158.755 13.496C159.128 13.7733 159.613 13.912 160.211 13.912C160.765 13.912 161.203 13.7893 161.523 13.544C161.843 13.2987 162.003 12.9893 162.003 12.616C162.003 12.232 161.832 11.9493 161.491 11.768C161.149 11.576 160.621 11.3893 159.907 11.208C159.256 11.0373 158.723 10.8667 158.307 10.696C157.901 10.5147 157.549 10.2533 157.251 9.912C156.963 9.56 156.819 9.10133 156.819 8.536C156.819 8.088 156.952 7.67733 157.219 7.304C157.485 6.93067 157.864 6.63733 158.355 6.424C158.845 6.2 159.405 6.088 160.035 6.088C161.005 6.088 161.789 6.33333 162.387 6.824C162.984 7.31467 163.304 7.98667 163.347 8.84H161.891C161.859 8.38133 161.672 8.01333 161.331 7.736C161 7.45867 160.552 7.32 159.987 7.32C159.464 7.32 159.048 7.432 158.739 7.656C158.429 7.88 158.275 8.17333 158.275 8.536C158.275 8.824 158.365 9.064 158.547 9.256C158.739 9.43733 158.973 9.58667 159.251 9.704C159.539 9.81067 159.933 9.93333 160.435 10.072C161.064 10.2427 161.576 10.4133 161.971 10.584C162.365 10.744 162.701 10.9893 162.979 11.32C163.267 11.6507 163.416 12.0827 163.427 12.616C163.427 13.096 163.293 13.528 163.027 13.912C162.76 14.296 162.381 14.6 161.891 14.824C161.411 15.0373 160.856 15.144 160.227 15.144ZM168.586 15.144C167.914 15.144 167.311 15.032 166.778 14.808C166.245 14.5733 165.823 14.2533 165.514 13.848C165.205 13.432 165.034 12.9573 165.002 12.424H166.506C166.549 12.8613 166.751 13.2187 167.114 13.496C167.487 13.7733 167.973 13.912 168.57 13.912C169.125 13.912 169.562 13.7893 169.882 13.544C170.202 13.2987 170.362 12.9893 170.362 12.616C170.362 12.232 170.191 11.9493 169.85 11.768C169.509 11.576 168.981 11.3893 168.266 11.208C167.615 11.0373 167.082 10.8667 166.666 10.696C166.261 10.5147 165.909 10.2533 165.61 9.912C165.322 9.56 165.178 9.10133 165.178 8.536C165.178 8.088 165.311 7.67733 165.578 7.304C165.845 6.93067 166.223 6.63733 166.714 6.424C167.205 6.2 167.765 6.088 168.394 6.088C169.365 6.088 170.149 6.33333 170.746 6.824C171.343 7.31467 171.663 7.98667 171.706 8.84H170.25C170.218 8.38133 170.031 8.01333 169.69 7.736C169.359 7.45867 168.911 7.32 168.346 7.32C167.823 7.32 167.407 7.432 167.098 7.656C166.789 7.88 166.634 8.17333 166.634 8.536C166.634 8.824 166.725 9.064 166.906 9.256C167.098 9.43733 167.333 9.58667 167.61 9.704C167.898 9.81067 168.293 9.93333 168.794 10.072C169.423 10.2427 169.935 10.4133 170.33 10.584C170.725 10.744 171.061 10.9893 171.338 11.32C171.626 11.6507 171.775 12.0827 171.786 12.616C171.786 13.096 171.653 13.528 171.386 13.912C171.119 14.296 170.741 14.6 170.25 14.824C169.77 15.0373 169.215 15.144 168.586 15.144ZM185.521 6.232L182.785 15H181.281L179.169 8.04L177.057 15H175.553L172.801 6.232H174.289L176.305 13.592L178.481 6.232H179.969L182.097 13.608L184.081 6.232H185.521ZM190.79 15.144C189.969 15.144 189.222 14.9573 188.55 14.584C187.889 14.2107 187.366 13.6827 186.982 13C186.609 12.3067 186.422 11.5067 186.422 10.6C186.422 9.704 186.614 8.91467 186.998 8.232C187.393 7.53867 187.926 7.01067 188.598 6.648C189.27 6.27467 190.022 6.088 190.854 6.088C191.686 6.088 192.438 6.27467 193.11 6.648C193.782 7.01067 194.31 7.53333 194.694 8.216C195.089 8.89867 195.286 9.69333 195.286 10.6C195.286 11.5067 195.084 12.3067 194.678 13C194.284 13.6827 193.745 14.2107 193.062 14.584C192.38 14.9573 191.622 15.144 190.79 15.144ZM190.79 13.864C191.313 13.864 191.804 13.7413 192.262 13.496C192.721 13.2507 193.089 12.8827 193.366 12.392C193.654 11.9013 193.798 11.304 193.798 10.6C193.798 9.896 193.66 9.29867 193.382 8.808C193.105 8.31733 192.742 7.95467 192.294 7.72C191.846 7.47467 191.361 7.352 190.838 7.352C190.305 7.352 189.814 7.47467 189.366 7.72C188.929 7.95467 188.577 8.31733 188.31 8.808C188.044 9.29867 187.91 9.896 187.91 10.6C187.91 11.3147 188.038 11.9173 188.294 12.408C188.561 12.8987 188.913 13.2667 189.35 13.512C189.788 13.7467 190.268 13.864 190.79 13.864ZM198.657 7.656C198.913 7.15467 199.275 6.76533 199.745 6.488C200.225 6.21067 200.806 6.072 201.489 6.072V7.576H201.105C199.473 7.576 198.657 8.46133 198.657 10.232V15H197.201V6.232H198.657V7.656ZM202.626 10.584C202.626 9.688 202.807 8.904 203.17 8.232C203.532 7.54933 204.028 7.02133 204.658 6.648C205.298 6.27467 206.012 6.088 206.802 6.088C207.484 6.088 208.119 6.248 208.706 6.568C209.292 6.87733 209.74 7.288 210.05 7.8V3.16H211.522V15H210.05V13.352C209.762 13.8747 209.335 14.3067 208.77 14.648C208.204 14.9787 207.543 15.144 206.786 15.144C206.007 15.144 205.298 14.952 204.658 14.568C204.028 14.184 203.532 13.6453 203.17 12.952C202.807 12.2587 202.626 11.4693 202.626 10.584ZM210.05 10.6C210.05 9.93867 209.916 9.36267 209.65 8.872C209.383 8.38133 209.02 8.008 208.562 7.752C208.114 7.48533 207.618 7.352 207.074 7.352C206.53 7.352 206.034 7.48 205.586 7.736C205.138 7.992 204.78 8.36533 204.514 8.856C204.247 9.34667 204.114 9.92267 204.114 10.584C204.114 11.256 204.247 11.8427 204.514 12.344C204.78 12.8347 205.138 13.2133 205.586 13.48C206.034 13.736 206.53 13.864 207.074 13.864C207.618 13.864 208.114 13.736 208.562 13.48C209.02 13.2133 209.383 12.8347 209.65 12.344C209.916 11.8427 210.05 11.2613 210.05 10.6ZM217.086 15.144C216.414 15.144 215.811 15.032 215.278 14.808C214.745 14.5733 214.323 14.2533 214.014 13.848C213.705 13.432 213.534 12.9573 213.502 12.424H215.006C215.049 12.8613 215.251 13.2187 215.614 13.496C215.987 13.7733 216.473 13.912 217.07 13.912C217.625 13.912 218.062 13.7893 218.382 13.544C218.702 13.2987 218.862 12.9893 218.862 12.616C218.862 12.232 218.691 11.9493 218.35 11.768C218.009 11.576 217.481 11.3893 216.766 11.208C216.115 11.0373 215.582 10.8667 215.166 10.696C214.761 10.5147 214.409 10.2533 214.11 9.912C213.822 9.56 213.678 9.10133 213.678 8.536C213.678 8.088 213.811 7.67733 214.078 7.304C214.345 6.93067 214.723 6.63733 215.214 6.424C215.705 6.2 216.265 6.088 216.894 6.088C217.865 6.088 218.649 6.33333 219.246 6.824C219.843 7.31467 220.163 7.98667 220.206 8.84H218.75C218.718 8.38133 218.531 8.01333 218.19 7.736C217.859 7.45867 217.411 7.32 216.846 7.32C216.323 7.32 215.907 7.432 215.598 7.656C215.289 7.88 215.134 8.17333 215.134 8.536C215.134 8.824 215.225 9.064 215.406 9.256C215.598 9.43733 215.833 9.58667 216.11 9.704C216.398 9.81067 216.793 9.93333 217.294 10.072C217.923 10.2427 218.435 10.4133 218.83 10.584C219.225 10.744 219.561 10.9893 219.838 11.32C220.126 11.6507 220.275 12.0827 220.286 12.616C220.286 13.096 220.153 13.528 219.886 13.912C219.619 14.296 219.241 14.6 218.75 14.824C218.27 15.0373 217.715 15.144 217.086 15.144ZM235.007 8.52V9.752H226.591V8.52H235.007ZM249.509 3.848L245.877 10.792V15H244.421V10.792L240.773 3.848H242.389L245.141 9.496L247.893 3.848H249.509ZM254.869 15.144C254.047 15.144 253.301 14.9573 252.629 14.584C251.967 14.2107 251.445 13.6827 251.061 13C250.687 12.3067 250.501 11.5067 250.501 10.6C250.501 9.704 250.693 8.91467 251.077 8.232C251.471 7.53867 252.005 7.01067 252.677 6.648C253.349 6.27467 254.101 6.088 254.933 6.088C255.765 6.088 256.517 6.27467 257.189 6.648C257.861 7.01067 258.389 7.53333 258.773 8.216C259.167 8.89867 259.365 9.69333 259.365 10.6C259.365 11.5067 259.162 12.3067 258.757 13C258.362 13.6827 257.823 14.2107 257.141 14.584C256.458 14.9573 255.701 15.144 254.869 15.144ZM254.869 13.864C255.391 13.864 255.882 13.7413 256.341 13.496C256.799 13.2507 257.167 12.8827 257.445 12.392C257.733 11.9013 257.877 11.304 257.877 10.6C257.877 9.896 257.738 9.29867 257.461 8.808C257.183 8.31733 256.821 7.95467 256.373 7.72C255.925 7.47467 255.439 7.352 254.917 7.352C254.383 7.352 253.893 7.47467 253.445 7.72C253.007 7.95467 252.655 8.31733 252.389 8.808C252.122 9.29867 251.989 9.896 251.989 10.6C251.989 11.3147 252.117 11.9173 252.373 12.408C252.639 12.8987 252.991 13.2667 253.429 13.512C253.866 13.7467 254.346 13.864 254.869 13.864ZM269.055 6.232V15H267.599V13.704C267.322 14.152 266.932 14.504 266.431 14.76C265.94 15.0053 265.396 15.128 264.799 15.128C264.116 15.128 263.503 14.9893 262.959 14.712C262.415 14.424 261.983 13.9973 261.663 13.432C261.354 12.8667 261.199 12.1787 261.199 11.368V6.232H262.639V11.176C262.639 12.04 262.858 12.7067 263.295 13.176C263.732 13.6347 264.33 13.864 265.087 13.864C265.866 13.864 266.479 13.624 266.927 13.144C267.375 12.664 267.599 11.9653 267.599 11.048V6.232H269.055ZM272.969 7.656C273.225 7.15467 273.588 6.76533 274.057 6.488C274.537 6.21067 275.119 6.072 275.801 6.072V7.576H275.417C273.785 7.576 272.969 8.46133 272.969 10.232V15H271.513V6.232H272.969V7.656ZM283.204 7.848C283.492 7.34667 283.918 6.93067 284.484 6.6C285.06 6.25867 285.726 6.088 286.484 6.088C287.262 6.088 287.966 6.27467 288.596 6.648C289.236 7.02133 289.737 7.54933 290.1 8.232C290.462 8.904 290.644 9.688 290.644 10.584C290.644 11.4693 290.462 12.2587 290.1 12.952C289.737 13.6453 289.236 14.184 288.596 14.568C287.966 14.952 287.262 15.144 286.484 15.144C285.737 15.144 285.076 14.9787 284.5 14.648C283.934 14.3067 283.502 13.8853 283.204 13.384V19.16H281.748V6.232H283.204V7.848ZM289.156 10.584C289.156 9.92267 289.022 9.34667 288.756 8.856C288.489 8.36533 288.126 7.992 287.668 7.736C287.22 7.48 286.724 7.352 286.18 7.352C285.646 7.352 285.15 7.48533 284.692 7.752C284.244 8.008 283.881 8.38667 283.604 8.888C283.337 9.37867 283.204 9.94933 283.204 10.6C283.204 11.2613 283.337 11.8427 283.604 12.344C283.881 12.8347 284.244 13.2133 284.692 13.48C285.15 13.736 285.646 13.864 286.18 13.864C286.724 13.864 287.22 13.736 287.668 13.48C288.126 13.2133 288.489 12.8347 288.756 12.344C289.022 11.8427 289.156 11.256 289.156 10.584ZM292.016 10.584C292.016 9.688 292.197 8.904 292.56 8.232C292.923 7.54933 293.419 7.02133 294.048 6.648C294.688 6.27467 295.397 6.088 296.176 6.088C296.944 6.088 297.611 6.25333 298.176 6.584C298.741 6.91467 299.163 7.33067 299.44 7.832V6.232H300.912V15H299.44V13.368C299.152 13.88 298.72 14.3067 298.144 14.648C297.579 14.9787 296.917 15.144 296.16 15.144C295.381 15.144 294.677 14.952 294.048 14.568C293.419 14.184 292.923 13.6453 292.56 12.952C292.197 12.2587 292.016 11.4693 292.016 10.584ZM299.44 10.6C299.44 9.93867 299.307 9.36267 299.04 8.872C298.773 8.38133 298.411 8.008 297.952 7.752C297.504 7.48533 297.008 7.352 296.464 7.352C295.92 7.352 295.424 7.48 294.976 7.736C294.528 7.992 294.171 8.36533 293.904 8.856C293.637 9.34667 293.504 9.92267 293.504 10.584C293.504 11.256 293.637 11.8427 293.904 12.344C294.171 12.8347 294.528 13.2133 294.976 13.48C295.424 13.736 295.92 13.864 296.464 13.864C297.008 13.864 297.504 13.736 297.952 13.48C298.411 13.2133 298.773 12.8347 299.04 12.344C299.307 11.8427 299.44 11.2613 299.44 10.6ZM306.477 15.144C305.805 15.144 305.202 15.032 304.669 14.808C304.135 14.5733 303.714 14.2533 303.405 13.848C303.095 13.432 302.925 12.9573 302.893 12.424H304.397C304.439 12.8613 304.642 13.2187 305.005 13.496C305.378 13.7733 305.863 13.912 306.461 13.912C307.015 13.912 307.453 13.7893 307.773 13.544C308.093 13.2987 308.253 12.9893 308.253 12.616C308.253 12.232 308.082 11.9493 307.741 11.768C307.399 11.576 306.871 11.3893 306.157 11.208C305.506 11.0373 304.973 10.8667 304.557 10.696C304.151 10.5147 303.799 10.2533 303.501 9.912C303.213 9.56 303.069 9.10133 303.069 8.536C303.069 8.088 303.202 7.67733 303.469 7.304C303.735 6.93067 304.114 6.63733 304.605 6.424C305.095 6.2 305.655 6.088 306.285 6.088C307.255 6.088 308.039 6.33333 308.637 6.824C309.234 7.31467 309.554 7.98667 309.597 8.84H308.141C308.109 8.38133 307.922 8.01333 307.581 7.736C307.25 7.45867 306.802 7.32 306.237 7.32C305.714 7.32 305.298 7.432 304.989 7.656C304.679 7.88 304.525 8.17333 304.525 8.536C304.525 8.824 304.615 9.064 304.797 9.256C304.989 9.43733 305.223 9.58667 305.501 9.704C305.789 9.81067 306.183 9.93333 306.685 10.072C307.314 10.2427 307.826 10.4133 308.221 10.584C308.615 10.744 308.951 10.9893 309.229 11.32C309.517 11.6507 309.666 12.0827 309.677 12.616C309.677 13.096 309.543 13.528 309.277 13.912C309.01 14.296 308.631 14.6 308.141 14.824C307.661 15.0373 307.106 15.144 306.477 15.144ZM314.836 15.144C314.164 15.144 313.561 15.032 313.028 14.808C312.495 14.5733 312.073 14.2533 311.764 13.848C311.455 13.432 311.284 12.9573 311.252 12.424H312.756C312.799 12.8613 313.001 13.2187 313.364 13.496C313.737 13.7733 314.223 13.912 314.82 13.912C315.375 13.912 315.812 13.7893 316.132 13.544C316.452 13.2987 316.612 12.9893 316.612 12.616C316.612 12.232 316.441 11.9493 316.1 11.768C315.759 11.576 315.231 11.3893 314.516 11.208C313.865 11.0373 313.332 10.8667 312.916 10.696C312.511 10.5147 312.159 10.2533 311.86 9.912C311.572 9.56 311.428 9.10133 311.428 8.536C311.428 8.088 311.561 7.67733 311.828 7.304C312.095 6.93067 312.473 6.63733 312.964 6.424C313.455 6.2 314.015 6.088 314.644 6.088C315.615 6.088 316.399 6.33333 316.996 6.824C317.593 7.31467 317.913 7.98667 317.956 8.84H316.5C316.468 8.38133 316.281 8.01333 315.94 7.736C315.609 7.45867 315.161 7.32 314.596 7.32C314.073 7.32 313.657 7.432 313.348 7.656C313.039 7.88 312.884 8.17333 312.884 8.536C312.884 8.824 312.975 9.064 313.156 9.256C313.348 9.43733 313.583 9.58667 313.86 9.704C314.148 9.81067 314.543 9.93333 315.044 10.072C315.673 10.2427 316.185 10.4133 316.58 10.584C316.975 10.744 317.311 10.9893 317.588 11.32C317.876 11.6507 318.025 12.0827 318.036 12.616C318.036 13.096 317.903 13.528 317.636 13.912C317.369 14.296 316.991 14.6 316.5 14.824C316.02 15.0373 315.465 15.144 314.836 15.144ZM324.987 15L321.547 11.128V15H320.091V3.16H321.547V10.12L324.923 6.232H326.955L322.827 10.6L326.971 15H324.987ZM336.326 10.28C336.326 10.5573 336.31 10.8507 336.278 11.16H329.27C329.323 12.024 329.616 12.7013 330.15 13.192C330.694 13.672 331.35 13.912 332.118 13.912C332.747 13.912 333.27 13.768 333.686 13.48C334.112 13.1813 334.411 12.7867 334.582 12.296H336.15C335.915 13.1387 335.446 13.8267 334.742 14.36C334.038 14.8827 333.163 15.144 332.118 15.144C331.286 15.144 330.539 14.9573 329.878 14.584C329.227 14.2107 328.715 13.6827 328.342 13C327.968 12.3067 327.782 11.5067 327.782 10.6C327.782 9.69333 327.963 8.89867 328.326 8.216C328.688 7.53333 329.195 7.01067 329.846 6.648C330.507 6.27467 331.264 6.088 332.118 6.088C332.95 6.088 333.686 6.26933 334.326 6.632C334.966 6.99467 335.456 7.496 335.798 8.136C336.15 8.76533 336.326 9.48 336.326 10.28ZM334.822 9.976C334.822 9.42133 334.699 8.94667 334.454 8.552C334.208 8.14667 333.872 7.84267 333.446 7.64C333.03 7.42667 332.566 7.32 332.054 7.32C331.318 7.32 330.688 7.55467 330.166 8.024C329.654 8.49333 329.36 9.144 329.286 9.976H334.822ZM345.8 6.232L340.52 19.128H339.016L340.744 14.904L337.208 6.232H338.824L341.576 13.336L344.296 6.232H345.8ZM352.281 4.808C352.004 4.808 351.769 4.712 351.577 4.52C351.385 4.328 351.289 4.09333 351.289 3.816C351.289 3.53867 351.385 3.304 351.577 3.112C351.769 2.92 352.004 2.824 352.281 2.824C352.548 2.824 352.772 2.92 352.953 3.112C353.145 3.304 353.241 3.53867 353.241 3.816C353.241 4.09333 353.145 4.328 352.953 4.52C352.772 4.712 352.548 4.808 352.281 4.808ZM352.985 6.232V15H351.529V6.232H352.985ZM358.57 15.144C357.898 15.144 357.296 15.032 356.762 14.808C356.229 14.5733 355.808 14.2533 355.498 13.848C355.189 13.432 355.018 12.9573 354.986 12.424H356.49C356.533 12.8613 356.736 13.2187 357.098 13.496C357.472 13.7733 357.957 13.912 358.554 13.912C359.109 13.912 359.546 13.7893 359.866 13.544C360.186 13.2987 360.346 12.9893 360.346 12.616C360.346 12.232 360.176 11.9493 359.834 11.768C359.493 11.576 358.965 11.3893 358.25 11.208C357.6 11.0373 357.066 10.8667 356.65 10.696C356.245 10.5147 355.893 10.2533 355.594 9.912C355.306 9.56 355.162 9.10133 355.162 8.536C355.162 8.088 355.296 7.67733 355.562 7.304C355.829 6.93067 356.208 6.63733 356.698 6.424C357.189 6.2 357.749 6.088 358.378 6.088C359.349 6.088 360.133 6.33333 360.73 6.824C361.328 7.31467 361.648 7.98667 361.69 8.84H360.234C360.202 8.38133 360.016 8.01333 359.674 7.736C359.344 7.45867 358.896 7.32 358.33 7.32C357.808 7.32 357.392 7.432 357.082 7.656C356.773 7.88 356.618 8.17333 356.618 8.536C356.618 8.824 356.709 9.064 356.89 9.256C357.082 9.43733 357.317 9.58667 357.594 9.704C357.882 9.81067 358.277 9.93333 358.778 10.072C359.408 10.2427 359.92 10.4133 360.314 10.584C360.709 10.744 361.045 10.9893 361.322 11.32C361.61 11.6507 361.76 12.0827 361.77 12.616C361.77 13.096 361.637 13.528 361.37 13.912C361.104 14.296 360.725 14.6 360.234 14.824C359.754 15.0373 359.2 15.144 358.57 15.144ZM371.195 15.144C370.523 15.144 369.921 15.032 369.387 14.808C368.854 14.5733 368.433 14.2533 368.123 13.848C367.814 13.432 367.643 12.9573 367.611 12.424H369.115C369.158 12.8613 369.361 13.2187 369.723 13.496C370.097 13.7733 370.582 13.912 371.179 13.912C371.734 13.912 372.171 13.7893 372.491 13.544C372.811 13.2987 372.971 12.9893 372.971 12.616C372.971 12.232 372.801 11.9493 372.459 11.768C372.118 11.576 371.59 11.3893 370.875 11.208C370.225 11.0373 369.691 10.8667 369.275 10.696C368.87 10.5147 368.518 10.2533 368.219 9.912C367.931 9.56 367.787 9.10133 367.787 8.536C367.787 8.088 367.921 7.67733 368.187 7.304C368.454 6.93067 368.833 6.63733 369.323 6.424C369.814 6.2 370.374 6.088 371.003 6.088C371.974 6.088 372.758 6.33333 373.355 6.824C373.953 7.31467 374.273 7.98667 374.315 8.84H372.859C372.827 8.38133 372.641 8.01333 372.299 7.736C371.969 7.45867 371.521 7.32 370.955 7.32C370.433 7.32 370.017 7.432 369.707 7.656C369.398 7.88 369.243 8.17333 369.243 8.536C369.243 8.824 369.334 9.064 369.515 9.256C369.707 9.43733 369.942 9.58667 370.219 9.704C370.507 9.81067 370.902 9.93333 371.403 10.072C372.033 10.2427 372.545 10.4133 372.939 10.584C373.334 10.744 373.67 10.9893 373.947 11.32C374.235 11.6507 374.385 12.0827 374.395 12.616C374.395 13.096 374.262 13.528 373.995 13.912C373.729 14.296 373.35 14.6 372.859 14.824C372.379 15.0373 371.825 15.144 371.195 15.144ZM378.227 7.432V12.6C378.227 13.0267 378.317 13.3307 378.499 13.512C378.68 13.6827 378.995 13.768 379.443 13.768H380.515V15H379.203C378.392 15 377.784 14.8133 377.379 14.44C376.973 14.0667 376.771 13.4533 376.771 12.6V7.432H375.635V6.232H376.771V4.024H378.227V6.232H380.515V7.432H378.227ZM386.103 15.144C385.282 15.144 384.535 14.9573 383.863 14.584C383.202 14.2107 382.679 13.6827 382.295 13C381.922 12.3067 381.735 11.5067 381.735 10.6C381.735 9.704 381.927 8.91467 382.311 8.232C382.706 7.53867 383.239 7.01067 383.911 6.648C384.583 6.27467 385.335 6.088 386.167 6.088C386.999 6.088 387.751 6.27467 388.423 6.648C389.095 7.01067 389.623 7.53333 390.007 8.216C390.402 8.89867 390.599 9.69333 390.599 10.6C390.599 11.5067 390.396 12.3067 389.991 13C389.596 13.6827 389.058 14.2107 388.375 14.584C387.692 14.9573 386.935 15.144 386.103 15.144ZM386.103 13.864C386.626 13.864 387.116 13.7413 387.575 13.496C388.034 13.2507 388.402 12.8827 388.679 12.392C388.967 11.9013 389.111 11.304 389.111 10.6C389.111 9.896 388.972 9.29867 388.695 8.808C388.418 8.31733 388.055 7.95467 387.607 7.72C387.159 7.47467 386.674 7.352 386.151 7.352C385.618 7.352 385.127 7.47467 384.679 7.72C384.242 7.95467 383.89 8.31733 383.623 8.808C383.356 9.29867 383.223 9.896 383.223 10.6C383.223 11.3147 383.351 11.9173 383.607 12.408C383.874 12.8987 384.226 13.2667 384.663 13.512C385.1 13.7467 385.58 13.864 386.103 13.864ZM393.969 7.656C394.225 7.15467 394.588 6.76533 395.057 6.488C395.537 6.21067 396.119 6.072 396.801 6.072V7.576H396.417C394.785 7.576 393.969 8.46133 393.969 10.232V15H392.513V6.232H393.969V7.656ZM406.482 10.28C406.482 10.5573 406.466 10.8507 406.434 11.16H399.426C399.479 12.024 399.773 12.7013 400.306 13.192C400.85 13.672 401.506 13.912 402.274 13.912C402.903 13.912 403.426 13.768 403.842 13.48C404.269 13.1813 404.567 12.7867 404.738 12.296H406.306C406.071 13.1387 405.602 13.8267 404.898 14.36C404.194 14.8827 403.319 15.144 402.274 15.144C401.442 15.144 400.695 14.9573 400.034 14.584C399.383 14.2107 398.871 13.6827 398.498 13C398.125 12.3067 397.938 11.5067 397.938 10.6C397.938 9.69333 398.119 8.89867 398.482 8.216C398.845 7.53333 399.351 7.01067 400.002 6.648C400.663 6.27467 401.421 6.088 402.274 6.088C403.106 6.088 403.842 6.26933 404.482 6.632C405.122 6.99467 405.613 7.496 405.954 8.136C406.306 8.76533 406.482 9.48 406.482 10.28ZM404.978 9.976C404.978 9.42133 404.855 8.94667 404.61 8.552C404.365 8.14667 404.029 7.84267 403.602 7.64C403.186 7.42667 402.722 7.32 402.21 7.32C401.474 7.32 400.845 7.55467 400.322 8.024C399.81 8.49333 399.517 9.144 399.442 9.976H404.978ZM407.86 10.584C407.86 9.688 408.041 8.904 408.404 8.232C408.767 7.54933 409.263 7.02133 409.892 6.648C410.532 6.27467 411.247 6.088 412.036 6.088C412.719 6.088 413.353 6.248 413.94 6.568C414.527 6.87733 414.975 7.288 415.284 7.8V3.16H416.756V15H415.284V13.352C414.996 13.8747 414.569 14.3067 414.004 14.648C413.439 14.9787 412.777 15.144 412.02 15.144C411.241 15.144 410.532 14.952 409.892 14.568C409.263 14.184 408.767 13.6453 408.404 12.952C408.041 12.2587 407.86 11.4693 407.86 10.584ZM415.284 10.6C415.284 9.93867 415.151 9.36267 414.884 8.872C414.617 8.38133 414.255 8.008 413.796 7.752C413.348 7.48533 412.852 7.352 412.308 7.352C411.764 7.352 411.268 7.48 410.82 7.736C410.372 7.992 410.015 8.36533 409.748 8.856C409.481 9.34667 409.348 9.92267 409.348 10.584C409.348 11.256 409.481 11.8427 409.748 12.344C410.015 12.8347 410.372 13.2133 410.82 13.48C411.268 13.736 411.764 13.864 412.308 13.864C412.852 13.864 413.348 13.736 413.796 13.48C414.255 13.2133 414.617 12.8347 414.884 12.344C415.151 11.8427 415.284 11.2613 415.284 10.6ZM426.586 15.144C425.914 15.144 425.311 15.032 424.778 14.808C424.245 14.5733 423.823 14.2533 423.514 13.848C423.205 13.432 423.034 12.9573 423.002 12.424H424.506C424.549 12.8613 424.751 13.2187 425.114 13.496C425.487 13.7733 425.973 13.912 426.57 13.912C427.125 13.912 427.562 13.7893 427.882 13.544C428.202 13.2987 428.362 12.9893 428.362 12.616C428.362 12.232 428.191 11.9493 427.85 11.768C427.509 11.576 426.981 11.3893 426.266 11.208C425.615 11.0373 425.082 10.8667 424.666 10.696C424.261 10.5147 423.909 10.2533 423.61 9.912C423.322 9.56 423.178 9.10133 423.178 8.536C423.178 8.088 423.311 7.67733 423.578 7.304C423.845 6.93067 424.223 6.63733 424.714 6.424C425.205 6.2 425.765 6.088 426.394 6.088C427.365 6.088 428.149 6.33333 428.746 6.824C429.343 7.31467 429.663 7.98667 429.706 8.84H428.25C428.218 8.38133 428.031 8.01333 427.69 7.736C427.359 7.45867 426.911 7.32 426.346 7.32C425.823 7.32 425.407 7.432 425.098 7.656C424.789 7.88 424.634 8.17333 424.634 8.536C424.634 8.824 424.725 9.064 424.906 9.256C425.098 9.43733 425.333 9.58667 425.61 9.704C425.898 9.81067 426.293 9.93333 426.794 10.072C427.423 10.2427 427.935 10.4133 428.33 10.584C428.725 10.744 429.061 10.9893 429.338 11.32C429.626 11.6507 429.775 12.0827 429.786 12.616C429.786 13.096 429.653 13.528 429.386 13.912C429.119 14.296 428.741 14.6 428.25 14.824C427.77 15.0373 427.215 15.144 426.586 15.144ZM439.841 10.28C439.841 10.5573 439.825 10.8507 439.793 11.16H432.785C432.839 12.024 433.132 12.7013 433.665 13.192C434.209 13.672 434.865 13.912 435.633 13.912C436.263 13.912 436.785 13.768 437.201 13.48C437.628 13.1813 437.927 12.7867 438.097 12.296H439.665C439.431 13.1387 438.961 13.8267 438.257 14.36C437.553 14.8827 436.679 15.144 435.633 15.144C434.801 15.144 434.055 14.9573 433.393 14.584C432.743 14.2107 432.231 13.6827 431.857 13C431.484 12.3067 431.297 11.5067 431.297 10.6C431.297 9.69333 431.479 8.89867 431.841 8.216C432.204 7.53333 432.711 7.01067 433.361 6.648C434.023 6.27467 434.78 6.088 435.633 6.088C436.465 6.088 437.201 6.26933 437.841 6.632C438.481 6.99467 438.972 7.496 439.313 8.136C439.665 8.76533 439.841 9.48 439.841 10.28ZM438.337 9.976C438.337 9.42133 438.215 8.94667 437.969 8.552C437.724 8.14667 437.388 7.84267 436.961 7.64C436.545 7.42667 436.081 7.32 435.569 7.32C434.833 7.32 434.204 7.55467 433.681 8.024C433.169 8.49333 432.876 9.144 432.801 9.976H438.337ZM441.219 10.6C441.219 9.69333 441.401 8.904 441.763 8.232C442.126 7.54933 442.627 7.02133 443.267 6.648C443.918 6.27467 444.659 6.088 445.491 6.088C446.569 6.088 447.454 6.34933 448.147 6.872C448.851 7.39467 449.315 8.12 449.539 9.048H447.971C447.822 8.51467 447.529 8.09333 447.091 7.784C446.665 7.47467 446.131 7.32 445.491 7.32C444.659 7.32 443.987 7.608 443.475 8.184C442.963 8.74933 442.707 9.55467 442.707 10.6C442.707 11.656 442.963 12.472 443.475 13.048C443.987 13.624 444.659 13.912 445.491 13.912C446.131 13.912 446.665 13.7627 447.091 13.464C447.518 13.1653 447.811 12.7387 447.971 12.184H449.539C449.305 13.08 448.835 13.8 448.131 14.344C447.427 14.8773 446.547 15.144 445.491 15.144C444.659 15.144 443.918 14.9573 443.267 14.584C442.627 14.2107 442.126 13.6827 441.763 13C441.401 12.3173 441.219 11.5173 441.219 10.6ZM459.258 6.232V15H457.802V13.704C457.525 14.152 457.135 14.504 456.634 14.76C456.143 15.0053 455.599 15.128 455.002 15.128C454.319 15.128 453.706 14.9893 453.162 14.712C452.618 14.424 452.186 13.9973 451.866 13.432C451.557 12.8667 451.402 12.1787 451.402 11.368V6.232H452.842V11.176C452.842 12.04 453.061 12.7067 453.498 13.176C453.935 13.6347 454.533 13.864 455.29 13.864C456.069 13.864 456.682 13.624 457.13 13.144C457.578 12.664 457.802 11.9653 457.802 11.048V6.232H459.258ZM463.172 7.656C463.428 7.15467 463.791 6.76533 464.26 6.488C464.74 6.21067 465.322 6.072 466.004 6.072V7.576H465.62C463.988 7.576 463.172 8.46133 463.172 10.232V15H461.716V6.232H463.172V7.656ZM475.685 10.28C475.685 10.5573 475.669 10.8507 475.637 11.16H468.629C468.682 12.024 468.976 12.7013 469.509 13.192C470.053 13.672 470.709 13.912 471.477 13.912C472.106 13.912 472.629 13.768 473.045 13.48C473.472 13.1813 473.77 12.7867 473.941 12.296H475.509C475.274 13.1387 474.805 13.8267 474.101 14.36C473.397 14.8827 472.522 15.144 471.477 15.144C470.645 15.144 469.898 14.9573 469.237 14.584C468.586 14.2107 468.074 13.6827 467.701 13C467.328 12.3067 467.141 11.5067 467.141 10.6C467.141 9.69333 467.322 8.89867 467.685 8.216C468.048 7.53333 468.554 7.01067 469.205 6.648C469.866 6.27467 470.624 6.088 471.477 6.088C472.309 6.088 473.045 6.26933 473.685 6.632C474.325 6.99467 474.816 7.496 475.157 8.136C475.509 8.76533 475.685 9.48 475.685 10.28ZM474.181 9.976C474.181 9.42133 474.058 8.94667 473.813 8.552C473.568 8.14667 473.232 7.84267 472.805 7.64C472.389 7.42667 471.925 7.32 471.413 7.32C470.677 7.32 470.048 7.55467 469.525 8.024C469.013 8.49333 468.72 9.144 468.645 9.976H474.181ZM479.063 3.16V15H477.607V3.16H479.063ZM489.097 6.232L483.817 19.128H482.312L484.041 14.904L480.505 6.232H482.121L484.873 13.336L487.593 6.232H489.097ZM498.65 15.144C497.828 15.144 497.082 14.9573 496.41 14.584C495.748 14.2107 495.226 13.6827 494.842 13C494.468 12.3067 494.282 11.5067 494.282 10.6C494.282 9.704 494.474 8.91467 494.858 8.232C495.252 7.53867 495.786 7.01067 496.458 6.648C497.13 6.27467 497.882 6.088 498.714 6.088C499.546 6.088 500.298 6.27467 500.97 6.648C501.642 7.01067 502.17 7.53333 502.554 8.216C502.948 8.89867 503.146 9.69333 503.146 10.6C503.146 11.5067 502.943 12.3067 502.538 13C502.143 13.6827 501.604 14.2107 500.922 14.584C500.239 14.9573 499.482 15.144 498.65 15.144ZM498.65 13.864C499.172 13.864 499.663 13.7413 500.122 13.496C500.58 13.2507 500.948 12.8827 501.226 12.392C501.514 11.9013 501.658 11.304 501.658 10.6C501.658 9.896 501.519 9.29867 501.242 8.808C500.964 8.31733 500.602 7.95467 500.154 7.72C499.706 7.47467 499.22 7.352 498.698 7.352C498.164 7.352 497.674 7.47467 497.226 7.72C496.788 7.95467 496.436 8.31733 496.17 8.808C495.903 9.29867 495.77 9.896 495.77 10.6C495.77 11.3147 495.898 11.9173 496.154 12.408C496.42 12.8987 496.772 13.2667 497.21 13.512C497.647 13.7467 498.127 13.864 498.65 13.864ZM509.332 6.072C510.399 6.072 511.263 6.39733 511.924 7.048C512.585 7.688 512.916 8.616 512.916 9.832V15H511.476V10.04C511.476 9.16533 511.257 8.49867 510.82 8.04C510.383 7.57067 509.785 7.336 509.028 7.336C508.26 7.336 507.647 7.576 507.188 8.056C506.74 8.536 506.516 9.23467 506.516 10.152V15H505.06V6.232H506.516V7.48C506.804 7.032 507.193 6.68533 507.684 6.44C508.185 6.19467 508.735 6.072 509.332 6.072ZM527.112 6.232L521.832 19.128H520.328L522.056 14.904L518.52 6.232H520.136L522.888 13.336L525.608 6.232H527.112ZM532.4 15.144C531.578 15.144 530.832 14.9573 530.16 14.584C529.498 14.2107 528.976 13.6827 528.592 13C528.218 12.3067 528.032 11.5067 528.032 10.6C528.032 9.704 528.224 8.91467 528.608 8.232C529.002 7.53867 529.536 7.01067 530.208 6.648C530.88 6.27467 531.632 6.088 532.464 6.088C533.296 6.088 534.048 6.27467 534.72 6.648C535.392 7.01067 535.92 7.53333 536.304 8.216C536.698 8.89867 536.896 9.69333 536.896 10.6C536.896 11.5067 536.693 12.3067 536.288 13C535.893 13.6827 535.354 14.2107 534.672 14.584C533.989 14.9573 533.232 15.144 532.4 15.144ZM532.4 13.864C532.922 13.864 533.413 13.7413 533.872 13.496C534.33 13.2507 534.698 12.8827 534.976 12.392C535.264 11.9013 535.408 11.304 535.408 10.6C535.408 9.896 535.269 9.29867 534.992 8.808C534.714 8.31733 534.352 7.95467 533.904 7.72C533.456 7.47467 532.97 7.352 532.448 7.352C531.914 7.352 531.424 7.47467 530.976 7.72C530.538 7.95467 530.186 8.31733 529.92 8.808C529.653 9.29867 529.52 9.896 529.52 10.6C529.52 11.3147 529.648 11.9173 529.904 12.408C530.17 12.8987 530.522 13.2667 530.96 13.512C531.397 13.7467 531.877 13.864 532.4 13.864ZM546.586 6.232V15H545.13V13.704C544.853 14.152 544.463 14.504 543.962 14.76C543.471 15.0053 542.927 15.128 542.33 15.128C541.647 15.128 541.034 14.9893 540.49 14.712C539.946 14.424 539.514 13.9973 539.194 13.432C538.885 12.8667 538.73 12.1787 538.73 11.368V6.232H540.17V11.176C540.17 12.04 540.389 12.7067 540.826 13.176C541.263 13.6347 541.861 13.864 542.618 13.864C543.397 13.864 544.01 13.624 544.458 13.144C544.906 12.664 545.13 11.9653 545.13 11.048V6.232H546.586ZM550.501 7.656C550.757 7.15467 551.119 6.76533 551.589 6.488C552.069 6.21067 552.65 6.072 553.333 6.072V7.576H552.949C551.317 7.576 550.501 8.46133 550.501 10.232V15H549.045V6.232H550.501V7.656ZM558.735 10.584C558.735 9.688 558.916 8.904 559.279 8.232C559.642 7.54933 560.138 7.02133 560.767 6.648C561.407 6.27467 562.122 6.088 562.911 6.088C563.594 6.088 564.228 6.248 564.815 6.568C565.402 6.87733 565.85 7.288 566.159 7.8V3.16H567.631V15H566.159V13.352C565.871 13.8747 565.444 14.3067 564.879 14.648C564.314 14.9787 563.652 15.144 562.895 15.144C562.116 15.144 561.407 14.952 560.767 14.568C560.138 14.184 559.642 13.6453 559.279 12.952C558.916 12.2587 558.735 11.4693 558.735 10.584ZM566.159 10.6C566.159 9.93867 566.026 9.36267 565.759 8.872C565.492 8.38133 565.13 8.008 564.671 7.752C564.223 7.48533 563.727 7.352 563.183 7.352C562.639 7.352 562.143 7.48 561.695 7.736C561.247 7.992 560.89 8.36533 560.623 8.856C560.356 9.34667 560.223 9.92267 560.223 10.584C560.223 11.256 560.356 11.8427 560.623 12.344C560.89 12.8347 561.247 13.2133 561.695 13.48C562.143 13.736 562.639 13.864 563.183 13.864C563.727 13.864 564.223 13.736 564.671 13.48C565.13 13.2133 565.492 12.8347 565.759 12.344C566.026 11.8427 566.159 11.2613 566.159 10.6ZM578.091 10.28C578.091 10.5573 578.075 10.8507 578.043 11.16H571.035C571.089 12.024 571.382 12.7013 571.915 13.192C572.459 13.672 573.115 13.912 573.883 13.912C574.513 13.912 575.035 13.768 575.451 13.48C575.878 13.1813 576.177 12.7867 576.347 12.296H577.915C577.681 13.1387 577.211 13.8267 576.507 14.36C575.803 14.8827 574.929 15.144 573.883 15.144C573.051 15.144 572.305 14.9573 571.643 14.584C570.993 14.2107 570.481 13.6827 570.107 13C569.734 12.3067 569.547 11.5067 569.547 10.6C569.547 9.69333 569.729 8.89867 570.091 8.216C570.454 7.53333 570.961 7.01067 571.611 6.648C572.273 6.27467 573.03 6.088 573.883 6.088C574.715 6.088 575.451 6.26933 576.091 6.632C576.731 6.99467 577.222 7.496 577.563 8.136C577.915 8.76533 578.091 9.48 578.091 10.28ZM576.587 9.976C576.587 9.42133 576.465 8.94667 576.219 8.552C575.974 8.14667 575.638 7.84267 575.211 7.64C574.795 7.42667 574.331 7.32 573.819 7.32C573.083 7.32 572.454 7.55467 571.931 8.024C571.419 8.49333 571.126 9.144 571.051 9.976H576.587ZM583.277 13.656L585.997 6.232H587.549L584.109 15H582.413L578.973 6.232H580.541L583.277 13.656ZM589.734 4.808C589.457 4.808 589.222 4.712 589.03 4.52C588.838 4.328 588.742 4.09333 588.742 3.816C588.742 3.53867 588.838 3.304 589.03 3.112C589.222 2.92 589.457 2.824 589.734 2.824C590.001 2.824 590.225 2.92 590.406 3.112C590.598 3.304 590.694 3.53867 590.694 3.816C590.694 4.09333 590.598 4.328 590.406 4.52C590.225 4.712 590.001 4.808 589.734 4.808ZM590.438 6.232V15H588.982V6.232H590.438ZM592.376 10.6C592.376 9.69333 592.557 8.904 592.92 8.232C593.282 7.54933 593.784 7.02133 594.424 6.648C595.074 6.27467 595.816 6.088 596.648 6.088C597.725 6.088 598.61 6.34933 599.304 6.872C600.008 7.39467 600.472 8.12 600.696 9.048H599.128C598.978 8.51467 598.685 8.09333 598.248 7.784C597.821 7.47467 597.288 7.32 596.648 7.32C595.816 7.32 595.144 7.608 594.632 8.184C594.12 8.74933 593.864 9.55467 593.864 10.6C593.864 11.656 594.12 12.472 594.632 13.048C595.144 13.624 595.816 13.912 596.648 13.912C597.288 13.912 597.821 13.7627 598.248 13.464C598.674 13.1653 598.968 12.7387 599.128 12.184H600.696C600.461 13.08 599.992 13.8 599.288 14.344C598.584 14.8773 597.704 15.144 596.648 15.144C595.816 15.144 595.074 14.9573 594.424 14.584C593.784 14.2107 593.282 13.6827 592.92 13C592.557 12.3173 592.376 11.5173 592.376 10.6ZM610.638 10.28C610.638 10.5573 610.622 10.8507 610.59 11.16H603.582C603.636 12.024 603.929 12.7013 604.462 13.192C605.006 13.672 605.662 13.912 606.43 13.912C607.06 13.912 607.582 13.768 607.998 13.48C608.425 13.1813 608.724 12.7867 608.894 12.296H610.462C610.228 13.1387 609.758 13.8267 609.054 14.36C608.35 14.8827 607.476 15.144 606.43 15.144C605.598 15.144 604.852 14.9573 604.19 14.584C603.54 14.2107 603.028 13.6827 602.654 13C602.281 12.3067 602.094 11.5067 602.094 10.6C602.094 9.69333 602.276 8.89867 602.638 8.216C603.001 7.53333 603.508 7.01067 604.158 6.648C604.82 6.27467 605.577 6.088 606.43 6.088C607.262 6.088 607.998 6.26933 608.638 6.632C609.278 6.99467 609.769 7.496 610.11 8.136C610.462 8.76533 610.638 9.48 610.638 10.28ZM609.134 9.976C609.134 9.42133 609.012 8.94667 608.766 8.552C608.521 8.14667 608.185 7.84267 607.758 7.64C607.342 7.42667 606.878 7.32 606.366 7.32C605.63 7.32 605.001 7.55467 604.478 8.024C603.966 8.49333 603.673 9.144 603.598 9.976H609.134ZM614.064 12.984L612.272 17.288H611.296L612.464 12.984H614.064ZM624.27 6.072C625.336 6.072 626.2 6.39733 626.862 7.048C627.523 7.688 627.854 8.616 627.854 9.832V15H626.414V10.04C626.414 9.16533 626.195 8.49867 625.758 8.04C625.32 7.57067 624.723 7.336 623.966 7.336C623.198 7.336 622.584 7.576 622.126 8.056C621.678 8.536 621.454 9.23467 621.454 10.152V15H619.998V6.232H621.454V7.48C621.742 7.032 622.131 6.68533 622.622 6.44C623.123 6.19467 623.672 6.072 624.27 6.072ZM638.232 10.28C638.232 10.5573 638.216 10.8507 638.184 11.16H631.176C631.229 12.024 631.523 12.7013 632.056 13.192C632.6 13.672 633.256 13.912 634.024 13.912C634.653 13.912 635.176 13.768 635.592 13.48C636.019 13.1813 636.317 12.7867 636.488 12.296H638.056C637.821 13.1387 637.352 13.8267 636.648 14.36C635.944 14.8827 635.069 15.144 634.024 15.144C633.192 15.144 632.445 14.9573 631.784 14.584C631.133 14.2107 630.621 13.6827 630.248 13C629.875 12.3067 629.688 11.5067 629.688 10.6C629.688 9.69333 629.869 8.89867 630.232 8.216C630.595 7.53333 631.101 7.01067 631.752 6.648C632.413 6.27467 633.171 6.088 634.024 6.088C634.856 6.088 635.592 6.26933 636.232 6.632C636.872 6.99467 637.363 7.496 637.704 8.136C638.056 8.76533 638.232 9.48 638.232 10.28ZM636.728 9.976C636.728 9.42133 636.605 8.94667 636.36 8.552C636.115 8.14667 635.779 7.84267 635.352 7.64C634.936 7.42667 634.472 7.32 633.96 7.32C633.224 7.32 632.595 7.55467 632.072 8.024C631.56 8.49333 631.267 9.144 631.192 9.976H636.728ZM643.418 13.656L646.138 6.232H647.69L644.25 15H642.554L639.114 6.232H640.682L643.418 13.656ZM657.123 10.28C657.123 10.5573 657.107 10.8507 657.075 11.16H650.067C650.12 12.024 650.413 12.7013 650.947 13.192C651.491 13.672 652.147 13.912 652.915 13.912C653.544 13.912 654.067 13.768 654.483 13.48C654.909 13.1813 655.208 12.7867 655.379 12.296H656.947C656.712 13.1387 656.243 13.8267 655.539 14.36C654.835 14.8827 653.96 15.144 652.915 15.144C652.083 15.144 651.336 14.9573 650.675 14.584C650.024 14.2107 649.512 13.6827 649.139 13C648.765 12.3067 648.579 11.5067 648.579 10.6C648.579 9.69333 648.76 8.89867 649.123 8.216C649.485 7.53333 649.992 7.01067 650.643 6.648C651.304 6.27467 652.061 6.088 652.915 6.088C653.747 6.088 654.483 6.26933 655.123 6.632C655.763 6.99467 656.253 7.496 656.595 8.136C656.947 8.76533 657.123 9.48 657.123 10.28ZM655.619 9.976C655.619 9.42133 655.496 8.94667 655.251 8.552C655.005 8.14667 654.669 7.84267 654.243 7.64C653.827 7.42667 653.363 7.32 652.851 7.32C652.115 7.32 651.485 7.55467 650.963 8.024C650.451 8.49333 650.157 9.144 650.083 9.976H655.619ZM660.501 7.656C660.757 7.15467 661.119 6.76533 661.589 6.488C662.069 6.21067 662.65 6.072 663.333 6.072V7.576H662.949C661.317 7.576 660.501 8.46133 660.501 10.232V15H659.045V6.232H660.501V7.656ZM4.336 39.144C3.664 39.144 3.06133 39.032 2.528 38.808C1.99467 38.5733 1.57333 38.2533 1.264 37.848C0.954667 37.432 0.784 36.9573 0.752 36.424H2.256C2.29867 36.8613 2.50133 37.2187 2.864 37.496C3.23733 37.7733 3.72267 37.912 4.32 37.912C4.87467 37.912 5.312 37.7893 5.632 37.544C5.952 37.2987 6.112 36.9893 6.112 36.616C6.112 36.232 5.94133 35.9493 5.6 35.768C5.25867 35.576 4.73067 35.3893 4.016 35.208C3.36533 35.0373 2.832 34.8667 2.416 34.696C2.01067 34.5147 1.65867 34.2533 1.36 33.912C1.072 33.56 0.928 33.1013 0.928 32.536C0.928 32.088 1.06133 31.6773 1.328 31.304C1.59467 30.9307 1.97333 30.6373 2.464 30.424C2.95467 30.2 3.51467 30.088 4.144 30.088C5.11467 30.088 5.89867 30.3333 6.496 30.824C7.09333 31.3147 7.41333 31.9867 7.456 32.84H6C5.968 32.3813 5.78133 32.0133 5.44 31.736C5.10933 31.4587 4.66133 31.32 4.096 31.32C3.57333 31.32 3.15733 31.432 2.848 31.656C2.53867 31.88 2.384 32.1733 2.384 32.536C2.384 32.824 2.47467 33.064 2.656 33.256C2.848 33.4373 3.08267 33.5867 3.36 33.704C3.648 33.8107 4.04267 33.9333 4.544 34.072C5.17333 34.2427 5.68533 34.4133 6.08 34.584C6.47467 34.744 6.81067 34.9893 7.088 35.32C7.376 35.6507 7.52533 36.0827 7.536 36.616C7.536 37.096 7.40267 37.528 7.136 37.912C6.86933 38.296 6.49067 38.6 6 38.824C5.52 39.0373 4.96533 39.144 4.336 39.144ZM13.9434 30.072C14.6047 30.072 15.202 30.216 15.7354 30.504C16.2687 30.7813 16.6847 31.2027 16.9834 31.768C17.2927 32.3333 17.4474 33.0213 17.4474 33.832V39H16.0074V34.04C16.0074 33.1653 15.7887 32.4987 15.3514 32.04C14.914 31.5707 14.3167 31.336 13.5594 31.336C12.7914 31.336 12.178 31.576 11.7194 32.056C11.2714 32.536 11.0474 33.2347 11.0474 34.152V39H9.59138V27.16H11.0474V31.48C11.3354 31.032 11.73 30.6853 12.2314 30.44C12.7434 30.1947 13.314 30.072 13.9434 30.072ZM19.2818 34.584C19.2818 33.688 19.4631 32.904 19.8258 32.232C20.1884 31.5493 20.6844 31.0213 21.3138 30.648C21.9538 30.2747 22.6631 30.088 23.4418 30.088C24.2098 30.088 24.8764 30.2533 25.4418 30.584C26.0071 30.9147 26.4284 31.3307 26.7058 31.832V30.232H28.1778V39H26.7058V37.368C26.4178 37.88 25.9858 38.3067 25.4098 38.648C24.8444 38.9787 24.1831 39.144 23.4258 39.144C22.6471 39.144 21.9431 38.952 21.3138 38.568C20.6844 38.184 20.1884 37.6453 19.8258 36.952C19.4631 36.2587 19.2818 35.4693 19.2818 34.584ZM26.7058 34.6C26.7058 33.9387 26.5724 33.3627 26.3058 32.872C26.0391 32.3813 25.6764 32.008 25.2178 31.752C24.7698 31.4853 24.2738 31.352 23.7298 31.352C23.1858 31.352 22.6898 31.48 22.2418 31.736C21.7938 31.992 21.4364 32.3653 21.1698 32.856C20.9031 33.3467 20.7698 33.9227 20.7698 34.584C20.7698 35.256 20.9031 35.8427 21.1698 36.344C21.4364 36.8347 21.7938 37.2133 22.2418 37.48C22.6898 37.736 23.1858 37.864 23.7298 37.864C24.2738 37.864 24.7698 37.736 25.2178 37.48C25.6764 37.2133 26.0391 36.8347 26.3058 36.344C26.5724 35.8427 26.7058 35.2613 26.7058 34.6ZM32.0943 31.656C32.3503 31.1547 32.7129 30.7653 33.1823 30.488C33.6623 30.2107 34.2436 30.072 34.9263 30.072V31.576H34.5423C32.9103 31.576 32.0943 32.4613 32.0943 34.232V39H30.6383V30.232H32.0943V31.656ZM44.607 34.28C44.607 34.5573 44.591 34.8507 44.559 35.16H37.551C37.6043 36.024 37.8977 36.7013 38.431 37.192C38.975 37.672 39.631 37.912 40.399 37.912C41.0283 37.912 41.551 37.768 41.967 37.48C42.3937 37.1813 42.6923 36.7867 42.863 36.296H44.431C44.1963 37.1387 43.727 37.8267 43.023 38.36C42.319 38.8827 41.4443 39.144 40.399 39.144C39.567 39.144 38.8203 38.9573 38.159 38.584C37.5083 38.2107 36.9963 37.6827 36.623 37C36.2497 36.3067 36.063 35.5067 36.063 34.6C36.063 33.6933 36.2443 32.8987 36.607 32.216C36.9697 31.5333 37.4763 31.0107 38.127 30.648C38.7883 30.2747 39.5457 30.088 40.399 30.088C41.231 30.088 41.967 30.2693 42.607 30.632C43.247 30.9947 43.7377 31.496 44.079 32.136C44.431 32.7653 44.607 33.48 44.607 34.28ZM43.103 33.976C43.103 33.4213 42.9803 32.9467 42.735 32.552C42.4897 32.1467 42.1537 31.8427 41.727 31.64C41.311 31.4267 40.847 31.32 40.335 31.32C39.599 31.32 38.9697 31.5547 38.447 32.024C37.935 32.4933 37.6417 33.144 37.567 33.976H43.103ZM45.9849 34.584C45.9849 33.688 46.1662 32.904 46.5289 32.232C46.8915 31.5493 47.3875 31.0213 48.0169 30.648C48.6569 30.2747 49.3715 30.088 50.1609 30.088C50.8435 30.088 51.4782 30.248 52.0649 30.568C52.6515 30.8773 53.0995 31.288 53.4089 31.8V27.16H54.8809V39H53.4089V37.352C53.1209 37.8747 52.6942 38.3067 52.1289 38.648C51.5635 38.9787 50.9022 39.144 50.1449 39.144C49.3662 39.144 48.6569 38.952 48.0169 38.568C47.3875 38.184 46.8915 37.6453 46.5289 36.952C46.1662 36.2587 45.9849 35.4693 45.9849 34.584ZM53.4089 34.6C53.4089 33.9387 53.2755 33.3627 53.0089 32.872C52.7422 32.3813 52.3795 32.008 51.9209 31.752C51.4729 31.4853 50.9769 31.352 50.4329 31.352C49.8889 31.352 49.3929 31.48 48.9449 31.736C48.4969 31.992 48.1395 32.3653 47.8729 32.856C47.6062 33.3467 47.4729 33.9227 47.4729 34.584C47.4729 35.256 47.6062 35.8427 47.8729 36.344C48.1395 36.8347 48.4969 37.2133 48.9449 37.48C49.3929 37.736 49.8889 37.864 50.4329 37.864C50.9769 37.864 51.4729 37.736 51.9209 37.48C52.3795 37.2133 52.7422 36.8347 53.0089 36.344C53.2755 35.8427 53.4089 35.2613 53.4089 34.6ZM65.431 39.144C64.6097 39.144 63.863 38.9573 63.191 38.584C62.5297 38.2107 62.007 37.6827 61.623 37C61.2497 36.3067 61.063 35.5067 61.063 34.6C61.063 33.704 61.255 32.9147 61.639 32.232C62.0337 31.5387 62.567 31.0107 63.239 30.648C63.911 30.2747 64.663 30.088 65.495 30.088C66.327 30.088 67.079 30.2747 67.751 30.648C68.423 31.0107 68.951 31.5333 69.335 32.216C69.7297 32.8987 69.927 33.6933 69.927 34.6C69.927 35.5067 69.7243 36.3067 69.319 37C68.9243 37.6827 68.3857 38.2107 67.703 38.584C67.0203 38.9573 66.263 39.144 65.431 39.144ZM65.431 37.864C65.9537 37.864 66.4443 37.7413 66.903 37.496C67.3617 37.2507 67.7297 36.8827 68.007 36.392C68.295 35.9013 68.439 35.304 68.439 34.6C68.439 33.896 68.3003 33.2987 68.023 32.808C67.7457 32.3173 67.383 31.9547 66.935 31.72C66.487 31.4747 66.0017 31.352 65.479 31.352C64.9457 31.352 64.455 31.4747 64.007 31.72C63.5697 31.9547 63.2177 32.3173 62.951 32.808C62.6843 33.2987 62.551 33.896 62.551 34.6C62.551 35.3147 62.679 35.9173 62.935 36.408C63.2017 36.8987 63.5537 37.2667 63.991 37.512C64.4283 37.7467 64.9083 37.864 65.431 37.864ZM73.2974 31.656C73.5534 31.1547 73.916 30.7653 74.3854 30.488C74.8654 30.2107 75.4467 30.072 76.1294 30.072V31.576H75.7454C74.1134 31.576 73.2974 32.4613 73.2974 34.232V39H71.8414V30.232H73.2974V31.656ZM90.0758 34.28C90.0758 34.5573 90.0598 34.8507 90.0278 35.16H83.0198C83.0731 36.024 83.3664 36.7013 83.8998 37.192C84.4438 37.672 85.0998 37.912 85.8678 37.912C86.4971 37.912 87.0198 37.768 87.4358 37.48C87.8624 37.1813 88.1611 36.7867 88.3318 36.296H89.8998C89.6651 37.1387 89.1958 37.8267 88.4918 38.36C87.7878 38.8827 86.9131 39.144 85.8678 39.144C85.0358 39.144 84.2891 38.9573 83.6278 38.584C82.9771 38.2107 82.4651 37.6827 82.0918 37C81.7184 36.3067 81.5318 35.5067 81.5318 34.6C81.5318 33.6933 81.7131 32.8987 82.0758 32.216C82.4384 31.5333 82.9451 31.0107 83.5958 30.648C84.2571 30.2747 85.0144 30.088 85.8678 30.088C86.6998 30.088 87.4358 30.2693 88.0758 30.632C88.7158 30.9947 89.2064 31.496 89.5478 32.136C89.8998 32.7653 90.0758 33.48 90.0758 34.28ZM88.5718 33.976C88.5718 33.4213 88.4491 32.9467 88.2038 32.552C87.9584 32.1467 87.6224 31.8427 87.1958 31.64C86.7798 31.4267 86.3158 31.32 85.8038 31.32C85.0678 31.32 84.4384 31.5547 83.9158 32.024C83.4038 32.4933 83.1104 33.144 83.0358 33.976H88.5718ZM96.5736 39L94.4936 35.736L92.4936 39H90.9736L93.8056 34.648L90.9736 30.232H92.6216L94.7016 33.48L96.6856 30.232H98.2056L95.3896 34.568L98.2216 39H96.5736ZM101.11 31.848C101.398 31.3467 101.825 30.9307 102.39 30.6C102.966 30.2587 103.633 30.088 104.39 30.088C105.169 30.088 105.873 30.2747 106.502 30.648C107.142 31.0213 107.643 31.5493 108.006 32.232C108.369 32.904 108.55 33.688 108.55 34.584C108.55 35.4693 108.369 36.2587 108.006 36.952C107.643 37.6453 107.142 38.184 106.502 38.568C105.873 38.952 105.169 39.144 104.39 39.144C103.643 39.144 102.982 38.9787 102.406 38.648C101.841 38.3067 101.409 37.8853 101.11 37.384V43.16H99.6539V30.232H101.11V31.848ZM107.062 34.584C107.062 33.9227 106.929 33.3467 106.662 32.856C106.395 32.3653 106.033 31.992 105.574 31.736C105.126 31.48 104.63 31.352 104.086 31.352C103.553 31.352 103.057 31.4853 102.598 31.752C102.15 32.008 101.787 32.3867 101.51 32.888C101.243 33.3787 101.11 33.9493 101.11 34.6C101.11 35.2613 101.243 35.8427 101.51 36.344C101.787 36.8347 102.15 37.2133 102.598 37.48C103.057 37.736 103.553 37.864 104.086 37.864C104.63 37.864 105.126 37.736 105.574 37.48C106.033 37.2133 106.395 36.8347 106.662 36.344C106.929 35.8427 107.062 35.256 107.062 34.584ZM114.29 39.144C113.469 39.144 112.722 38.9573 112.05 38.584C111.389 38.2107 110.866 37.6827 110.482 37C110.109 36.3067 109.922 35.5067 109.922 34.6C109.922 33.704 110.114 32.9147 110.498 32.232C110.893 31.5387 111.426 31.0107 112.098 30.648C112.77 30.2747 113.522 30.088 114.354 30.088C115.186 30.088 115.938 30.2747 116.61 30.648C117.282 31.0107 117.81 31.5333 118.194 32.216C118.589 32.8987 118.786 33.6933 118.786 34.6C118.786 35.5067 118.584 36.3067 118.178 37C117.784 37.6827 117.245 38.2107 116.562 38.584C115.88 38.9573 115.122 39.144 114.29 39.144ZM114.29 37.864C114.813 37.864 115.304 37.7413 115.762 37.496C116.221 37.2507 116.589 36.8827 116.866 36.392C117.154 35.9013 117.298 35.304 117.298 34.6C117.298 33.896 117.16 33.2987 116.882 32.808C116.605 32.3173 116.242 31.9547 115.794 31.72C115.346 31.4747 114.861 31.352 114.338 31.352C113.805 31.352 113.314 31.4747 112.866 31.72C112.429 31.9547 112.077 32.3173 111.81 32.808C111.544 33.2987 111.41 33.896 111.41 34.6C111.41 35.3147 111.538 35.9173 111.794 36.408C112.061 36.8987 112.413 37.2667 112.85 37.512C113.288 37.7467 113.768 37.864 114.29 37.864ZM123.805 39.144C123.133 39.144 122.53 39.032 121.997 38.808C121.463 38.5733 121.042 38.2533 120.733 37.848C120.423 37.432 120.253 36.9573 120.221 36.424H121.725C121.767 36.8613 121.97 37.2187 122.333 37.496C122.706 37.7733 123.191 37.912 123.789 37.912C124.343 37.912 124.781 37.7893 125.101 37.544C125.421 37.2987 125.581 36.9893 125.581 36.616C125.581 36.232 125.41 35.9493 125.069 35.768C124.727 35.576 124.199 35.3893 123.485 35.208C122.834 35.0373 122.301 34.8667 121.885 34.696C121.479 34.5147 121.127 34.2533 120.829 33.912C120.541 33.56 120.397 33.1013 120.397 32.536C120.397 32.088 120.53 31.6773 120.797 31.304C121.063 30.9307 121.442 30.6373 121.933 30.424C122.423 30.2 122.983 30.088 123.613 30.088C124.583 30.088 125.367 30.3333 125.965 30.824C126.562 31.3147 126.882 31.9867 126.925 32.84H125.469C125.437 32.3813 125.25 32.0133 124.909 31.736C124.578 31.4587 124.13 31.32 123.565 31.32C123.042 31.32 122.626 31.432 122.317 31.656C122.007 31.88 121.853 32.1733 121.853 32.536C121.853 32.824 121.943 33.064 122.125 33.256C122.317 33.4373 122.551 33.5867 122.829 33.704C123.117 33.8107 123.511 33.9333 124.013 34.072C124.642 34.2427 125.154 34.4133 125.549 34.584C125.943 34.744 126.279 34.9893 126.557 35.32C126.845 35.6507 126.994 36.0827 127.005 36.616C127.005 37.096 126.871 37.528 126.605 37.912C126.338 38.296 125.959 38.6 125.469 38.824C124.989 39.0373 124.434 39.144 123.805 39.144ZM137.06 34.28C137.06 34.5573 137.044 34.8507 137.012 35.16H130.004C130.057 36.024 130.351 36.7013 130.884 37.192C131.428 37.672 132.084 37.912 132.852 37.912C133.481 37.912 134.004 37.768 134.42 37.48C134.847 37.1813 135.145 36.7867 135.316 36.296H136.884C136.649 37.1387 136.18 37.8267 135.476 38.36C134.772 38.8827 133.897 39.144 132.852 39.144C132.02 39.144 131.273 38.9573 130.612 38.584C129.961 38.2107 129.449 37.6827 129.076 37C128.703 36.3067 128.516 35.5067 128.516 34.6C128.516 33.6933 128.697 32.8987 129.06 32.216C129.423 31.5333 129.929 31.0107 130.58 30.648C131.241 30.2747 131.999 30.088 132.852 30.088C133.684 30.088 134.42 30.2693 135.06 30.632C135.7 30.9947 136.191 31.496 136.532 32.136C136.884 32.7653 137.06 33.48 137.06 34.28ZM135.556 33.976C135.556 33.4213 135.433 32.9467 135.188 32.552C134.943 32.1467 134.607 31.8427 134.18 31.64C133.764 31.4267 133.3 31.32 132.788 31.32C132.052 31.32 131.423 31.5547 130.9 32.024C130.388 32.4933 130.095 33.144 130.02 33.976H135.556ZM138.438 34.584C138.438 33.688 138.619 32.904 138.982 32.232C139.345 31.5493 139.841 31.0213 140.47 30.648C141.11 30.2747 141.825 30.088 142.614 30.088C143.297 30.088 143.931 30.248 144.518 30.568C145.105 30.8773 145.553 31.288 145.862 31.8V27.16H147.334V39H145.862V37.352C145.574 37.8747 145.147 38.3067 144.582 38.648C144.017 38.9787 143.355 39.144 142.598 39.144C141.819 39.144 141.11 38.952 140.47 38.568C139.841 38.184 139.345 37.6453 138.982 36.952C138.619 36.2587 138.438 35.4693 138.438 34.584ZM145.862 34.6C145.862 33.9387 145.729 33.3627 145.462 32.872C145.195 32.3813 144.833 32.008 144.374 31.752C143.926 31.4853 143.43 31.352 142.886 31.352C142.342 31.352 141.846 31.48 141.398 31.736C140.95 31.992 140.593 32.3653 140.326 32.856C140.059 33.3467 139.926 33.9227 139.926 34.584C139.926 35.256 140.059 35.8427 140.326 36.344C140.593 36.8347 140.95 37.2133 141.398 37.48C141.846 37.736 142.342 37.864 142.886 37.864C143.43 37.864 143.926 37.736 144.374 37.48C144.833 37.2133 145.195 36.8347 145.462 36.344C145.729 35.8427 145.862 35.2613 145.862 34.6ZM150.259 39.096C149.981 39.096 149.747 39 149.555 38.808C149.363 38.616 149.267 38.3813 149.267 38.104C149.267 37.8267 149.363 37.592 149.555 37.4C149.747 37.208 149.981 37.112 150.259 37.112C150.525 37.112 150.749 37.208 150.931 37.4C151.123 37.592 151.219 37.8267 151.219 38.104C151.219 38.3813 151.123 38.616 150.931 38.808C150.749 39 150.525 39.096 150.259 39.096Z" fill="black"/>
</svg>
