<svg width="60" height="60" viewBox="0 0 60 60" fill="none" xmlns="http://www.w3.org/2000/svg">
<path d="M42.5 50C43.8261 50 45.0979 49.4732 46.0355 48.5355C46.9732 47.5979 47.5 46.3261 47.5 45C47.5 43.6739 46.9732 42.4021 46.0355 41.4645C45.0979 40.5268 43.8261 40 42.5 40C41.1739 40 39.9022 40.5268 38.9645 41.4645C38.0268 42.4021 37.5 43.6739 37.5 45C37.5 46.3261 38.0268 47.5979 38.9645 48.5355C39.9022 49.4732 41.1739 50 42.5 50ZM17.5 50C18.8261 50 20.0979 49.4732 21.0355 48.5355C21.9732 47.5979 22.5 46.3261 22.5 45C22.5 43.6739 21.9732 42.4021 21.0355 41.4645C20.0979 40.5268 18.8261 40 17.5 40C16.1739 40 14.9021 40.5268 13.9645 41.4645C13.0268 42.4021 12.5 43.6739 12.5 45C12.5 46.3261 13.0268 47.5979 13.9645 48.5355C14.9021 49.4732 16.1739 50 17.5 50Z" stroke="#130C76" stroke-width="2" stroke-linecap="round" stroke-linejoin="round"/>
<path d="M47.5 27.5H55M55 27.5V32.5C55 38.3925 55 41.3375 53.17 43.17C51.9525 44.3875 50.2425 44.795 47.5 44.93M55 27.5L51.81 21.575C50.085 18.37 49.2225 16.7675 47.74 15.885C46.26 15 44.4425 15 40.8025 15H36.25M12.5 44.93C9.7575 44.795 8.05 44.3875 6.83 43.17C5 41.3375 5 38.3925 5 32.5V22.5C5 16.6075 5 13.66 6.83 11.83C8.66 10 11.6075 10 17.5 10H25.75C28.5425 10 29.9375 10 31.0675 10.3675C32.1931 10.7333 33.2161 11.3602 34.053 12.1971C34.8898 13.0339 35.5167 14.0569 35.8825 15.1825C36.25 16.3125 36.25 17.7075 36.25 20.5C36.25 23.55 36.25 25.0775 35.415 26.11C35.25 26.3133 35.065 26.4983 34.86 26.665C33.8275 27.5 32.3025 27.5 29.25 27.5H20M37.5 45H22.5" stroke="#130C76" stroke-width="2" stroke-linecap="round" stroke-linejoin="round"/>
<path d="M25 32.5C25 32.5 23.32 31.11 21.8425 29.79C20.8 28.95 20 28.2325 20 27.5125C20 26.875 20.625 26.2825 21.64 25.3525C23.08 24.155 25 22.5 25 22.5" stroke="#130C76" stroke-width="2" stroke-linecap="round" stroke-linejoin="round"/>
</svg>
