<svg width="25" height="24" viewBox="0 0 25 24" fill="none" xmlns="http://www.w3.org/2000/svg">
<path d="M4.97656 4.87414H19.9766C20.1518 4.87409 20.3268 4.88521 20.5006 4.90742C20.4417 4.49388 20.2997 4.09655 20.083 3.73939C19.8664 3.38222 19.5797 3.07263 19.2402 2.82927C18.9007 2.58591 18.5154 2.41382 18.1076 2.32338C17.6998 2.23294 17.2779 2.22602 16.8673 2.30305L4.53125 4.40914H4.51719C3.74285 4.55722 3.05425 4.99533 2.59203 5.63399C3.2884 5.13867 4.122 4.87304 4.97656 4.87414ZM19.9766 5.99914H4.97656C4.18118 6.00001 3.41862 6.31636 2.8562 6.87878C2.29378 7.4412 1.97743 8.20376 1.97656 8.99914V17.9991C1.97743 18.7945 2.29378 19.5571 2.8562 20.1195C3.41862 20.6819 4.18118 20.9983 4.97656 20.9991H19.9766C20.7719 20.9983 21.5345 20.6819 22.0969 20.1195C22.6593 19.5571 22.9757 18.7945 22.9766 17.9991V8.99914C22.9757 8.20376 22.6593 7.4412 22.0969 6.87878C21.5345 6.31636 20.7719 6.00001 19.9766 5.99914ZM17.75 14.9991C17.4533 14.9991 17.1633 14.9112 16.9166 14.7463C16.67 14.5815 16.4777 14.3473 16.3642 14.0732C16.2506 13.7991 16.2209 13.4975 16.2788 13.2065C16.3367 12.9155 16.4796 12.6483 16.6893 12.4385C16.8991 12.2287 17.1664 12.0858 17.4574 12.028C17.7483 11.9701 18.0499 11.9998 18.324 12.1133C18.5981 12.2269 18.8324 12.4191 18.9972 12.6658C19.162 12.9125 19.25 13.2025 19.25 13.4991C19.25 13.897 19.092 14.2785 18.8107 14.5598C18.5294 14.8411 18.1478 14.9991 17.75 14.9991Z" fill="white"/>
<path d="M2 12.1641V7.5C2 6.48422 2.5625 4.78125 4.51484 4.41234C6.17188 4.10156 7.8125 4.10156 7.8125 4.10156C7.8125 4.10156 8.89062 4.85156 8 4.85156C7.10938 4.85156 7.13281 6 8 6C8.86719 6 8 7.10156 8 7.10156L4.50781 11.0625L2 12.1641Z" fill="white"/>
</svg>
