<svg width="18" height="19" viewBox="0 0 18 19" fill="none" xmlns="http://www.w3.org/2000/svg">
<path d="M9 16.25L7.9125 15.275C6.65 14.1375 5.60625 13.1562 4.78125 12.3312C3.95625 11.5062 3.3 10.7655 2.8125 10.109C2.325 9.45249 1.9845 8.84949 1.791 8.29999C1.5975 7.75049 1.5005 7.18799 1.5 6.61249C1.5 5.43749 1.89375 4.45624 2.68125 3.66874C3.46875 2.88124 4.45 2.48749 5.625 2.48749C6.275 2.48749 6.89375 2.62499 7.48125 2.89999C8.06875 3.17499 8.575 3.56249 9 4.06249C9.425 3.56249 9.93125 3.17499 10.5188 2.89999C11.1063 2.62499 11.725 2.48749 12.375 2.48749C13.55 2.48749 14.5313 2.88124 15.3188 3.66874C16.1063 4.45624 16.5 5.43749 16.5 6.61249C16.5 7.18749 16.4033 7.74999 16.2098 8.29999C16.0163 8.84999 15.6755 9.45299 15.1875 10.109C14.6995 10.765 14.0433 11.5057 13.2188 12.3312C12.3943 13.1567 11.3505 14.138 10.0875 15.275L9 16.25ZM9 14.225C10.2 13.15 11.1875 12.2282 11.9625 11.4597C12.7375 10.6912 13.35 10.0225 13.8 9.45349C14.25 8.88449 14.5625 8.37799 14.7375 7.93399C14.9125 7.48999 15 7.04949 15 6.61249C15 5.86249 14.75 5.23749 14.25 4.73749C13.75 4.23749 13.125 3.98749 12.375 3.98749C11.7875 3.98749 11.2438 4.15299 10.7438 4.48399C10.2438 4.81499 9.9 5.23699 9.7125 5.74999H8.2875C8.1 5.23749 7.75625 4.81574 7.25625 4.48474C6.75625 4.15374 6.2125 3.98799 5.625 3.98749C4.875 3.98749 4.25 4.23749 3.75 4.73749C3.25 5.23749 3 5.86249 3 6.61249C3 7.04999 3.0875 7.49074 3.2625 7.93474C3.4375 8.37874 3.75 8.88499 4.2 9.45349C4.65 10.022 5.2625 10.6907 6.0375 11.4597C6.8125 12.2287 7.8 13.1505 9 14.225Z" fill="black"/>
</svg>
