<svg width="30" height="30" viewBox="0 0 30 30" fill="none" xmlns="http://www.w3.org/2000/svg">
<path d="M27.4605 8.14688C27.3501 7.71486 27.1386 7.31529 26.8433 6.98114C26.5481 6.64698 26.1776 6.38781 25.7625 6.225C21.7453 4.67344 15.3516 4.6875 15 4.6875C14.6484 4.6875 8.25469 4.67344 4.2375 6.225C3.82238 6.38781 3.45192 6.64698 3.15667 6.98114C2.86143 7.31529 2.64987 7.71486 2.53945 8.14688C2.23594 9.31641 1.875 11.4539 1.875 15C1.875 18.5461 2.23594 20.6836 2.53945 21.8531C2.64971 22.2854 2.86119 22.6852 3.15644 23.0195C3.45169 23.3539 3.82224 23.6133 4.2375 23.7762C8.08594 25.2609 14.1094 25.3125 14.9227 25.3125H15.0773C15.8906 25.3125 21.9176 25.2609 25.7625 23.7762C26.1778 23.6133 26.5483 23.3539 26.8436 23.0195C27.1388 22.6852 27.3503 22.2854 27.4605 21.8531C27.7641 20.6813 28.125 18.5461 28.125 15C28.125 11.4539 27.7641 9.31641 27.4605 8.14688ZM18.8191 15.7641L14.1316 19.0453C13.9914 19.1435 13.827 19.2015 13.6562 19.2129C13.4853 19.2243 13.3146 19.1887 13.1626 19.11C13.0106 19.0312 12.883 18.9124 12.7938 18.7663C12.7045 18.6202 12.6569 18.4525 12.6562 18.2813V11.7188C12.6563 11.5473 12.7034 11.3791 12.7924 11.2325C12.8814 11.0859 13.0089 10.9665 13.1611 10.8873C13.3132 10.8082 13.4841 10.7723 13.6553 10.7835C13.8264 10.7948 13.9912 10.8528 14.1316 10.9512L18.8191 14.2324C18.9424 14.3189 19.0431 14.4338 19.1126 14.5674C19.1821 14.701 19.2184 14.8494 19.2184 15C19.2184 15.1506 19.1821 15.299 19.1126 15.4326C19.0431 15.5662 18.9424 15.6811 18.8191 15.7676V15.7641Z" fill="white"/>
</svg>
