<svg width="15" height="16" viewBox="0 0 15 16" fill="none" xmlns="http://www.w3.org/2000/svg">
<g clip-path="url(#clip0_427_205)">
<path d="M8.58 2.65259L9.68 4.87071C9.83 5.17946 10.23 5.47571 10.5675 5.53196L12.5606 5.86634C13.8356 6.08071 14.1356 7.01321 13.2169 7.93321L11.6669 9.49571C11.4044 9.76009 11.2606 10.2707 11.3419 10.6363L11.7856 12.5707C12.1356 14.102 11.3294 14.6938 9.98562 13.8938L8.11687 12.7782C7.77937 12.577 7.22312 12.577 6.87937 12.7782L5.01187 13.8938C3.67437 14.6938 2.86187 14.0951 3.21187 12.5707L3.65562 10.6363C3.73687 10.2707 3.59312 9.76009 3.33062 9.49571L1.78062 7.93321C0.868749 7.01259 1.1625 6.08071 2.43687 5.86634L4.43062 5.53196C4.76187 5.47571 5.16187 5.17946 5.31187 4.87071L6.41187 2.65259C7.01187 1.44946 7.98687 1.44946 8.58062 2.65259" stroke="#FF8A24" stroke-width="2" stroke-linecap="round" stroke-linejoin="round"/>
</g>
<defs>
<clipPath id="clip0_427_205">
<rect width="15" height="15" fill="white" transform="translate(0 0.5)"/>
</clipPath>
</defs>
</svg>
